<svg width="72" height="53" viewBox="0 0 72 53" fill="none" xmlns="http://www.w3.org/2000/svg">
<path d="M36.0088 25.8667C34.9803 25.8667 33.975 25.5618 33.1199 24.9904C32.2647 24.419 31.5982 23.6069 31.2047 22.6567C30.8111 21.7065 30.7081 20.661 30.9088 19.6523C31.1094 18.6436 31.6046 17.7171 32.3319 16.9898C33.0591 16.2626 33.9856 15.7674 34.9943 15.5667C36.003 15.3661 37.0486 15.469 37.9987 15.8626C38.9489 16.2562 39.761 16.9227 40.3324 17.7778C40.9038 18.6329 41.2088 19.6383 41.2088 20.6668C41.2088 22.0459 40.6609 23.3685 39.6857 24.3437C38.7105 25.3189 37.3879 25.8667 36.0088 25.8667ZM36.0088 17.2001C35.3232 17.2001 34.6529 17.4034 34.0828 17.7844C33.5128 18.1653 33.0684 18.7067 32.806 19.3401C32.5437 19.9736 32.475 20.6706 32.6088 21.3431C32.7425 22.0155 33.0727 22.6332 33.5575 23.118C34.0423 23.6029 34.66 23.933 35.3325 24.0668C36.005 24.2006 36.702 24.1319 37.3354 23.8695C37.9689 23.6071 38.5103 23.1628 38.8912 22.5927C39.2721 22.0226 39.4754 21.3524 39.4754 20.6668C39.4754 19.7474 39.1102 18.8656 38.4601 18.2155C37.81 17.5654 36.9282 17.2001 36.0088 17.2001Z" fill="white"/>
<path d="M36.0087 38.0001C34.0868 37.9988 32.1891 37.5714 30.4523 36.7487C28.7154 35.926 27.1826 34.7284 25.9641 33.2421L25.5134 32.6875L25.9641 32.1415C27.1836 30.6571 28.7169 29.4615 30.4537 28.6407C32.1905 27.8198 34.0877 27.394 36.0087 27.394C37.9297 27.394 39.8269 27.8198 41.5637 28.6407C43.3005 29.4615 44.8338 30.6571 46.0533 32.1415L46.5039 32.6875L46.0533 33.2421C44.8348 34.7284 43.302 35.926 41.5651 36.7487C39.8282 37.5714 37.9306 37.9988 36.0087 38.0001ZM27.7841 32.6961C28.8381 33.8245 30.1129 34.7242 31.5292 35.3393C32.9456 35.9544 34.4732 36.2719 36.0174 36.2719C37.5615 36.2719 39.0891 35.9544 40.5055 35.3393C41.9218 34.7242 43.1966 33.8245 44.2506 32.6961C43.1966 31.5677 41.9218 30.668 40.5055 30.0529C39.0891 29.4378 37.5615 29.1204 36.0174 29.1204C34.4732 29.1204 32.9456 29.4378 31.5292 30.0529C30.1129 30.668 28.8381 31.5677 27.7841 32.6961Z" fill="white"/>
<path d="M36.0086 37.9998C33.0557 38.0018 30.19 36.9984 27.8834 35.1547C25.5767 33.311 23.9665 30.7369 23.3177 27.8562C22.6689 24.9754 23.0202 21.9596 24.3138 19.305C25.6074 16.6505 27.7662 14.5155 30.4348 13.2514C33.1035 11.9873 36.1231 11.6694 38.9965 12.3501C41.8699 13.0308 44.4259 14.6694 46.244 16.9963C48.062 19.3233 49.0336 22.1998 48.9989 25.1526C48.9643 28.1053 47.9253 30.9583 46.0532 33.2419C44.8347 34.7281 43.3019 35.9257 41.565 36.7484C39.8281 37.5712 37.9305 37.9985 36.0086 37.9998ZM36.0086 13.7333C33.7803 13.7333 31.602 14.3941 29.7492 15.6321C27.8964 16.8701 26.4524 18.6297 25.5996 20.6884C24.7469 22.7471 24.5238 25.0124 24.9585 27.1979C25.3932 29.3834 26.4662 31.3909 28.0419 32.9666C29.6176 34.5423 31.6251 35.6153 33.8106 36.05C35.9961 36.4847 38.2614 36.2616 40.3201 35.4089C42.3788 34.5561 44.1384 33.1121 45.3764 31.2593C46.6144 29.4065 47.2752 27.2282 47.2752 24.9999C47.2752 22.0118 46.0882 19.1461 43.9753 17.0332C41.8624 14.9203 38.9967 13.7333 36.0086 13.7333Z" fill="white"/>
<path d="M26.6313 32.6961C26.6313 32.6961 35.3586 42.446 44.2419 33.6668L45.3859 32.6961C45.3859 32.6961 37.9673 25.0001 30.436 29.6194L26.6313 32.6961Z" fill="white"/>
<path d="M36.0088 25.0001C38.4021 25.0001 40.3421 23.06 40.3421 20.6668C40.3421 18.2736 38.4021 16.3335 36.0088 16.3335C33.6156 16.3335 31.6755 18.2736 31.6755 20.6668C31.6755 23.06 33.6156 25.0001 36.0088 25.0001Z" fill="white"/>
<path d="M10 0H62V2H10V0Z" fill="#06B8BE"/>
<path d="M10 0H62L72 40H0L10 0Z" fill="url(#paint0_linear_6002_756)"/>
<defs>
<linearGradient id="paint0_linear_6002_756" x1="36" y1="0" x2="36" y2="40" gradientUnits="userSpaceOnUse">
<stop stop-color="#0094FF" stop-opacity="0.29"/>
<stop offset="1" stop-color="#44DBFC" stop-opacity="0"/>
</linearGradient>
</defs>
</svg>
