<svg width="25" height="24" viewBox="0 0 25 24" fill="none" xmlns="http://www.w3.org/2000/svg">
<path d="M12.25 21C17.2206 21 21.25 16.9706 21.25 12C21.25 7.02944 17.2206 3 12.25 3C7.27944 3 3.25 7.02944 3.25 12C3.25 16.9706 7.27944 21 12.25 21Z" stroke="white" stroke-width="1.5" stroke-linecap="round" stroke-linejoin="round"/>
<path d="M12.25 15C14.3211 15 16 13.3211 16 11.25C16 9.17893 14.3211 7.5 12.25 7.5C10.1789 7.5 8.5 9.17893 8.5 11.25C8.5 13.3211 10.1789 15 12.25 15Z" stroke="white" stroke-width="1.5" stroke-linecap="round" stroke-linejoin="round"/>
<path d="M6.2312 18.6938C6.79549 17.5824 7.65654 16.6488 8.7189 15.9968C9.78126 15.3447 11.0034 14.9995 12.25 14.9995C13.4965 14.9995 14.7186 15.3447 15.781 15.9968C16.8434 16.6488 17.7044 17.5824 18.2687 18.6938" stroke="white" stroke-width="1.5" stroke-linecap="round" stroke-linejoin="round"/>
</svg>
