<svg width="64" height="64" viewBox="0 0 64 64" fill="none" xmlns="http://www.w3.org/2000/svg">
<path d="M60.5709 23.9995C59.6616 23.9995 58.7895 24.3607 58.1465 25.0037C57.5035 25.6467 57.1423 26.5188 57.1423 27.4281V39.7218L53.5594 43.3047C53.7878 42.5714 53.7634 41.7827 53.4901 41.065C53.2168 40.3473 52.7105 39.7422 52.0523 39.3465C51.3941 38.9509 50.6221 38.7877 49.8601 38.8831C49.098 38.9785 48.3901 39.327 47.8497 39.8727L44.2943 43.4281H43.428C41.0032 43.4281 38.6777 44.3913 36.963 46.106C35.2484 47.8206 34.2852 50.1461 34.2852 52.5709V63.9995H47.9994V58.5629L62.9949 43.5664C63.3134 43.2481 63.566 42.8703 63.7384 42.4543C63.9108 42.0384 63.9995 41.5926 63.9994 41.1424V27.4281C63.9994 26.5188 63.6382 25.6467 62.9952 25.0037C62.3523 24.3607 61.4802 23.9995 60.5709 23.9995Z" fill="#F0C8A0"/>
<path d="M54.8455 42.0188L53.5598 43.3045C53.3907 43.8462 53.0913 44.3308 52.6981 44.7205L46.4238 50.9948L46.9953 51.5662L53.841 44.7205C54.1953 44.3707 54.4689 43.9476 54.6424 43.4809C54.8159 43.0142 54.8853 42.5151 54.8455 42.0188Z" fill="#D2AA82"/>
<path d="M3.42857 23.9995C4.33789 23.9995 5.20996 24.3607 5.85294 25.0037C6.49592 25.6467 6.85714 26.5188 6.85714 27.4281V39.7218L10.44 43.3047C10.2116 42.5714 10.236 41.7827 10.5093 41.065C10.7826 40.3473 11.2889 39.7422 11.9471 39.3465C12.6054 38.9509 13.3774 38.7877 14.1394 38.8831C14.9014 38.9785 15.6093 39.327 16.1497 39.8727L19.7051 43.4281H20.5714C22.9963 43.4281 25.3218 44.3913 27.0364 46.106C28.751 47.8206 29.7143 50.1461 29.7143 52.5709V63.9995H16V58.5629L1.00457 43.5664C0.686076 43.2481 0.433421 42.8703 0.26105 42.4543C0.0886786 42.0384 -2.82446e-05 41.5926 6.746e-09 41.1424V27.4281C6.746e-09 26.5188 0.361224 25.6467 1.00421 25.0037C1.64719 24.3607 2.51926 23.9995 3.42857 23.9995Z" fill="#F0C8A0"/>
<path d="M9.15444 42.0188L10.4402 43.3045C10.6093 43.8462 10.9087 44.3308 11.3019 44.7205L17.5762 50.9948L17.0047 51.5662L10.159 44.7205C9.80466 44.3707 9.53112 43.9476 9.35758 43.4809C9.18405 43.0142 9.11471 42.5151 9.15444 42.0188Z" fill="#D2AA82"/>
<path d="M32.0006 41.1422C42.0995 41.1422 50.2863 32.9554 50.2863 22.8565C50.2863 12.7576 42.0995 4.5708 32.0006 4.5708C21.9016 4.5708 13.7148 12.7576 13.7148 22.8565C13.7148 32.9554 21.9016 41.1422 32.0006 41.1422Z" fill="#C80A50"/>
<path d="M46.8573 12.571H47.1202C46.7248 11.9916 46.2973 11.4361 45.8402 10.907C45.7516 11.0813 45.7091 11.2754 45.7168 11.4707C45.7245 11.6661 45.782 11.8563 45.884 12.0231C45.986 12.1899 46.129 12.3278 46.2993 12.4238C46.4697 12.5197 46.6618 12.5703 46.8573 12.571ZM48.4425 14.8453L45.8356 20.059C45.7134 20.3018 45.6818 20.5803 45.7464 20.8443C45.811 21.1084 45.9676 21.3408 46.1881 21.4998C46.4087 21.6587 46.6786 21.7339 46.9496 21.7118C47.2205 21.6896 47.4747 21.5717 47.6665 21.379L49.9076 19.1378C49.6004 17.6514 49.1082 16.2093 48.4425 14.8453ZM17.1431 12.571C17.3386 12.5703 17.5307 12.5197 17.7011 12.4238C17.8715 12.3278 18.0144 12.1899 18.1164 12.0231C18.2184 11.8563 18.276 11.6661 18.2836 11.4707C18.2913 11.2754 18.2488 11.0813 18.1602 10.907C17.7031 11.4361 17.2756 11.9916 16.8802 12.571H17.1431ZM15.5579 14.8453C14.8919 16.2088 14.3997 17.6506 14.0928 19.1367L16.3339 21.3778C16.5253 21.5706 16.7793 21.6886 17.05 21.7106C17.3208 21.7326 17.5905 21.6571 17.8105 21.4978C18.0306 21.3392 18.1871 21.1075 18.252 20.8441C18.3169 20.5807 18.286 20.3028 18.1648 20.0601L15.5579 14.8453Z" fill="#A00028"/>
<path d="M56.0001 9.14344H53.2778L57.0218 1.65429C57.1433 1.41151 57.1744 1.1334 57.1096 0.869773C57.0447 0.606149 56.8881 0.374228 56.6678 0.215545C56.4475 0.0568615 56.1779 -0.0182188 55.9073 0.00374929C55.6367 0.0257174 55.3828 0.143299 55.191 0.335437L46.0481 9.47829C45.8883 9.63812 45.7795 9.84174 45.7355 10.0634C45.6914 10.2851 45.714 10.5148 45.8005 10.7236C45.887 10.9324 46.0334 11.1109 46.2213 11.2365C46.4092 11.362 46.6301 11.4291 46.8561 11.4292H49.5784L45.8344 18.9183C45.7129 19.1611 45.6818 19.4392 45.7467 19.7028C45.8116 19.9664 45.9682 20.1984 46.1885 20.357C46.4087 20.5157 46.6783 20.5908 46.9489 20.5688C47.2195 20.5469 47.4735 20.4293 47.6653 20.2372L56.8081 11.0943C56.9679 10.9345 57.0767 10.7308 57.1208 10.5092C57.1649 10.2875 57.1422 10.0578 57.0558 9.84897C56.9693 9.64017 56.8228 9.4617 56.6349 9.33612C56.447 9.21054 56.2261 9.14349 56.0001 9.14344ZM18.1647 18.9183L14.4207 11.4292H17.143C17.3685 11.428 17.5887 11.3603 17.7759 11.2346C17.9631 11.1088 18.1089 10.9306 18.1952 10.7222C18.2815 10.5139 18.3044 10.2847 18.2609 10.0634C18.2175 9.84208 18.1097 9.63855 17.951 9.47829L8.80813 0.335437C8.61632 0.143299 8.36238 0.0257174 8.09178 0.00374929C7.82118 -0.0182188 7.5516 0.0568615 7.33131 0.215545C7.11103 0.374228 6.95443 0.606149 6.88955 0.869773C6.82468 1.1334 6.85578 1.41151 6.97727 1.65429L10.7213 9.14344H8.00013C7.77461 9.14457 7.55445 9.21226 7.36725 9.33802C7.18006 9.46378 7.03416 9.64202 6.94787 9.85037C6.86157 10.0587 6.83872 10.2879 6.88217 10.5092C6.92562 10.7305 7.03345 10.934 7.19213 11.0943L16.335 20.2372C16.5265 20.4297 16.7806 20.5475 17.0513 20.5693C17.3221 20.5911 17.5917 20.5154 17.8116 20.356C18.0314 20.1972 18.1877 19.9654 18.2524 19.7021C18.3171 19.4387 18.286 19.1609 18.1647 18.9183Z" fill="#FAB400"/>
<path d="M23.6646 15.1915C23.4503 14.9772 23.1596 14.8568 22.8566 14.8568C22.5535 14.8568 22.2628 14.9772 22.0486 15.1915C21.8343 15.4058 21.7139 15.6965 21.7139 15.9995C21.7139 16.3026 21.8343 16.5932 22.0486 16.8075L23.8966 18.6555C23.6052 18.8447 23.3607 19.0978 23.1818 19.3956C23.0029 19.6934 22.8942 20.0281 22.8641 20.3742C22.8339 20.7203 22.883 21.0688 23.0077 21.393C23.1324 21.7173 23.3294 22.0089 23.5837 22.2456C23.838 22.4823 24.1429 22.658 24.4752 22.7592C24.8075 22.8604 25.1586 22.8846 25.5017 22.8298C25.8447 22.775 26.1708 22.6427 26.4551 22.443C26.7394 22.2433 26.9744 21.9814 27.1423 21.6772C27.3347 21.7273 27.537 21.7261 27.7289 21.6738C27.9207 21.6214 28.0956 21.5198 28.236 21.379C28.3422 21.2729 28.4265 21.147 28.484 21.0083C28.5415 20.8697 28.5711 20.7211 28.5711 20.571C28.5711 20.4209 28.5415 20.2722 28.484 20.1336C28.4265 19.995 28.3422 19.869 28.236 19.763L23.6646 15.1915ZM41.9503 15.1915C41.8442 15.0853 41.7183 15.001 41.5796 14.9435C41.441 14.886 41.2924 14.8564 41.1423 14.8564C40.9922 14.8564 40.8435 14.886 40.7049 14.9435C40.5663 15.001 40.4403 15.0853 40.3343 15.1915L35.7628 19.763C35.5848 19.9399 35.4701 20.1707 35.4364 20.4194C35.4027 20.6682 35.4519 20.9211 35.5764 21.139C35.701 21.357 35.8939 21.5278 36.1253 21.6251C36.3567 21.7224 36.6137 21.7407 36.8566 21.6772C37.0244 21.9814 37.2595 22.2433 37.5437 22.443C37.828 22.6427 38.1541 22.775 38.4972 22.8298C38.8402 22.8846 39.1913 22.8604 39.5236 22.7592C39.856 22.658 40.1609 22.4823 40.4151 22.2456C40.6694 22.0089 40.8664 21.7173 40.9911 21.393C41.1158 21.0688 41.1649 20.7203 41.1347 20.3742C41.1046 20.0281 40.9959 19.6934 40.817 19.3956C40.6381 19.0978 40.3937 18.8447 40.1023 18.6555L41.9503 16.8075C42.0565 16.7015 42.1408 16.5755 42.1983 16.4369C42.2558 16.2982 42.2854 16.1496 42.2854 15.9995C42.2854 15.8494 42.2558 15.7008 42.1983 15.5622C42.1408 15.4235 42.0565 15.2976 41.9503 15.1915Z" fill="#82000A"/>
<path d="M39.9993 34.2851H23.9993C23.6962 34.2851 23.4055 34.1647 23.1912 33.9504C22.9769 33.7361 22.8564 33.4454 22.8564 33.1423C22.8564 31.6267 23.4585 30.1733 24.5301 29.1017C25.6018 28.03 27.0552 27.428 28.5707 27.428H35.4279C36.9434 27.428 38.3968 28.03 39.4685 29.1017C40.5401 30.1733 41.1422 31.6267 41.1422 33.1423C41.1422 33.4454 41.0218 33.7361 40.8074 33.9504C40.5931 34.1647 40.3024 34.2851 39.9993 34.2851Z" fill="#F0F0F0"/>
<path d="M22.9707 31.9995H41.0278C40.9475 31.6071 40.8265 31.224 40.6667 30.8567H23.3318C23.172 31.224 23.051 31.6071 22.9707 31.9995Z" fill="#D2D2D2"/>
</svg>
