<svg width="65" height="75" viewBox="0 0 65 75" fill="none" xmlns="http://www.w3.org/2000/svg">
<path fill-rule="evenodd" clip-rule="evenodd" d="M5.6952 74.4783H58.3495C61.4307 74.4783 64.6349 71.8805 63.9518 68.8759L59.3341 48.567C58.6511 45.5624 56.813 42.9646 53.7317 42.9646H10.3129C7.23163 42.9646 5.39375 45.5624 4.71054 48.567L0.0929816 68.8761C-0.590228 71.8805 2.61391 74.4783 5.6952 74.4783Z" fill="#19CFBA"/>
<path fill-rule="evenodd" clip-rule="evenodd" d="M47.6315 42.9648H16.0449C16.0025 43.5582 16.0076 44.1668 16.0586 44.8064C15.9636 45.5187 15.9161 46.2366 15.9162 46.9553C15.9155 48.3646 16.0995 49.7679 16.4636 51.1294C16.3864 52.0344 16.1964 52.9087 15.8862 53.8177L8.89648 74.3926C8.89912 74.4213 8.90259 74.4499 8.90555 74.4784H21.4536L24.8276 61.3683C29.3446 63.6278 34.7016 63.628 39.2184 61.3683L42.5924 74.4784H55.1405C55.1436 74.4499 55.1469 74.4213 55.1496 74.3926L48.1598 53.8177C47.8496 52.9089 47.6596 52.0346 47.5825 51.1295C47.9466 49.768 48.1306 48.3646 48.1298 46.9553C48.1298 46.2265 48.0813 45.509 47.9875 44.806C48.0383 44.1665 48.0436 43.558 48.0012 42.9648H47.6315Z" fill="#129182"/>
<path d="M48.0972 40.8178C48.462 31.9297 41.5524 24.4287 32.6643 24.064C23.7762 23.6992 16.2752 30.6088 15.9104 39.4969C15.5457 48.3851 22.4553 55.886 31.3434 56.2508C40.2315 56.6155 47.7325 49.706 48.0972 40.8178Z" fill="#C89D8D"/>
<path fill-rule="evenodd" clip-rule="evenodd" d="M26.3986 55.2609C20.9822 53.2422 16.9448 48.3926 16.0859 42.5109C16.1867 41.6287 16.3961 40.7725 16.721 39.8896L19.0205 33.6424C19.3057 32.8675 19.9923 32.4001 20.8458 32.4001H26.29C27.7846 32.4001 28.9704 33.8869 28.5573 35.306L27.1299 40.2085C26.7025 41.6765 26.5785 43.0211 26.7254 44.594L27.1751 49.407C27.3992 51.8037 26.9597 53.0805 26.3986 55.2609ZM47.9583 42.5109C47.0995 48.3926 43.0621 53.2421 37.6457 55.2607C37.0845 53.0805 36.6452 51.8036 36.8691 49.407L37.3188 44.594C37.4658 43.0211 37.3418 41.6765 36.9143 40.2085L35.4869 35.306C35.0736 33.8869 36.2595 32.4001 37.7542 32.4001H43.1984C44.052 32.4001 44.7385 32.8673 45.0238 33.6424L47.3232 39.8896C47.6483 40.7723 47.8577 41.6287 47.9583 42.5109Z" fill="#A37767"/>
<path fill-rule="evenodd" clip-rule="evenodd" d="M12.8855 50.0043C13.528 48.5266 13.8148 47.1478 13.8148 45.5365V41.9245C13.8148 40.2257 14.1342 38.7715 14.8461 37.229L17.4907 31.499C17.8187 30.7882 18.4886 30.3596 19.2714 30.3596H24.2649C25.6469 30.3596 26.5916 31.7349 26.0954 33.0248L24.3659 37.5215C23.8479 38.868 23.619 40.1013 23.619 41.5439V45.9587C23.619 47.2843 23.426 48.4171 22.9872 49.6679L15.6029 70.7178L15.6025 70.7174C14.8365 72.9013 12.7503 74.4785 10.3133 74.4785C7.23187 74.4785 4.71094 71.9574 4.71094 68.8761L12.8855 50.0043Z" fill="#F0B16E"/>
<path fill-rule="evenodd" clip-rule="evenodd" d="M60.391 5.27092H56.5142L59.6957 0.404516H53.0937L48.5724 8.05174H52.7436L45.0964 21.9559L60.391 5.27092ZM3.65527 5.27092H7.53207L4.35036 0.404516H10.9524L15.4737 8.05174H11.3025L18.9497 21.9559L3.65527 5.27092ZM32.023 18.4542L38.4625 7.6962H35.1944L38.676 0H25.3704L28.8521 7.6962H25.5838L32.023 18.4542Z" fill="#FFBF31"/>
<path fill-rule="evenodd" clip-rule="evenodd" d="M51.1601 50.0043C50.5176 48.5266 50.2308 47.1478 50.2308 45.5365V41.9245C50.2308 40.2257 49.9114 38.7715 49.1995 37.229L46.5549 31.499C46.2269 30.7882 45.557 30.3596 44.7742 30.3596H39.7807C38.3986 30.3596 37.454 31.7349 37.9502 33.0248L39.6798 37.5215C40.1977 38.868 40.4266 40.1013 40.4266 41.5439V45.9587C40.4266 47.2843 40.6196 48.4171 41.0584 49.6679L48.4429 70.7178L48.4432 70.7174C49.2092 72.9013 51.2955 74.4785 53.7325 74.4785C56.8139 74.4785 59.3348 71.9574 59.3348 68.8761L51.1601 50.0043Z" fill="#F0B16E"/>
</svg>
