<svg width="36" height="36" viewBox="0 0 36 36" fill="none" xmlns="http://www.w3.org/2000/svg">
<circle cx="18" cy="18" r="18" fill="white"/>
<g clip-path="url(#clip0_4244_680)">
<path d="M29.7409 18.0504C29.7409 24.6436 24.4285 29.9945 17.8695 29.9945C11.3105 29.9945 5.99805 24.6436 5.99805 18.0504C5.99805 11.4512 11.3105 6.1062 17.8695 6.1062C24.4285 6.1062 29.7409 11.4512 29.7409 18.0504Z" fill="#283544"/>
<path d="M23.1002 15.456C23.0354 15.4941 21.4933 16.2965 21.4933 18.0756C21.566 20.1046 23.4394 20.8162 23.4715 20.8162C23.4394 20.8542 23.1887 21.7855 22.4461 22.7618C21.8567 23.6027 21.2026 24.4505 20.2093 24.4505C19.2644 24.4505 18.9252 23.8901 17.835 23.8901C16.6641 23.8901 16.3329 24.4505 15.4364 24.4505C14.4431 24.4505 13.7405 23.5573 13.119 22.7242C12.3116 21.6339 11.6253 19.9229 11.6011 18.2801C11.5848 17.4095 11.7628 16.5538 12.2147 15.8269C12.8525 14.8121 13.9912 14.1233 15.2347 14.1006C16.1875 14.0705 17.0355 14.7139 17.6169 14.7139C18.1741 14.7139 19.2159 14.1006 20.3947 14.1006C20.9034 14.1011 22.2602 14.2448 23.1002 15.456ZM17.5363 13.9268C17.3667 13.1318 17.835 12.3367 18.2711 11.8296C18.8283 11.2163 19.7084 10.8 20.4673 10.8C20.5158 11.5951 20.2087 12.3748 19.6599 12.9426C19.1675 13.5559 18.3195 14.0176 17.5363 13.9268Z" fill="white"/>
</g>
<defs>
<clipPath id="clip0_4244_680">
<rect width="24" height="24" fill="white" transform="translate(6 6)"/>
</clipPath>
</defs>
</svg>
