<svg width="67" height="57" viewBox="0 0 67 57" fill="none" xmlns="http://www.w3.org/2000/svg">
<path d="M62.2629 29.8895C63.8423 31.7172 64.7096 34.0532 64.7058 36.4689C64.7058 42.0423 60.1793 46.5689 54.6058 46.5689C52.399 46.5689 50.3461 45.8504 48.6833 44.6495C47.7353 46.6387 46.2427 48.3185 44.3788 49.4939C42.5148 50.6694 40.3558 51.2923 38.1522 51.2904C35.8427 51.2904 33.6872 50.6232 31.8705 49.4531C30.0229 51.7113 27.2105 53.1482 24.0697 53.1482C20.4053 53.1482 17.1926 51.198 15.4272 48.2727L9.42257 55.4885C8.1806 56.9768 5.7685 55.817 6.15855 53.9181L8.6117 41.8473C3.74645 41.1186 0 36.9205 0 31.8499C0 27.8161 2.37104 24.3468 5.78903 22.725C5.59401 21.8834 5.49137 21.0109 5.49137 20.1179C5.49137 13.518 10.8493 8.16007 17.4492 8.16007C18.5475 8.16007 19.6047 8.30377 20.6106 8.58091C21.9552 3.63354 26.4817 0 31.8602 0C35.7401 0 39.1684 1.89889 41.293 4.81393C42.7889 3.97682 44.4749 3.53853 46.1891 3.54116C51.0954 3.54116 55.1908 7.03101 56.0941 11.6704H56.2891C58.4151 11.6703 60.4868 12.3419 62.2084 13.5891C63.9301 14.8364 65.2138 16.5957 65.8761 18.6159C66.5385 20.636 66.5458 22.8138 65.8969 24.8384C65.248 26.8629 63.9762 28.6307 62.2629 29.8895Z" fill="#5CBEFF"/>
<path d="M62.263 29.8896C63.8424 31.7173 64.7098 34.0533 64.7059 36.4689C64.7059 42.0424 60.1794 46.569 54.6059 46.569C53.4974 46.569 52.4402 46.3842 51.4445 46.0558C55.4681 44.7214 58.3729 40.9339 58.3729 36.4689C58.3729 33.9439 57.4491 31.655 55.93 29.8896C57.6433 28.6308 58.9151 26.863 59.564 24.8385C60.2129 22.8139 60.2056 20.6361 59.5432 18.616C58.8808 16.5958 57.5972 14.8365 55.8755 13.5892C54.1539 12.342 52.0822 11.6704 49.9562 11.6705H49.7612C49.416 9.91607 48.6091 8.28542 47.4237 6.94668C46.2383 5.60794 44.7173 4.60957 43.0176 4.05447C44.0132 3.71575 45.0807 3.54126 46.1892 3.54126C51.0955 3.54126 55.191 7.0311 56.0942 11.6705H56.2892C58.4152 11.6704 60.4869 12.342 62.2086 13.5892C63.9302 14.8365 65.2139 16.5958 65.8763 18.616C66.5387 20.6361 66.5459 22.8139 65.8971 24.8385C65.2482 26.863 63.9763 28.6308 62.263 29.8896Z" fill="#079CFF"/>
<path opacity="0.3" d="M30.8705 7.23118C33.0116 6.66706 34.4876 5.22367 34.1671 4.00727C33.8466 2.79088 31.8511 2.26211 29.7099 2.82623C27.5688 3.39035 26.0928 4.83374 26.4133 6.05013C26.7338 7.26653 28.7293 7.7953 30.8705 7.23118Z" fill="white"/>
<path opacity="0.3" d="M13.9548 16.6115C15.7883 15.3701 16.703 13.5194 15.9977 12.4777C15.2925 11.4361 13.2344 11.5981 11.4009 12.8394C9.56741 14.0808 8.65276 15.9316 9.35799 16.9732C10.0632 18.0148 12.1213 17.8529 13.9548 16.6115Z" fill="white"/>
<path d="M44.696 20.7431C44.696 23.3122 43.7343 25.6668 42.1259 27.5185C42.1259 27.5185 42.0828 27.5616 42.0109 27.6622C41.5234 28.2226 39.7292 30.4028 39.3412 32.3417H27.0384C26.6505 30.4038 24.8563 28.2216 24.3677 27.6612C24.3328 27.6106 24.2944 27.5626 24.2527 27.5175C22.6454 25.6668 21.6836 23.3122 21.6836 20.7431C21.6836 14.8134 26.8362 10.0046 33.197 10.0046C39.5424 10.0046 44.696 14.8134 44.696 20.7431Z" fill="#FFD80C"/>
<path d="M44.6956 20.7421C44.6956 23.3102 43.7328 25.6669 42.1275 27.5165C42.1275 27.5165 42.0844 27.5596 42.0126 27.6602C41.524 28.2206 39.7267 30.4058 39.3387 32.3407H36.3159C36.7039 30.4058 38.496 28.2206 38.9846 27.6602C39.0564 27.5596 39.0996 27.5165 39.0996 27.5165C40.7039 25.6669 41.6677 23.3102 41.6677 20.7421C41.6677 15.2938 37.3167 10.7899 31.6826 10.1001C32.1753 10.0385 32.6834 10.0046 33.1966 10.0046C39.5399 10.0046 44.6956 14.8155 44.6956 20.7421Z" fill="#FFBE00"/>
<path opacity="0.3" d="M28.5159 17.2685C27.0666 18.7189 25.3443 19.3214 24.6689 18.646C23.9801 17.9573 24.597 16.2349 26.033 14.799C27.4823 13.3497 29.2046 12.7328 29.88 13.4215C30.5688 14.1102 29.9519 15.8336 28.5159 17.2685Z" fill="white"/>
<path d="M36.0884 38.6265C36.0876 39.3953 35.7819 40.1325 35.2383 40.6763C34.6947 41.2201 33.9576 41.5261 33.1888 41.5271C32.4197 41.5263 31.6824 41.2205 31.1386 40.6767C30.5948 40.1328 30.2889 39.3955 30.2881 38.6265H36.0884Z" fill="#33527D"/>
<path d="M36.2933 23.6181L33.9808 25.7079V33.1464C33.9809 33.2752 33.9557 33.4027 33.9065 33.5217C33.8572 33.6407 33.785 33.7488 33.694 33.8399C33.6029 33.9309 33.4948 34.0031 33.3758 34.0523C33.2569 34.1015 33.1293 34.1268 33.0006 34.1267C32.8714 34.128 32.7433 34.1036 32.6237 34.0549C32.5041 34.0061 32.3954 33.934 32.304 33.8427C32.2126 33.7514 32.1404 33.6428 32.0915 33.5232C32.0426 33.4037 32.0181 33.2756 32.0193 33.1464V25.7079L29.6924 23.6171C29.502 23.4436 29.3882 23.2016 29.3761 22.9443C29.364 22.687 29.4545 22.4354 29.6277 22.2448C29.7131 22.148 29.8169 22.0691 29.933 22.0127C30.0491 21.9563 30.1752 21.9234 30.3041 21.9161C30.4329 21.9087 30.562 21.927 30.6837 21.9699C30.8055 22.0127 30.9176 22.0793 31.0134 22.1657L33.0006 23.9569L34.9733 22.1657C35.0691 22.0792 35.1812 22.0125 35.3029 21.9695C35.4247 21.9266 35.5538 21.9083 35.6827 21.9156C35.8116 21.923 35.9378 21.9559 36.0539 22.0124C36.17 22.0689 36.2737 22.1479 36.359 22.2448C36.4463 22.3385 36.5139 22.4487 36.5579 22.5689C36.602 22.6891 36.6215 22.8169 36.6154 22.9448C36.6093 23.0727 36.5776 23.198 36.5223 23.3135C36.467 23.429 36.3891 23.5332 36.2933 23.6181Z" fill="#E5E8EF"/>
<path d="M40.4876 33.9069C40.4876 34.7824 39.7855 35.4855 38.9089 35.4855H27.4694C27.0525 35.4855 26.6527 35.3199 26.3579 35.0251C26.0631 34.7303 25.8975 34.3304 25.8975 33.9135C25.8975 33.4966 26.0631 33.0968 26.3579 32.802C26.6527 32.5072 27.0525 32.3416 27.4694 32.3416H38.9089C39.7855 32.3416 40.4876 33.0457 40.4876 33.9069Z" fill="#5E7599"/>
<path d="M40.4882 33.9079C40.4882 34.7844 39.7841 35.4845 38.9076 35.4845H35.8837C36.0901 35.4845 36.2944 35.4438 36.4851 35.3648C36.6757 35.2859 36.849 35.1701 36.9949 35.0242C37.1408 34.8783 37.2566 34.705 37.3355 34.5144C37.4145 34.3237 37.4552 34.1194 37.4552 33.913C37.4552 33.7066 37.4145 33.5023 37.3355 33.3116C37.2566 33.121 37.1408 32.9477 36.9949 32.8018C36.849 32.6559 36.6757 32.5401 36.4851 32.4612C36.2944 32.3822 36.0901 32.3416 35.8837 32.3416H38.9076C39.7841 32.3416 40.4882 33.0457 40.4882 33.9079ZM39.314 37.0508C39.314 37.9263 38.6109 38.6294 37.7354 38.6294H28.6423C28.2254 38.6294 27.8255 38.4638 27.5307 38.169C27.2359 37.8742 27.0703 37.4744 27.0703 37.0575C27.0703 36.6405 27.2359 36.2407 27.5307 35.9459C27.8255 35.6511 28.2254 35.4855 28.6423 35.4855H37.7344C38.6099 35.4855 39.314 36.1896 39.314 37.0508Z" fill="#435E88"/>
<path d="M39.3145 37.0509C39.3145 37.9275 38.6094 38.6275 37.7338 38.6275H34.71C35.1267 38.6275 35.5264 38.462 35.8211 38.1673C36.1159 37.8726 36.2814 37.4729 36.2814 37.0561C36.2814 36.6393 36.1159 36.2396 35.8211 35.9449C35.5264 35.6502 35.1267 35.4846 34.71 35.4846H37.7328C38.6093 35.4846 39.3145 36.1887 39.3145 37.0509Z" fill="#33527D"/>
</svg>
