<svg width="184" height="124" viewBox="0 0 184 124" fill="none" xmlns="http://www.w3.org/2000/svg">
<g filter="url(#filter0_bd_4061_1392)">
<rect x="40" y="20" width="104" height="44" rx="10" fill="url(#paint0_linear_4061_1392)" shape-rendering="crispEdges"/>
<rect x="40.25" y="20.25" width="103.5" height="43.5" rx="9.75" stroke="url(#paint1_linear_4061_1392)" stroke-opacity="0.3" stroke-width="0.5" style="mix-blend-mode:overlay" shape-rendering="crispEdges"/>
<path d="M50.585 36.913H55.187C56.0623 36.913 56.7513 37.1297 57.254 37.563C57.7653 37.9963 58.021 38.616 58.021 39.422C58.021 39.8033 57.9343 40.1587 57.761 40.488C57.5877 40.8173 57.3407 41.0773 57.02 41.268C57.462 41.4413 57.787 41.6927 57.995 42.022C58.203 42.3427 58.307 42.763 58.307 43.283C58.307 43.8377 58.177 44.323 57.917 44.739C57.657 45.1463 57.306 45.4583 56.864 45.675C56.4307 45.8917 55.9453 46 55.408 46H50.585V36.913ZM54.68 40.514C55.356 40.514 55.694 40.1977 55.694 39.565C55.694 39.2097 55.6073 38.967 55.434 38.837C55.2607 38.6983 54.9963 38.629 54.641 38.629H52.886V40.514H54.68ZM54.823 44.284C55.213 44.284 55.5033 44.2103 55.694 44.063C55.8847 43.9157 55.98 43.6557 55.98 43.283C55.98 42.9103 55.8803 42.6417 55.681 42.477C55.4817 42.3037 55.1783 42.217 54.771 42.217H52.886V44.284H54.823ZM62.8058 46.195C62.0345 46.195 61.3585 46.0563 60.7778 45.779C60.1971 45.493 59.7465 45.103 59.4258 44.609C59.1138 44.1063 58.9578 43.53 58.9578 42.88C58.9578 42.23 59.1138 41.658 59.4258 41.164C59.7465 40.6613 60.1971 40.2713 60.7778 39.994C61.3585 39.708 62.0345 39.565 62.8058 39.565C63.5771 39.565 64.2531 39.708 64.8338 39.994C65.4145 40.2713 65.8608 40.6613 66.1728 41.164C66.4935 41.658 66.6538 42.23 66.6538 42.88C66.6538 43.53 66.4935 44.1063 66.1728 44.609C65.8608 45.103 65.4145 45.493 64.8338 45.779C64.2531 46.0563 63.5771 46.195 62.8058 46.195ZM62.8058 44.414C63.2651 44.414 63.6291 44.2797 63.8978 44.011C64.1751 43.7337 64.3138 43.3567 64.3138 42.88C64.3138 42.4033 64.1751 42.0307 63.8978 41.762C63.6291 41.4847 63.2651 41.346 62.8058 41.346C62.3465 41.346 61.9781 41.4847 61.7008 41.762C61.4321 42.0307 61.2978 42.4033 61.2978 42.88C61.2978 43.3567 61.4321 43.7337 61.7008 44.011C61.9781 44.2797 62.3465 44.414 62.8058 44.414ZM69.5816 46.195C68.8016 46.195 68.1689 46.0087 67.6836 45.636C67.2069 45.2547 66.9686 44.726 66.9686 44.05C66.9686 43.348 67.1982 42.8107 67.6576 42.438C68.1256 42.0567 68.7929 41.866 69.6596 41.866C69.9976 41.866 70.3356 41.905 70.6736 41.983C71.0116 42.0523 71.3019 42.1477 71.5446 42.269V42.139C71.5446 41.4717 70.9986 41.138 69.9066 41.138C69.1439 41.138 68.4462 41.2853 67.8136 41.58V40.007C68.0909 39.877 68.4549 39.773 68.9056 39.695C69.3562 39.6083 69.8242 39.565 70.3096 39.565C71.4709 39.565 72.3462 39.799 72.9356 40.267C73.5336 40.7263 73.8326 41.372 73.8326 42.204V46H71.6876V45.467C71.4536 45.6923 71.1589 45.87 70.8036 46C70.4482 46.13 70.0409 46.195 69.5816 46.195ZM70.2576 44.791C70.5262 44.791 70.7776 44.739 71.0116 44.635C71.2456 44.5223 71.4232 44.3793 71.5446 44.206V43.66C71.1719 43.4087 70.7472 43.283 70.2706 43.283C69.9672 43.283 69.7332 43.348 69.5686 43.478C69.4039 43.608 69.3216 43.7987 69.3216 44.05C69.3216 44.284 69.3996 44.466 69.5556 44.596C69.7202 44.726 69.9542 44.791 70.2576 44.791ZM77.3085 46.195C76.5372 46.195 75.9522 45.9827 75.5535 45.558C75.1635 45.1247 74.9685 44.5353 74.9685 43.79V41.346H74.0845V39.76H74.9685V37.888H77.2565V39.76H78.6865V41.346H77.2565V43.478C77.2565 43.816 77.3172 44.0587 77.4385 44.206C77.5685 44.3533 77.7939 44.427 78.1145 44.427C78.4005 44.427 78.6865 44.349 78.9725 44.193V45.896C78.7472 46 78.5045 46.0737 78.2445 46.117C77.9932 46.169 77.6812 46.195 77.3085 46.195ZM88.6651 46.195C87.7465 46.195 86.9145 45.9957 86.1691 45.597C85.4325 45.1983 84.8475 44.6437 84.4141 43.933C83.9895 43.2137 83.7771 42.3903 83.7771 41.463C83.7771 40.5357 83.9895 39.7123 84.4141 38.993C84.8475 38.2737 85.4325 37.7147 86.1691 37.316C86.9145 36.9173 87.7465 36.718 88.6651 36.718C89.5751 36.718 90.3985 36.9173 91.1351 37.316C91.8805 37.7147 92.4655 38.2737 92.8901 38.993C93.3148 39.7123 93.5271 40.5357 93.5271 41.463C93.5271 42.3903 93.3148 43.2137 92.8901 43.933C92.4655 44.6437 91.8805 45.1983 91.1351 45.597C90.3985 45.9957 89.5751 46.195 88.6651 46.195ZM88.6651 44.037C89.1245 44.037 89.5448 43.933 89.9261 43.725C90.3075 43.517 90.6108 43.218 90.8361 42.828C91.0615 42.438 91.1741 41.983 91.1741 41.463C91.1741 40.943 91.0615 40.4923 90.8361 40.111C90.6195 39.721 90.3205 39.422 89.9391 39.214C89.5578 38.9973 89.1331 38.889 88.6651 38.889C88.1885 38.889 87.7595 38.9973 87.3781 39.214C86.9968 39.422 86.6935 39.721 86.4681 40.111C86.2515 40.4923 86.1431 40.943 86.1431 41.463C86.1431 41.983 86.2515 42.438 86.4681 42.828C86.6935 43.218 86.9968 43.517 87.3781 43.725C87.7681 43.933 88.1971 44.037 88.6651 44.037ZM94.4346 39.76H96.6446V40.384C97.2253 39.838 97.9619 39.565 98.8546 39.565C99.5046 39.565 100.081 39.7037 100.584 39.981C101.086 40.2497 101.476 40.6353 101.754 41.138C102.031 41.632 102.17 42.2083 102.17 42.867C102.17 43.517 102.031 44.0977 101.754 44.609C101.476 45.1117 101.086 45.5017 100.584 45.779C100.09 46.0563 99.5133 46.195 98.8546 46.195C98.4386 46.195 98.0399 46.13 97.6586 46C97.2859 45.8787 96.9739 45.7097 96.7226 45.493V48.847H94.4346V39.76ZM98.2566 44.414C98.7246 44.414 99.1016 44.2753 99.3876 43.998C99.6736 43.7207 99.8166 43.3437 99.8166 42.867C99.8166 42.3903 99.6736 42.0177 99.3876 41.749C99.1016 41.4717 98.7246 41.333 98.2566 41.333C97.9099 41.333 97.5979 41.424 97.3206 41.606C97.0433 41.7793 96.8439 42.0177 96.7226 42.321V43.426C96.8439 43.7293 97.0433 43.972 97.3206 44.154C97.5979 44.3273 97.9099 44.414 98.2566 44.414ZM105.327 46.195C104.556 46.195 103.971 45.9827 103.572 45.558C103.182 45.1247 102.987 44.5353 102.987 43.79V41.346H102.103V39.76H102.987V37.888H105.275V39.76H106.705V41.346H105.275V43.478C105.275 43.816 105.336 44.0587 105.457 44.206C105.587 44.3533 105.812 44.427 106.133 44.427C106.419 44.427 106.705 44.349 106.991 44.193V45.896C106.766 46 106.523 46.0737 106.263 46.117C106.012 46.169 105.7 46.195 105.327 46.195ZM108.86 38.928C108.513 38.928 108.223 38.8153 107.989 38.59C107.755 38.3647 107.638 38.0787 107.638 37.732C107.638 37.394 107.755 37.1123 107.989 36.887C108.223 36.653 108.513 36.536 108.86 36.536C109.198 36.536 109.484 36.653 109.718 36.887C109.96 37.1123 110.082 37.394 110.082 37.732C110.082 38.07 109.96 38.356 109.718 38.59C109.484 38.8153 109.198 38.928 108.86 38.928ZM107.716 39.76H110.004V46H107.716V39.76ZM114.844 46.195C114.073 46.195 113.397 46.0563 112.816 45.779C112.235 45.493 111.785 45.103 111.464 44.609C111.152 44.1063 110.996 43.53 110.996 42.88C110.996 42.23 111.152 41.658 111.464 41.164C111.785 40.6613 112.235 40.2713 112.816 39.994C113.397 39.708 114.073 39.565 114.844 39.565C115.615 39.565 116.291 39.708 116.872 39.994C117.453 40.2713 117.899 40.6613 118.211 41.164C118.532 41.658 118.692 42.23 118.692 42.88C118.692 43.53 118.532 44.1063 118.211 44.609C117.899 45.103 117.453 45.493 116.872 45.779C116.291 46.0563 115.615 46.195 114.844 46.195ZM114.844 44.414C115.303 44.414 115.667 44.2797 115.936 44.011C116.213 43.7337 116.352 43.3567 116.352 42.88C116.352 42.4033 116.213 42.0307 115.936 41.762C115.667 41.4847 115.303 41.346 114.844 41.346C114.385 41.346 114.016 41.4847 113.739 41.762C113.47 42.0307 113.336 42.4033 113.336 42.88C113.336 43.3567 113.47 43.7337 113.739 44.011C114.016 44.2797 114.385 44.414 114.844 44.414ZM119.597 39.76H121.807V40.449C122.075 40.1543 122.4 39.9333 122.782 39.786C123.163 39.6387 123.562 39.565 123.978 39.565C124.853 39.565 125.499 39.7947 125.915 40.254C126.339 40.7047 126.552 41.32 126.552 42.1V46H124.264V42.399C124.264 41.697 123.943 41.346 123.302 41.346C123.007 41.346 122.738 41.4153 122.496 41.554C122.253 41.684 122.049 41.8877 121.885 42.165V46H119.597V39.76ZM130.349 46.195C129.847 46.195 129.322 46.143 128.776 46.039C128.23 45.9437 127.797 45.805 127.476 45.623V43.946C127.832 44.154 128.256 44.3273 128.75 44.466C129.253 44.596 129.712 44.661 130.128 44.661C130.432 44.661 130.653 44.6393 130.791 44.596C130.93 44.5527 130.999 44.466 130.999 44.336C130.999 44.232 130.952 44.1497 130.856 44.089C130.77 44.0197 130.605 43.9503 130.362 43.881C130.128 43.803 129.855 43.7207 129.543 43.634C129.015 43.478 128.599 43.3177 128.295 43.153C127.992 42.9883 127.767 42.7803 127.619 42.529C127.472 42.2777 127.398 41.9613 127.398 41.58C127.398 40.904 127.663 40.4013 128.191 40.072C128.729 39.734 129.461 39.565 130.388 39.565C130.839 39.565 131.311 39.6127 131.805 39.708C132.308 39.8033 132.685 39.929 132.936 40.085V41.736C132.676 41.5627 132.33 41.4197 131.896 41.307C131.472 41.1943 131.073 41.138 130.7 41.138C130.406 41.138 130.176 41.1683 130.011 41.229C129.847 41.281 129.764 41.3763 129.764 41.515C129.764 41.645 129.847 41.7447 130.011 41.814C130.176 41.8833 130.471 41.97 130.895 42.074C131.173 42.1433 131.29 42.1737 131.246 42.165C131.801 42.3123 132.23 42.477 132.533 42.659C132.837 42.841 133.049 43.0577 133.17 43.309C133.3 43.5517 133.365 43.8637 133.365 44.245C133.365 44.843 133.105 45.3197 132.585 45.675C132.074 46.0217 131.329 46.195 130.349 46.195Z" fill="white"/>
</g>
<defs>
<filter id="filter0_bd_4061_1392" x="-20" y="-40" width="224" height="164" filterUnits="userSpaceOnUse" color-interpolation-filters="sRGB">
<feFlood flood-opacity="0" result="BackgroundImageFix"/>
<feGaussianBlur in="BackgroundImageFix" stdDeviation="30"/>
<feComposite in2="SourceAlpha" operator="in" result="effect1_backgroundBlur_4061_1392"/>
<feColorMatrix in="SourceAlpha" type="matrix" values="0 0 0 0 0 0 0 0 0 0 0 0 0 0 0 0 0 0 127 0" result="hardAlpha"/>
<feOffset dy="20"/>
<feGaussianBlur stdDeviation="20"/>
<feComposite in2="hardAlpha" operator="out"/>
<feColorMatrix type="matrix" values="0 0 0 0 0 0 0 0 0 0 0 0 0 0 0 0 0 0 0.6 0"/>
<feBlend mode="overlay" in2="effect1_backgroundBlur_4061_1392" result="effect2_dropShadow_4061_1392"/>
<feBlend mode="normal" in="SourceGraphic" in2="effect2_dropShadow_4061_1392" result="shape"/>
</filter>
<linearGradient id="paint0_linear_4061_1392" x1="82.6563" y1="13.5" x2="108.86" y2="63.0232" gradientUnits="userSpaceOnUse">
<stop stop-color="#7ABEEB"/>
<stop offset="1" stop-color="#3E75D6"/>
</linearGradient>
<linearGradient id="paint1_linear_4061_1392" x1="92" y1="20" x2="92" y2="64" gradientUnits="userSpaceOnUse">
<stop stop-color="white"/>
<stop offset="1"/>
</linearGradient>
</defs>
</svg>
