<svg width="32" height="32" viewBox="0 0 32 32" fill="none" xmlns="http://www.w3.org/2000/svg">
<path d="M11.0781 12.4324C11.7566 12.4324 12.3086 11.8868 12.3086 11.2162C12.3086 10.5456 11.7566 10 11.0781 10C10.3997 10 9.84766 10.5456 9.84766 11.2162C9.84766 11.8868 10.3997 12.4324 11.0781 12.4324ZM18.4609 10H16.8203C15.2374 10 13.9492 11.2732 13.9492 12.8378C13.9492 13.3715 14.0962 13.8823 14.377 14.3292L13.9925 15.0889C13.9612 15.1507 13.9464 15.2194 13.9496 15.2884C13.9527 15.3575 13.9737 15.4246 14.0105 15.4833C14.0472 15.5421 14.0986 15.5907 14.1596 15.6244C14.2207 15.658 14.2895 15.6757 14.3594 15.6757H18.4609C20.0439 15.6757 21.332 14.4024 21.332 12.8378C21.332 11.2732 20.0439 10 18.4609 10ZM15.9993 13.2432C15.7727 13.2432 15.5891 13.0618 15.5891 12.8378C15.5891 12.6139 15.7727 12.4324 15.9993 12.4324C16.2258 12.4324 16.4094 12.6139 16.4094 12.8378C16.4094 13.0618 16.2258 13.2432 15.9993 13.2432ZM17.6399 13.2432C17.4133 13.2432 17.2297 13.0618 17.2297 12.8378C17.2297 12.6139 17.4133 12.4324 17.6399 12.4324C17.8664 12.4324 18.05 12.6139 18.05 12.8378C18.05 13.0618 17.8664 13.2432 17.6399 13.2432ZM19.2805 13.2432C19.054 13.2432 18.8704 13.0618 18.8704 12.8378C18.8704 12.6139 19.054 12.4324 19.2805 12.4324C19.5071 12.4324 19.6907 12.6139 19.6907 12.8378C19.6907 13.0618 19.5071 13.2432 19.2805 13.2432ZM10.668 20.1622C10.668 21.7268 11.9561 23 13.5391 23H17.6406C17.7828 23 17.915 22.9272 17.9895 22.8076C18.0263 22.7489 18.0473 22.6818 18.0504 22.6128C18.0536 22.5437 18.0388 22.475 18.0075 22.4132L17.623 21.6535C17.9038 21.2066 18.0508 20.6959 18.0508 20.1622C18.0508 18.5976 16.7626 17.3243 15.1797 17.3243H13.5391C11.9561 17.3243 10.668 18.5976 10.668 20.1622ZM12.7195 20.5676C12.4929 20.5676 12.3093 20.3861 12.3093 20.1622C12.3093 19.9382 12.4929 19.7568 12.7195 19.7568C12.946 19.7568 13.1296 19.9382 13.1296 20.1622C13.1296 20.3861 12.9461 20.5676 12.7195 20.5676ZM16.0007 19.7568C16.2273 19.7568 16.4109 19.9382 16.4109 20.1622C16.4109 20.3861 16.2273 20.5676 16.0007 20.5676C15.7742 20.5676 15.5906 20.3861 15.5906 20.1622C15.5906 19.9382 15.7742 19.7568 16.0007 19.7568ZM14.3601 19.7568C14.5867 19.7568 14.7703 19.9382 14.7703 20.1622C14.7703 20.3861 14.5867 20.5676 14.3601 20.5676C14.1336 20.5676 13.95 20.3861 13.95 20.1622C13.95 19.9382 14.1336 19.7568 14.3601 19.7568ZM9.41016 16.5135H12.7188C12.9454 16.5135 13.1289 16.3051 13.1289 16.0811V14.4595C13.1289 13.794 12.7984 13.2077 12.2959 12.8378C11.9544 13.0892 11.5356 13.2432 11.0781 13.2432C10.6207 13.2432 10.2018 13.0892 9.86037 12.8378C9.35779 13.2077 9 13.794 9 14.4595V16.0811C9 16.3051 9.18348 16.5135 9.41016 16.5135ZM19.6914 17.7297C19.6914 18.4004 20.2434 18.9459 20.9219 18.9459C21.6003 18.9459 22.1523 18.4003 22.1523 17.7297C22.1523 17.0591 21.6003 16.5135 20.9219 16.5135C20.2434 16.5135 19.6914 17.0591 19.6914 17.7297ZM22.1396 19.3514C21.7982 19.6027 21.3793 19.7568 20.9219 19.7568C20.4644 19.7568 20.0456 19.6027 19.7041 19.3514C19.2015 19.7212 18.8711 20.3075 18.8711 20.973V22.5946C18.8711 22.8187 19.0546 23 19.2812 23H22.5898C22.8165 23 23 22.8187 23 22.5946V20.973C23 20.3075 22.6422 19.7212 22.1396 19.3514Z" fill="#FAFAFA"/>
<circle cx="16" cy="16" r="16" fill="white" fill-opacity="0.22"/>
</svg>
