<svg width="30" height="28" viewBox="0 0 30 28" fill="none" xmlns="http://www.w3.org/2000/svg">
<path d="M14.6484 17.6991C15.9757 17.6991 17.0517 16.6688 17.0517 15.3979C17.0517 14.127 15.9757 13.0967 14.6484 13.0967C13.3211 13.0967 12.2451 14.127 12.2451 15.3979C12.2451 16.6688 13.3211 17.6991 14.6484 17.6991Z" fill="url(#paint0_linear_4061_901)"/>
<path d="M6.52342 18.7948C7.85073 18.7948 8.92673 17.7645 8.92673 16.4936C8.92673 15.2227 7.85073 14.1924 6.52342 14.1924C5.19611 14.1924 4.12012 15.2227 4.12012 16.4936C4.12012 17.7645 5.19611 18.7948 6.52342 18.7948Z" fill="url(#paint1_linear_4061_901)"/>
<path d="M22.7739 18.7948C24.1012 18.7948 25.1772 17.7645 25.1772 16.4936C25.1772 15.2227 24.1012 14.1924 22.7739 14.1924C21.4466 14.1924 20.3706 15.2227 20.3706 16.4936C20.3706 17.7645 21.4466 18.7948 22.7739 18.7948Z" fill="url(#paint2_linear_4061_901)"/>
<path d="M18.2146 12.0103C18.1472 12.0466 18.0945 12.1035 18.0649 12.1718C18.0353 12.2402 18.0305 12.3161 18.0514 12.3874C18.0722 12.4587 18.1175 12.5212 18.1798 12.5649C18.2422 12.6086 18.3181 12.6309 18.3954 12.6284C18.7329 12.6114 19.0691 12.5762 19.4025 12.5232L22.4146 13.31C23.2109 13.551 24.0127 12.6803 23.6277 11.9555C23.4359 11.5745 23.3114 11.1657 23.2592 10.7458C23.7146 10.3469 24.0806 9.86362 24.3352 9.32529C24.5897 8.78696 24.7275 8.20474 24.7401 7.61393C24.7401 6.14335 23.8749 4.75166 22.3643 3.79611C22.303 3.75914 22.2312 3.74151 22.1589 3.74573C22.0866 3.74995 22.0175 3.77579 21.9613 3.81961C21.9052 3.86344 21.8649 3.92303 21.846 3.98999C21.8271 4.05694 21.8307 4.12788 21.8562 4.1928C22.1366 4.85259 22.2812 5.5581 22.2819 6.27046C22.2819 8.56948 20.7621 10.7151 18.2146 12.0103Z" fill="url(#paint3_linear_4061_901)"/>
<path d="M13.0763 0.00195312C8.37953 0.00195312 4.55713 2.81381 4.55713 6.27C4.55713 7.69894 5.2209 9.08624 6.43171 10.1952C6.36878 10.75 6.20697 11.2904 5.95333 11.7929C5.50975 12.6551 6.434 13.6619 7.38159 13.384L11.2086 12.3846C11.8255 12.486 12.4503 12.5373 13.0763 12.5381C17.7753 12.5381 21.5954 9.7262 21.5954 6.27C21.5954 2.81381 17.7753 0.00195312 13.0763 0.00195312ZM8.92657 7.28911C8.72286 7.28911 8.52372 7.23127 8.35434 7.1229C8.18496 7.01453 8.05294 6.8605 7.97498 6.68029C7.89703 6.50008 7.87663 6.30178 7.91637 6.11047C7.95611 5.91916 8.05421 5.74343 8.19826 5.60551C8.3423 5.46758 8.52583 5.37365 8.72563 5.3356C8.92543 5.29754 9.13252 5.31707 9.32073 5.39172C9.50893 5.46636 9.6698 5.59277 9.78297 5.75496C9.89615 5.91714 9.95656 6.10782 9.95656 6.30288C9.95656 6.56444 9.84804 6.8153 9.65488 7.00025C9.46172 7.1852 9.19974 7.28911 8.92657 7.28911ZM13.0465 7.28911C12.8428 7.28911 12.6437 7.23127 12.4743 7.1229C12.3049 7.01453 12.1729 6.8605 12.0949 6.68029C12.017 6.50008 11.9966 6.30178 12.0363 6.11047C12.0761 5.91916 12.1742 5.74343 12.3182 5.60551C12.4623 5.46758 12.6458 5.37365 12.8456 5.3356C13.0454 5.29754 13.2525 5.31707 13.4407 5.39172C13.6289 5.46636 13.7898 5.59277 13.9029 5.75496C14.0161 5.91714 14.0765 6.10782 14.0765 6.30288C14.0765 6.56444 13.968 6.8153 13.7748 7.00025C13.5817 7.1852 13.3197 7.28911 13.0465 7.28911ZM17.1665 7.28911C16.9628 7.28911 16.7636 7.23127 16.5942 7.1229C16.4249 7.01453 16.2929 6.8605 16.2149 6.68029C16.1369 6.50008 16.1165 6.30178 16.1563 6.11047C16.196 5.91916 16.2941 5.74343 16.4382 5.60551C16.5822 5.46758 16.7657 5.37365 16.9655 5.3356C17.1653 5.29754 17.3724 5.31707 17.5606 5.39172C17.7488 5.46636 17.9097 5.59277 18.0229 5.75496C18.1361 5.91714 18.1965 6.10782 18.1965 6.30288C18.1965 6.56444 18.0879 6.8153 17.8948 7.00025C17.7016 7.1852 17.4396 7.28911 17.1665 7.28911ZM28.6108 17.9185H27.6952C27.5131 17.9185 27.3385 17.9878 27.2097 18.1111C27.0809 18.2344 27.0086 18.4016 27.0086 18.576V27.6712C27.0086 27.7584 27.0448 27.842 27.1091 27.9037C27.1735 27.9653 27.2609 28 27.3519 28H28.9541C29.0452 28 29.1325 27.9653 29.1969 27.9037C29.2613 27.842 29.2975 27.7584 29.2975 27.6712V18.576C29.2975 18.4016 29.2251 18.2344 29.0963 18.1111C28.9676 17.9878 28.7929 17.9185 28.6108 17.9185ZM0.686659 28H1.94553C2.03659 28 2.12392 27.9653 2.1883 27.9037C2.25269 27.842 2.28886 27.7584 2.28886 27.6712V18.576C2.28886 18.4016 2.21652 18.2344 2.08775 18.1111C1.95897 17.9878 1.78432 17.9185 1.6022 17.9185H0.686659C0.504546 17.9185 0.329891 17.9878 0.201118 18.1111C0.0723442 18.2344 0 18.4016 0 18.576L0 27.3425C0 27.5169 0.0723442 27.6841 0.201118 27.8074C0.329891 27.9307 0.504546 28 0.686659 28ZM10.071 22.572V22.7381C10.0709 22.8222 10.1044 22.9032 10.1648 22.9644C10.2251 23.0255 10.3076 23.0622 10.3953 23.0668L11.8831 23.1462C12.321 23.1695 12.733 23.3525 13.0345 23.6576C13.336 23.9626 13.5041 24.3666 13.5043 24.7866C13.4997 24.8326 13.5052 24.8789 13.5203 24.9227C13.5355 24.9665 13.56 25.0068 13.5922 25.0411C13.6245 25.0753 13.6639 25.1028 13.7079 25.1217C13.7518 25.1406 13.7994 25.1505 13.8476 25.1509H15.4498C15.498 25.1505 15.5456 25.1406 15.5896 25.1217C15.6335 25.1028 15.6729 25.0753 15.7052 25.0411C15.7375 25.0068 15.762 24.9665 15.7771 24.9227C15.7923 24.8789 15.7977 24.8326 15.7932 24.7866C15.7932 24.3664 15.9613 23.9622 16.2629 23.6569C16.5646 23.3517 16.9769 23.1687 17.415 23.1455L18.9028 23.0662C18.9905 23.0615 19.0731 23.0249 19.1334 22.9637C19.1937 22.9025 19.2273 22.8216 19.2271 22.7374V22.5713C19.2271 21.4088 18.7448 20.2939 17.8864 19.4719C17.0279 18.6499 15.8635 18.1881 14.6494 18.1881C13.4353 18.1881 12.271 18.6499 11.4125 19.4719C10.554 20.2939 10.0717 21.4088 10.0717 22.5713L10.071 22.572Z" fill="url(#paint4_linear_4061_901)"/>
<path d="M26.3219 20.3294C26.3219 20.2807 26.3107 20.2326 26.2889 20.1887C26.2671 20.1447 26.2354 20.1059 26.196 20.0752C25.4889 19.5228 24.6022 19.225 23.6897 19.2336C20.9266 19.2336 20.616 22.3689 20.5867 23.3297C20.5852 23.4128 20.551 23.4923 20.4908 23.5522C20.4306 23.6121 20.349 23.648 20.2623 23.6526L17.4528 23.802C17.1913 23.8198 16.9463 23.9308 16.7662 24.1131C16.5861 24.2954 16.4839 24.5358 16.4798 24.7867C16.4759 24.8325 16.4818 24.8786 16.4972 24.9221C16.5126 24.9657 16.5371 25.0057 16.5693 25.0398C16.6015 25.0739 16.6406 25.1014 16.6842 25.1205C16.7278 25.1396 16.7751 25.15 16.8231 25.151H21.5153C21.8794 25.1513 22.2285 25.29 22.4859 25.5365C22.7434 25.783 22.8882 26.1173 22.8886 26.4659V27.6713C22.8886 27.7585 22.9248 27.8421 22.9891 27.9038C23.0535 27.9654 23.1409 28.0001 23.2319 28.0001H25.9785C26.0696 28.0001 26.1569 27.9654 26.2213 27.9038C26.2857 27.8421 26.3219 27.7585 26.3219 27.6713V20.3294ZM2.97546 20.3294V27.6713C2.97546 27.7585 3.01164 27.8421 3.07602 27.9038C3.14041 27.9654 3.22774 28.0001 3.31879 28.0001H6.06543C6.15649 28.0001 6.24381 27.9654 6.3082 27.9038C6.37259 27.8421 6.40876 27.7585 6.40876 27.6713V26.4659C6.40912 26.1173 6.55393 25.783 6.8114 25.5365C7.06886 25.29 7.41796 25.1513 7.78208 25.151H12.4742C12.5222 25.15 12.5695 25.1396 12.6131 25.1205C12.6568 25.1014 12.6959 25.0739 12.728 25.0398C12.7602 25.0057 12.7847 24.9657 12.8001 24.9221C12.8155 24.8786 12.8215 24.8325 12.8176 24.7867C12.8134 24.5358 12.7112 24.2955 12.5312 24.1133C12.3511 23.931 12.1062 23.8199 11.8448 23.802L9.035 23.6526C8.94834 23.648 8.8667 23.6121 8.80652 23.5522C8.74635 23.4923 8.7121 23.4128 8.71067 23.3297C8.68137 22.3689 8.371 19.2336 5.60766 19.2336C4.69506 19.2252 3.80821 19.5231 3.10112 20.0756C3.0619 20.1064 3.03029 20.1451 3.00856 20.189C2.98684 20.2329 2.97553 20.2808 2.97546 20.3294Z" fill="url(#paint5_linear_4061_901)"/>
<path d="M22.2017 27.6715V26.4661C22.2017 26.2917 22.1294 26.1245 22.0006 26.0012C21.8718 25.8779 21.6972 25.8086 21.5151 25.8086H7.78187C7.59976 25.8086 7.42511 25.8779 7.29633 26.0012C7.16756 26.1245 7.09521 26.2917 7.09521 26.4661V27.6715C7.09521 27.7587 7.13139 27.8423 7.19577 27.9039C7.26016 27.9656 7.34749 28.0002 7.43854 28.0002H21.8584C21.9494 28.0002 22.0368 27.9656 22.1012 27.9039C22.1655 27.8423 22.2017 27.7587 22.2017 27.6715Z" fill="url(#paint6_linear_4061_901)"/>
<defs>
<linearGradient id="paint0_linear_4061_901" x1="14.6484" y1="13.0967" x2="14.6484" y2="17.6991" gradientUnits="userSpaceOnUse">
<stop offset="0.406029" stop-color="#04D4CB"/>
<stop offset="1" stop-color="#A01ECE"/>
</linearGradient>
<linearGradient id="paint1_linear_4061_901" x1="6.52342" y1="14.1924" x2="6.52342" y2="18.7948" gradientUnits="userSpaceOnUse">
<stop offset="0.406029" stop-color="#04D4CB"/>
<stop offset="1" stop-color="#A01ECE"/>
</linearGradient>
<linearGradient id="paint2_linear_4061_901" x1="22.7739" y1="14.1924" x2="22.7739" y2="18.7948" gradientUnits="userSpaceOnUse">
<stop offset="0.406029" stop-color="#04D4CB"/>
<stop offset="1" stop-color="#A01ECE"/>
</linearGradient>
<linearGradient id="paint3_linear_4061_901" x1="21.3893" y1="3.74512" x2="21.3893" y2="13.3509" gradientUnits="userSpaceOnUse">
<stop offset="0.406029" stop-color="#04D4CB"/>
<stop offset="1" stop-color="#A01ECE"/>
</linearGradient>
<linearGradient id="paint4_linear_4061_901" x1="14.6487" y1="0.00195312" x2="14.6487" y2="28" gradientUnits="userSpaceOnUse">
<stop offset="0.406029" stop-color="#04D4CB"/>
<stop offset="1" stop-color="#A01ECE"/>
</linearGradient>
<linearGradient id="paint5_linear_4061_901" x1="14.6487" y1="19.2334" x2="14.6487" y2="28.0001" gradientUnits="userSpaceOnUse">
<stop offset="0.406029" stop-color="#04D4CB"/>
<stop offset="1" stop-color="#A01ECE"/>
</linearGradient>
<linearGradient id="paint6_linear_4061_901" x1="14.6485" y1="25.8086" x2="14.6485" y2="28.0002" gradientUnits="userSpaceOnUse">
<stop offset="0.406029" stop-color="#04D4CB"/>
<stop offset="1" stop-color="#A01ECE"/>
</linearGradient>
</defs>
</svg>
