<svg width="26" height="24" viewBox="0 0 26 24" fill="none" xmlns="http://www.w3.org/2000/svg">
<path d="M23.7149 6.39977H18.3828V2.39991C18.3828 1.0766 17.3577 0 16.0977 0H2.28516C1.02512 0 0 1.0766 0 2.39991V11.9996C0 13.3229 1.02512 14.3995 2.28516 14.3995H3.04688V16.7994C3.04688 17.4401 3.72827 17.817 4.2311 17.465L7.6172 15.0943V18.3993C7.6172 19.7227 8.64233 20.7993 9.90236 20.7993H17.3905L21.7689 23.8648C22.2724 24.2174 22.9531 23.84 22.9531 23.1992V20.7993H23.7148C24.9749 20.7993 26 19.7227 26 18.3993V8.79969C26.0001 7.47637 24.9749 6.39977 23.7149 6.39977ZM7.95429 12.9354L7.95211 12.9369L4.57032 15.3046V13.5995C4.57032 13.1577 4.22927 12.7995 3.8086 12.7995H2.28516C1.86515 12.7995 1.52344 12.4407 1.52344 11.9996V2.39991C1.52344 1.95881 1.86515 1.59994 2.28516 1.59994H16.0977C16.5177 1.59994 16.8594 1.95881 16.8594 2.39991V11.9996C16.8594 12.4407 16.5177 12.7995 16.0977 12.7995H8.37892C8.2315 12.7995 8.07916 12.8474 7.95429 12.9354ZM24.4766 18.3993C24.4766 18.8404 24.1349 19.1993 23.7149 19.1993H22.1915C21.7708 19.1993 21.4297 19.5575 21.4297 19.9993V21.7044L18.0436 19.3337C17.9185 19.246 17.7715 19.1993 17.6211 19.1993H9.90236C9.48235 19.1993 9.14064 18.8404 9.14064 18.3993V14.3995H16.0977C17.3577 14.3995 18.3828 13.3229 18.3828 11.9996V7.99971H23.7149C24.1349 7.99971 24.4766 8.35858 24.4766 8.79969V18.3993Z" fill="white"/>
<path d="M9.90236 7.99969H3.8086C3.38792 7.99969 3.04688 8.35786 3.04688 8.79966C3.04688 9.24146 3.38792 9.59963 3.8086 9.59963H9.90236C10.323 9.59963 10.6641 9.24146 10.6641 8.79966C10.6641 8.35786 10.323 7.99969 9.90236 7.99969ZM14.5742 4.7998H3.8086C3.38792 4.7998 3.04688 5.15798 3.04688 5.59978C3.04688 6.04157 3.38792 6.39975 3.8086 6.39975H14.5742C14.9949 6.39975 15.336 6.04157 15.336 5.59978C15.336 5.15798 14.9949 4.7998 14.5742 4.7998Z" fill="white"/>
</svg>
