<svg width="72" height="53" viewBox="0 0 72 53" fill="none" xmlns="http://www.w3.org/2000/svg">
<path d="M37.2867 15H21.5959C20.1594 15 19 16.1594 19 17.5959V27.9796C19 29.4159 20.1594 30.5755 21.5959 30.5755H22.4612V33.1714C22.4612 33.7965 23.1085 34.2493 23.7419 33.9328C23.7592 33.9155 23.7938 33.9155 23.8111 33.8982C28.5712 30.7061 27.5044 31.4178 28.5703 30.7139C28.7087 30.6273 28.8645 30.5755 29.0375 30.5755H37.2867C38.7232 30.5755 39.8827 29.4159 39.8827 27.9796V17.5959C39.8827 16.1594 38.7232 15 37.2867 15ZM30.3643 25.3836H23.3265C22.1859 25.3836 22.1812 23.653 23.3265 23.653H30.3643C31.505 23.653 31.5096 25.3836 30.3643 25.3836ZM35.5561 21.9224H23.3265C22.1859 21.9224 22.1812 20.1918 23.3265 20.1918H35.5561C36.6968 20.1918 36.7015 21.9224 35.5561 21.9224Z" fill="white"/>
<path d="M45.9398 21.9224H41.6133V27.9795C41.6133 30.3677 39.675 32.306 37.2868 32.306H29.2972L27.6531 33.3963V34.9019C27.6531 36.3383 28.8125 37.4978 30.249 37.4978H38.7577L43.7246 40.8205C44.4025 41.1969 45.0745 40.7392 45.0745 40.0937V37.4978H45.9398C47.3763 37.4978 48.5357 36.3383 48.5357 34.9019V24.5183C48.5357 23.0819 47.3763 21.9224 45.9398 21.9224Z" fill="white"/>
<path d="M10 0H62V2H10V0Z" fill="#06B8BE"/>
<path d="M10 0H62L72 40H0L10 0Z" fill="url(#paint0_linear_6002_754)"/>
<defs>
<linearGradient id="paint0_linear_6002_754" x1="36" y1="0" x2="36" y2="40" gradientUnits="userSpaceOnUse">
<stop stop-color="#0094FF" stop-opacity="0.29"/>
<stop offset="1" stop-color="#44DBFC" stop-opacity="0"/>
</linearGradient>
</defs>
</svg>
