<svg width="23" height="29" viewBox="0 0 23 29" fill="none" xmlns="http://www.w3.org/2000/svg">
<path d="M20.5495 8.5625C20.6671 8.56251 20.7834 8.58718 20.8909 8.63492C20.9985 8.68267 21.0947 8.75242 21.1736 8.83968C21.2525 8.92694 21.3122 9.02977 21.3489 9.14154C21.3856 9.2533 21.3984 9.37151 21.3866 9.48854L19.7162 26.0053C19.6456 26.7035 19.3183 27.3506 18.7978 27.8211C18.2772 28.2917 17.6005 28.5522 16.8987 28.5522H6.73429C6.03257 28.5522 5.35585 28.2917 4.83529 27.8211C4.31474 27.3505 3.98744 26.7035 3.91683 26.0053L2.15283 8.5625H20.5495Z" fill="#66CCFF"/>
<path d="M6.25441 26.0443C6.41093 27.1518 7.13321 28.2112 8.06015 28.5522H6.73434C6.03262 28.5522 5.35588 28.2917 4.83531 27.8211C4.31475 27.3506 3.98744 26.7035 3.91683 26.0053L2.15283 8.5625H4.76164L6.25441 26.0443Z" fill="#4DA6FF"/>
<path d="M21.9024 3.11156C21.989 3.34955 22.0279 3.60227 22.0168 3.85529C22.0058 4.10831 21.945 4.35668 21.838 4.58621C21.7309 4.81574 21.5797 5.02194 21.393 5.19304C21.2063 5.36414 20.9877 5.49679 20.7497 5.58341L2.58824 12.1939C2.10758 12.3688 1.57712 12.3456 1.11354 12.1295C0.649965 11.9133 0.291249 11.5218 0.116307 11.0412C-0.0586341 10.5605 -0.035471 10.03 0.180701 9.56646C0.396874 9.10288 0.788347 8.74417 1.269 8.56923L19.4305 1.95895C19.9111 1.78402 20.4416 1.80718 20.9051 2.02334C21.3687 2.23949 21.7274 2.63093 21.9024 3.11156Z" fill="#A1C5E5"/>
<path d="M4.99677 11.3172L2.58824 12.1939C2.10758 12.3689 1.57712 12.3457 1.11354 12.1296C0.649965 11.9134 0.291249 11.5219 0.116307 11.0413C-0.0586341 10.5606 -0.035471 10.0301 0.180701 9.56656C0.396874 9.10298 0.788347 8.74426 1.269 8.56932L3.67248 7.69446L4.99677 11.3172Z" fill="#A1C5E5"/>
<path d="M14.9916 3.57463L13.5731 4.09085L13.0552 2.66802C12.9968 2.50809 12.8773 2.37786 12.723 2.30591C12.5687 2.23395 12.3922 2.22615 12.2321 2.28421L6.99285 4.19119C6.83293 4.2496 6.70271 4.36906 6.63075 4.52336C6.5588 4.67766 6.55099 4.8542 6.60904 5.01426L7.12694 6.43714L5.7085 6.95342L5.19059 5.53053C4.9961 4.99425 5.02227 4.40272 5.26336 3.88572C5.50446 3.36871 5.94079 2.96845 6.47662 2.77274L11.716 0.865766C12.2523 0.67127 12.8438 0.697433 13.3608 0.938517C13.8778 1.1796 14.2781 1.61592 14.4738 2.15174L14.9916 3.57463Z" fill="#66CCFF"/>
<path d="M5.97184 6.85769L5.70825 6.95365L5.19034 5.53076C4.99585 4.99448 5.02202 4.40295 5.26312 3.88594C5.50421 3.36894 5.94054 2.96867 6.47638 2.77297L11.7157 0.865993C12.2275 0.679389 12.7911 0.694675 13.292 0.908745C12.8819 0.809424 12.4516 0.833642 12.0552 0.978349L6.5911 2.97886C5.63876 3.32717 5.06866 4.3536 5.47466 5.46852L5.97184 6.85769Z" fill="#4DA6FF"/>
<path d="M12.5605 13.2436V24.4392C12.5605 24.6483 12.4774 24.8488 12.3295 24.9967C12.1816 25.1446 11.9811 25.2277 11.7719 25.2277C11.5628 25.2277 11.3623 25.1446 11.2144 24.9967C11.0665 24.8488 10.9834 24.6483 10.9834 24.4392V13.2436C10.9834 13.0345 11.0665 12.8339 11.2144 12.686C11.3623 12.5382 11.5628 12.4551 11.7719 12.4551C11.9811 12.4551 12.1816 12.5382 12.3295 12.686C12.4774 12.8339 12.5605 13.0345 12.5605 13.2436ZM16.0234 13.7199C15.8143 13.7199 15.6137 13.803 15.4658 13.9509C15.318 14.0988 15.2349 14.2993 15.2349 14.5085V23.1744C15.2349 23.3835 15.318 23.584 15.4658 23.7319C15.6137 23.8798 15.8143 23.9629 16.0234 23.9629C16.2325 23.9629 16.4331 23.8798 16.581 23.7319C16.7289 23.584 16.8119 23.3835 16.8119 23.1744V14.5085C16.8119 14.2993 16.7289 14.0988 16.581 13.9509C16.4331 13.803 16.2325 13.7199 16.0234 13.7199ZM7.64081 13.7199C7.43169 13.7199 7.23112 13.803 7.08325 13.9509C6.93537 14.0988 6.85229 14.2993 6.85229 14.5085V23.1744C6.85405 23.3823 6.9379 23.5812 7.08558 23.7276C7.23326 23.8741 7.43281 23.9562 7.64079 23.9562C7.84876 23.9562 8.04832 23.8741 8.196 23.7276C8.34368 23.5812 8.42752 23.3823 8.42928 23.1744V14.5085C8.42928 14.2993 8.34621 14.0988 8.19835 13.9509C8.05048 13.803 7.84993 13.7199 7.64081 13.7199Z" fill="#A1C5E5"/>
</svg>
