<svg width="63" height="63" viewBox="0 0 63 63" fill="none" xmlns="http://www.w3.org/2000/svg">
<path d="M48.203 39.2986C46.8696 42.3432 46.3698 45.6875 46.7547 48.9889C46.9891 51.1374 47.4142 53.2609 48.0259 55.3344C48.3541 56.4077 48.7688 57.4538 49.2658 58.4603C49.8824 59.4075 50.4392 60.3924 50.9329 61.4091L24.7797 61.482V61.4716C24.6963 61.159 23.123 55.0323 19.6428 53.4589C18.9968 53.6881 18.3091 53.9174 17.611 54.157C15.2967 54.9598 12.9421 55.6415 10.5569 56.1993C9.90046 56.3556 9.20755 56.2597 8.61884 55.9284C7.94862 55.516 7.44928 54.8761 7.21219 54.1258C6.93926 53.3836 6.83948 52.5888 6.92044 51.8022C7.16048 50.999 7.24188 50.1567 7.1601 49.3223C6.88919 48.2699 5.8889 48.0095 5.09701 47.4468C4.45099 46.9883 5.60757 45.5192 5.60757 45.5192C5.60757 45.5192 4.37806 44.6127 3.94043 44.2167C3.48197 43.8416 4.12799 43.1956 4.70107 41.9765C4.93753 41.4472 5.0066 40.8582 4.89904 40.2885C4.68023 39.1736 2.99225 38.7464 2.15868 38.1317C1.76273 37.8399 1.12713 37.4023 1.0542 36.8709C0.939581 36.1311 1.81483 35.0891 2.24203 34.5681C4.05979 32.2256 5.61796 29.6927 6.88919 27.0139C7.0559 26.7315 7.15593 26.4137 7.18093 26.0866C7.1601 24.5966 5.00323 23.9818 4.80526 22.5335C4.774 22.1084 4.84902 21.6822 5.02407 21.2935C5.62494 20.0163 6.14012 18.7006 6.56618 17.3549C6.8225 16.1202 7.1528 14.9032 7.55604 13.7081C8.43025 11.3115 9.77542 9.11405 11.5155 7.24789C14.0683 4.54921 17.8402 3.2155 21.4037 2.50696C24.5727 1.81411 27.7864 1.34407 31.021 1.10031C31.1252 1.0899 31.2294 1.0899 31.3336 1.07948C38.0022 0.746048 43.2745 3.00711 48.4426 7.04992C51.2588 9.15084 53.3173 12.1088 54.3089 15.4794C55.0645 18.2628 55.4189 21.1399 55.3613 24.0235C55.3413 26.8713 54.51 29.6544 52.9648 32.0466C51.4122 34.4952 49.3804 36.6208 48.203 39.2986Z" fill="#283593"/>
<path d="M45.0771 39.2987C43.7438 42.3432 43.2439 45.6876 43.6288 48.9889C43.8632 51.1375 44.2883 53.261 44.9 55.3345C45.2282 56.4077 45.6429 57.4538 46.1399 58.4604C46.7565 59.4076 47.3133 60.3924 47.807 61.4091L24.7797 61.4716C24.6963 61.159 23.123 55.0323 19.6428 53.4589C18.9968 53.6882 18.3091 53.9174 17.611 54.1571C17.28 53.8753 16.9119 53.6404 16.5169 53.4589C14.0058 54.3342 10.9424 55.3449 8.61884 55.9284C7.94862 55.516 7.44928 54.8762 7.21219 54.1258C6.93926 53.3836 6.83948 52.5889 6.92044 51.8022C7.16048 50.999 7.24188 50.1567 7.1601 49.3224C6.88919 48.27 5.8889 48.0095 5.09701 47.4468C4.45099 46.9884 5.60757 45.5192 5.60757 45.5192C5.60757 45.5192 4.37806 44.6127 3.94043 44.2167C3.48197 43.8416 4.12799 43.1956 4.70107 41.9765C4.93753 41.4472 5.0066 40.8582 4.89904 40.2885C4.68023 39.1736 2.99225 38.7464 2.15868 38.1317C1.76273 37.8399 1.12713 37.4023 1.0542 36.8709C0.939581 36.1311 1.81483 35.0891 2.24203 34.5682C4.05979 32.2256 5.61796 29.6927 6.88919 27.0139C7.0559 26.7316 7.15593 26.4138 7.18093 26.0866C7.1601 24.5966 5.00323 23.9818 4.80526 22.5335C4.774 22.1084 4.84902 21.6822 5.02407 21.2936C5.62494 20.0164 6.14012 18.7006 6.56618 17.355C6.8225 16.1202 7.1528 14.9032 7.55604 13.7081C8.43025 11.3116 9.77542 9.11407 11.5155 7.24792C14.0683 4.54924 17.8402 3.21553 21.4037 2.50699C24.5727 1.81413 27.7864 1.3441 31.021 1.10034C36.3976 1.43377 40.8988 3.59063 45.3168 7.04995C48.1329 9.15087 50.1914 12.1088 51.183 15.4794C51.9386 18.2629 52.293 21.1399 52.2354 24.0235C52.2154 26.8713 51.3841 29.6544 49.8389 32.0466C48.2864 34.4952 46.2545 36.6208 45.0771 39.2987Z" fill="#3F51B5"/>
<path d="M55.6737 15.7086C56.6369 14.3004 57.1973 12.6559 57.2946 10.9526C57.3918 9.24922 57.0221 7.55165 56.2254 6.04296C55.4287 4.53428 54.2352 3.27174 52.7737 2.39154C51.3122 1.51133 49.6381 1.04686 47.9319 1.04822C47.4114 1.04539 46.8916 1.09074 46.3794 1.18368C44.8524 1.43703 43.4122 2.0657 42.1883 3.01323C40.9643 3.96076 39.9949 5.19748 39.367 6.6123C38.2498 5.7149 36.8614 5.2227 35.4284 5.21607C34.9044 5.21249 34.3822 5.27908 33.8759 5.41404C32.5318 5.7586 31.3406 6.54045 30.4899 7.63647C29.6391 8.73248 29.1771 10.0804 29.1766 11.4678C29.1732 13.0086 29.7455 14.495 30.7812 15.6357H30.7396C28.9433 15.6357 27.2206 16.3492 25.9505 17.6194C24.6804 18.8895 23.9668 20.6122 23.9668 22.4084C23.9668 24.2047 24.6804 25.9274 25.9505 27.1975C27.2206 28.4676 28.9433 29.1812 30.7396 29.1812H54.7047C56.413 29.1756 58.0561 28.5247 59.3048 27.3588C60.5535 26.193 61.3154 24.5983 61.438 22.8944C61.5605 21.1904 61.0346 19.5031 59.9657 18.1706C58.8967 16.838 57.3637 15.9586 55.6737 15.7086Z" fill="#545C60"/>
<path d="M52.5478 15.7085C53.4354 14.4112 53.9821 12.9113 54.1378 11.3472C54.2935 9.78302 54.053 8.20483 53.4386 6.758C52.8241 5.31117 51.8555 4.04222 50.6218 3.06806C49.3882 2.0939 47.9293 1.44584 46.3794 1.18359C44.8524 1.43695 43.4122 2.06562 42.1883 3.01315C40.9643 3.96068 39.9949 5.1974 39.367 6.61222C38.6448 6.02105 37.7963 5.60393 36.8871 5.39312C36.6431 5.78362 36.4272 6.19102 36.2411 6.61222C35.547 6.0489 34.7406 5.64037 33.8759 5.41396C32.5318 5.75852 31.3406 6.54037 30.4899 7.63639C29.6391 8.7324 29.1771 10.0803 29.1766 11.4678C29.1732 13.0085 29.7455 14.4949 30.7812 15.6356H30.7396C28.9433 15.6356 27.2206 16.3492 25.9505 17.6193C24.6804 18.8894 23.9668 20.6121 23.9668 22.4084C23.9668 24.2046 24.6804 25.9273 25.9505 27.1974C27.2206 28.4676 28.9433 29.1811 30.7396 29.1811H51.5788C53.2871 29.1756 54.9302 28.5246 56.1789 27.3588C57.4276 26.1929 58.1895 24.5982 58.3121 22.8943C58.4346 21.1903 57.9087 19.503 56.8398 18.1705C55.7708 16.8379 54.2378 15.9585 52.5478 15.7085Z" fill="#7F8E94"/>
<path d="M36.4705 38.5589C36.4705 39.388 36.1412 40.183 35.555 40.7693C34.9688 41.3555 34.1737 41.6848 33.3446 41.6848C32.5156 41.6848 31.7205 41.3555 31.1343 40.7693C30.5481 40.183 30.2188 39.388 30.2188 38.5589C30.2188 36.8324 33.3446 33.3491 33.3446 33.3491C33.3446 33.3491 36.4705 36.8324 36.4705 38.5589Z" fill="#0377BC"/>
<path d="M33.3446 38.9497C33.3446 40.4605 32.6444 41.6848 31.7817 41.6848C30.9189 41.6848 30.2188 40.4605 30.2188 38.9497C30.2188 37.4389 31.7817 34.3911 31.7817 34.3911C31.7817 34.3911 33.3446 37.4389 33.3446 38.9497Z" fill="#02A9F4"/>
<path d="M58.3514 50.0204C58.3514 50.8494 58.022 51.6445 57.4358 52.2307C56.8496 52.8169 56.0545 53.1462 55.2255 53.1462C54.3965 53.1462 53.6014 52.8169 53.0152 52.2307C52.4289 51.6445 52.0996 50.8494 52.0996 50.0204C52.0996 48.2938 55.2255 44.8105 55.2255 44.8105C55.2255 44.8105 58.3514 48.2938 58.3514 50.0204Z" fill="#0377BC"/>
<path d="M55.2255 50.4111C55.2255 51.922 54.5253 53.1463 53.6626 53.1463C52.7998 53.1463 52.0996 51.922 52.0996 50.4111C52.0996 48.9003 53.6626 45.8525 53.6626 45.8525C53.6626 45.8525 55.2255 48.9003 55.2255 50.4111Z" fill="#02A9F4"/>
<path d="M42.7225 53.1463C42.7225 53.9754 42.3931 54.7705 41.8069 55.3567C41.2207 55.9429 40.4256 56.2722 39.5966 56.2722C38.7676 56.2722 37.9725 55.9429 37.3863 55.3567C36.8 54.7705 36.4707 53.9754 36.4707 53.1463C36.4707 51.4198 39.5966 47.9365 39.5966 47.9365C39.5966 47.9365 42.7225 51.4198 42.7225 53.1463Z" fill="#0377BC"/>
<path d="M39.5966 53.5371C39.5966 55.0479 38.8964 56.2723 38.0336 56.2723C37.1709 56.2723 36.4707 55.0479 36.4707 53.5371C36.4707 52.0263 38.0336 48.9785 38.0336 48.9785C38.0336 48.9785 39.5966 52.0263 39.5966 53.5371Z" fill="#02A9F4"/>
<path d="M55.5281 35.1309L45.8482 44.8107L46.0566 43.1123L46.2963 41.2368L46.7443 37.642C46.762 37.4959 46.7485 37.3478 46.7048 37.2073C46.661 37.0668 46.588 36.9372 46.4906 36.8269C46.3931 36.7167 46.2734 36.6283 46.1394 36.5677C46.0053 36.507 45.8599 36.4754 45.7128 36.475H42.1284C41.9612 36.475 41.7964 36.4346 41.648 36.3574C41.4996 36.2802 41.3719 36.1684 41.2759 36.0314C41.1798 35.8945 41.1181 35.7364 41.096 35.5706C41.0739 35.4048 41.0921 35.2361 41.149 35.0788L44.5562 25.7011C44.628 25.4991 44.7608 25.3243 44.9363 25.2011C45.1118 25.0779 45.3212 25.0123 45.5357 25.0134H51.6416C51.8097 25.0131 51.9755 25.0537 52.1244 25.1318C52.2734 25.2099 52.4011 25.3231 52.4965 25.4616C52.5919 25.6001 52.6521 25.7597 52.672 25.9267C52.6919 26.0937 52.6708 26.2631 52.6106 26.4201L50.5475 31.9425C50.4873 32.0995 50.4662 32.2688 50.486 32.4358C50.5059 32.6028 50.5662 32.7625 50.6616 32.901C50.757 33.0395 50.8847 33.1527 51.0336 33.2308C51.1826 33.3088 51.3483 33.3495 51.5165 33.3491H54.7987C55.0048 33.35 55.206 33.412 55.3768 33.5272C55.5477 33.6424 55.6806 33.8056 55.7586 33.9964C55.8367 34.1871 55.8565 34.3966 55.8154 34.5986C55.7744 34.8005 55.6744 34.9858 55.5281 35.1309Z" fill="#FEC108"/>
<path d="M52.4022 35.1309L46.2963 41.2368L46.7443 37.642C46.762 37.4959 46.7485 37.3478 46.7048 37.2073C46.661 37.0668 46.588 36.9372 46.4906 36.8269C46.3931 36.7167 46.2734 36.6283 46.1394 36.5677C46.0053 36.507 45.8599 36.4754 45.7128 36.475H42.1284C41.9612 36.475 41.7964 36.4346 41.648 36.3574C41.4996 36.2802 41.3719 36.1684 41.2759 36.0314C41.1798 35.8945 41.1181 35.7364 41.096 35.5706C41.0739 35.4048 41.0921 35.2361 41.149 35.0788L44.5562 25.7011C44.628 25.4991 44.7608 25.3243 44.9363 25.2011C45.1118 25.0779 45.3212 25.0123 45.5357 25.0134H48.5157C48.6838 25.0131 48.8496 25.0537 48.9985 25.1318C49.1475 25.2099 49.2752 25.3231 49.3706 25.4616C49.466 25.6001 49.5263 25.7597 49.5461 25.9267C49.566 26.0937 49.5449 26.2631 49.4847 26.4201L47.4216 31.9425C47.3614 32.0995 47.3403 32.2688 47.3602 32.4358C47.38 32.6028 47.4403 32.7625 47.5357 32.901C47.6311 33.0395 47.7588 33.1527 47.9078 33.2308C48.0567 33.3088 48.2224 33.3495 48.3906 33.3491H51.6728C51.8789 33.35 52.0801 33.412 52.2509 33.5272C52.4218 33.6424 52.5547 33.8056 52.6327 33.9964C52.7108 34.1871 52.7306 34.3966 52.6895 34.5986C52.6485 34.8005 52.5485 34.9858 52.4022 35.1309Z" fill="#FFDC00"/>
<path d="M9.91067 57.3142C9.07376 57.2987 8.26404 57.0144 7.60114 56.5033C6.93824 55.9922 6.45732 55.2814 6.22942 54.4759C5.90046 53.5792 5.78314 52.6185 5.88661 51.6689C5.92204 51.3949 5.98143 51.1156 6.04291 50.8353C6.16958 50.4314 6.20517 50.0043 6.1471 49.585C6.0627 49.2588 5.82305 49.0952 5.20934 48.7441C4.96174 48.6084 4.72078 48.461 4.48726 48.3023C4.31973 48.1824 4.1785 48.0295 4.07224 47.853C3.96599 47.6765 3.89695 47.4801 3.86937 47.276C3.82918 46.7522 3.94715 46.2284 4.20801 45.7724C3.85374 45.4994 3.46509 45.1931 3.24003 44.9899C2.27621 44.2053 2.91598 43.0758 3.29734 42.4017C3.438 42.1527 3.60055 41.8672 3.7558 41.5337C3.89959 41.2034 3.94023 40.8367 3.87458 40.4824C3.82144 40.2125 3.06602 39.827 2.61485 39.5957C2.23807 39.4174 1.87667 39.2083 1.53434 38.9705C1.16497 38.7611 0.841039 38.4802 0.581451 38.1443C0.321864 37.8083 0.131829 37.4239 0.0224483 37.0137C-0.144266 35.9394 0.647626 34.8683 1.40305 33.9482C3.18519 31.6503 4.71361 29.1665 5.96163 26.5399C6.04082 26.3971 6.10021 26.245 6.13877 26.0866C6.13877 25.8001 5.80013 25.4698 5.29061 25.003C4.52105 24.4345 3.98209 23.6077 3.77247 22.6742C3.71295 22.0795 3.80769 21.4795 4.04755 20.9321C4.23406 20.4392 4.44662 19.9651 4.65814 19.49C5.03012 18.7293 5.32916 17.9343 5.5511 17.1174L5.6553 16.6788C5.89495 15.5514 6.20233 14.4406 6.57847 13.3518C7.49751 10.8203 8.91912 8.50096 10.7578 6.53318C13.0887 4.06998 16.5032 2.41847 21.2003 1.48591C24.52 0.757612 27.8887 0.273884 31.2792 0.0386276C35.1403 -0.181841 38.9968 0.543894 42.5137 2.15277C42.7589 2.27106 42.9481 2.48066 43.0408 2.73671C43.1334 2.99275 43.1222 3.2749 43.0094 3.52275C42.8967 3.7706 42.6914 3.96446 42.4375 4.06284C42.1836 4.16122 41.9012 4.15631 41.6509 4.04914C38.4384 2.57634 34.9136 1.91409 31.3855 2.12047C28.0981 2.35074 24.8316 2.82171 21.6119 3.52816C17.4065 4.36173 14.2661 5.8559 12.2718 7.96483C10.6261 9.7276 9.35432 11.8053 8.5332 14.0728C8.18755 15.0816 7.90361 16.1106 7.68295 17.1539L7.57876 17.5967C7.33011 18.542 6.99095 19.4611 6.56597 20.3413C6.36904 20.7799 6.17315 21.2175 6.00331 21.6635C5.90328 21.8886 5.84702 22.1324 5.84077 22.3783C5.88765 22.7169 6.28464 23.0816 6.70559 23.4682C7.1305 23.7686 7.48619 24.1565 7.74876 24.6058C8.01133 25.0551 8.17471 25.5554 8.2279 26.0731C8.20706 26.567 8.07161 27.0484 7.82779 27.4787C6.51932 30.2256 4.91717 32.8228 3.04935 35.2246C2.25537 36.1905 2.09074 36.5792 2.08553 36.7313C2.2783 36.9178 2.48773 37.0866 2.71071 37.2367C2.98162 37.4274 3.27024 37.5941 3.57033 37.7358C4.45912 38.1901 5.67718 38.8132 5.92725 40.0854C6.07625 40.8731 5.97935 41.6869 5.64904 42.4173C5.4667 42.8028 5.28019 43.1363 5.1166 43.4238C5.06555 43.5135 5.01241 43.6135 4.96031 43.7041C5.39272 44.0511 5.98143 44.4929 6.2315 44.6773C6.34414 44.7606 6.43883 44.8657 6.50992 44.9865C6.581 45.1072 6.62701 45.241 6.6452 45.3799C6.66339 45.5188 6.65338 45.6599 6.61578 45.7949C6.57817 45.9298 6.51375 46.0558 6.42635 46.1652C6.2711 46.3663 6.13668 46.582 6.02415 46.8102L6.23984 46.9342C6.69563 47.13 7.10391 47.4216 7.4369 47.7893C7.76989 48.157 8.01977 48.5921 8.16955 49.065C8.32231 49.8003 8.29117 50.562 8.0789 51.2823C8.03097 51.5001 7.98096 51.7179 7.95387 51.9356C7.89135 52.566 7.97575 53.2016 8.19873 53.7945C8.30815 54.2577 8.5924 54.6606 8.99204 54.9191C9.39168 55.1776 9.87577 55.2715 10.3431 55.1813C13.3799 54.4521 16.3718 53.5476 19.304 52.4722C19.5648 52.3823 19.8505 52.3995 20.0987 52.52C20.3468 52.6405 20.5371 52.8545 20.6277 53.115C20.7183 53.3756 20.7019 53.6614 20.5821 53.9099C20.4623 54.1584 20.2488 54.3492 19.9885 54.4405C16.9731 55.5468 13.895 56.474 10.7703 57.2173C10.4879 57.2799 10.1993 57.3111 9.91067 57.3142ZM4.59666 43.4134L4.63105 43.4447C4.62147 43.4319 4.61065 43.42 4.59875 43.4093L4.59666 43.4134Z" fill="white"/>
<path d="M24.7795 62.5241C24.5462 62.5239 24.3197 62.4455 24.1362 62.3014C23.9528 62.1572 23.823 61.9557 23.7677 61.729C23.3634 60.0827 21.7578 55.5575 19.2133 54.4082C19.0228 54.3221 18.8627 54.1807 18.7536 54.0024C18.6446 53.8241 18.5916 53.6171 18.6018 53.4083C18.6119 53.1996 18.6845 52.9987 18.8103 52.8317C18.9361 52.6648 19.1092 52.5395 19.3071 52.4723C20.4095 52.0971 21.4077 51.7491 22.1881 51.4761C22.8914 51.2302 23.4208 51.0458 23.6979 50.9552C28.0314 49.586 28.9077 48.022 28.8848 46.9499C28.8816 46.8128 28.9055 46.6764 28.9552 46.5485C29.0048 46.4207 29.0792 46.3039 29.1741 46.2049C29.2689 46.1059 29.3824 46.0265 29.508 45.9715C29.6336 45.9164 29.7688 45.8866 29.9059 45.8839C30.181 45.8823 30.446 45.9876 30.645 46.1775C30.844 46.3674 30.9616 46.6271 30.9729 46.9019C31.0333 49.4985 28.8014 51.5314 24.3366 52.9453C24.0741 53.0307 23.5604 53.21 22.8779 53.4475L21.9026 53.7883C23.6218 55.6926 24.8761 57.9694 25.5672 60.4401L49.201 60.3745L49.1333 60.2703C48.8322 59.8345 48.5617 59.3785 48.3237 58.9053C47.805 57.855 47.3725 56.7643 47.0306 55.644C46.3988 53.5114 45.9601 51.3263 45.7198 49.1151C45.4935 47.2366 45.549 45.3349 45.8844 43.4728C45.8999 43.331 45.9444 43.1939 46.015 43.0699C46.0857 42.946 46.181 42.8379 46.2951 42.7523C46.4093 42.6667 46.5398 42.6055 46.6786 42.5724C46.8174 42.5393 46.9614 42.5351 47.1019 42.5599C47.2424 42.5848 47.3763 42.6383 47.4953 42.717C47.6142 42.7957 47.7158 42.8981 47.7936 43.0177C47.8714 43.1372 47.9238 43.2715 47.9476 43.4122C47.9714 43.5529 47.966 43.6969 47.9319 43.8354C47.6327 45.4939 47.5828 47.1877 47.7839 48.8608C48.0094 50.9494 48.4223 53.0135 49.0176 55.0282C49.3281 56.0472 49.722 57.0392 50.194 57.9936C50.393 58.3854 50.6191 58.7626 50.8692 59.1231C51.3118 59.7303 51.6668 60.3967 51.9236 61.1028C51.9727 61.2587 51.9843 61.424 51.9577 61.5852C51.9311 61.7465 51.8669 61.8992 51.7703 62.031C51.6738 62.1629 51.5475 62.2702 51.4019 62.3442C51.2562 62.4183 51.0951 62.4571 50.9317 62.4574L24.7784 62.5303L24.7795 62.5241ZM10.6234 19.3514C10.4663 19.3515 10.3113 19.316 10.1698 19.2477C10.0284 19.1794 9.90426 19.08 9.80666 18.9569C9.70906 18.8339 9.64054 18.6904 9.60623 18.5371C9.57191 18.3838 9.57269 18.2248 9.6085 18.0719L9.71269 17.6207C9.91379 16.6663 10.1712 15.7243 10.4837 14.8012C11.2085 12.7961 12.3309 10.9581 13.7836 9.39754C15.3808 7.85796 17.3477 6.75591 19.4946 6.19767C19.7591 6.11725 20.0447 6.14519 20.2885 6.27533C20.5324 6.40547 20.7146 6.62715 20.795 6.89162C20.8754 7.15608 20.8475 7.44166 20.7173 7.68552C20.5872 7.92939 20.3655 8.11157 20.1011 8.19199C18.3018 8.64766 16.6487 9.55543 15.2987 10.8292C14.0397 12.1838 13.0673 13.7786 12.4395 15.518C12.1582 16.362 11.9248 17.2206 11.7424 18.0906L11.6382 18.5439C11.5852 18.7734 11.4561 18.9781 11.2718 19.1248C11.0875 19.2714 10.8589 19.3513 10.6234 19.3514Z" fill="white"/>
<path d="M9.37985 22.9294C9.95531 22.9294 10.4218 22.4629 10.4218 21.8874C10.4218 21.312 9.95531 20.8455 9.37985 20.8455C8.80439 20.8455 8.33789 21.312 8.33789 21.8874C8.33789 22.4629 8.80439 22.9294 9.37985 22.9294Z" fill="white"/>
<path d="M54.7045 30.2233H51.5786C51.3022 30.2233 51.0372 30.1135 50.8418 29.9181C50.6464 29.7227 50.5366 29.4577 50.5366 29.1813C50.5366 28.905 50.6464 28.6399 50.8418 28.4445C51.0372 28.2491 51.3022 28.1394 51.5786 28.1394H54.7045C56.148 28.1319 57.5355 27.58 58.5897 26.5939C59.6439 25.6078 60.2871 24.2602 60.3909 22.8204C60.4946 21.3806 60.0511 19.9547 59.1491 18.8277C58.2471 17.7007 56.953 16.9556 55.5255 16.7413C55.3499 16.7164 55.1835 16.6469 55.0422 16.5397C54.9008 16.4324 54.7893 16.2908 54.718 16.1283C54.6467 15.9658 54.6181 15.7878 54.6349 15.6112C54.6517 15.4346 54.7133 15.2652 54.8139 15.119C55.7641 13.7388 56.2712 12.1017 56.2674 10.426C56.2662 8.51721 55.6098 6.66666 54.4082 5.18361C53.2065 3.70056 51.5322 2.67487 49.6651 2.27794C47.798 1.88101 45.8513 2.13688 44.1502 3.00281C42.4491 3.86874 41.0968 5.29225 40.3191 7.03546C40.2541 7.18188 40.1562 7.31134 40.033 7.41377C39.9098 7.51619 39.7646 7.58882 39.6088 7.62602C39.4529 7.66321 39.2906 7.66397 39.1344 7.62823C38.9782 7.59249 38.8324 7.52121 38.7082 7.41994C37.6918 6.59438 36.4014 6.18234 35.0946 6.26599C33.7878 6.34964 32.5605 6.92284 31.6576 7.87127C30.7546 8.8197 30.2424 10.0736 30.223 11.383C30.2037 12.6924 30.6786 13.9609 31.5531 14.9356C31.6887 15.0851 31.778 15.2707 31.8101 15.4699C31.8423 15.6692 31.8158 15.8735 31.7341 16.058C31.6523 16.2425 31.5187 16.3993 31.3495 16.5093C31.1803 16.6193 30.9828 16.6779 30.781 16.6778C30.0284 16.675 29.2827 16.8206 28.5863 17.106C27.89 17.3915 27.2567 17.8113 26.7226 18.3416C25.644 19.4124 25.0349 20.8678 25.0294 22.3877C25.0238 23.9076 25.6223 25.3675 26.6931 26.4461C27.764 27.5248 29.2194 28.1338 30.7393 28.1394H43.295C43.5713 28.1394 43.8363 28.2491 44.0317 28.4445C44.2272 28.6399 44.3369 28.905 44.3369 29.1813C44.3369 29.4577 44.2272 29.7227 44.0317 29.9181C43.8363 30.1135 43.5713 30.2233 43.295 30.2233H30.7393C28.8227 30.2242 26.9725 29.5207 25.5407 28.2466C24.1088 26.9724 23.1952 25.2165 22.9734 23.3128C22.7516 21.409 23.2372 19.4901 24.3379 17.921C25.4385 16.3518 27.0774 15.2419 28.943 14.8022C28.228 13.4098 27.9799 11.8243 28.2354 10.2801C28.4909 8.73583 29.2364 7.31472 30.3617 6.22677C31.487 5.13882 32.9325 4.44174 34.4845 4.23856C36.0365 4.03537 37.6127 4.33685 38.9802 5.09845C40.3611 2.79299 42.5794 1.11024 45.1717 0.401675C47.764 -0.306888 50.5298 0.0135396 52.8915 1.29603C55.2531 2.57852 57.0279 4.72388 57.8451 7.284C58.6624 9.84412 58.4588 12.621 57.2771 15.0346C59.0169 15.6451 60.4848 16.851 61.4213 18.4392C62.3578 20.0275 62.7026 21.8957 62.3947 23.7136C62.0868 25.5315 61.146 27.182 59.7387 28.3733C58.3314 29.5645 56.5482 30.2198 54.7045 30.2233Z" fill="white"/>
<path d="M50.016 17.7198C49.7397 17.7198 49.4746 17.61 49.2792 17.4146C49.0838 17.2192 48.974 16.9541 48.974 16.6778C48.974 15.5724 48.5349 14.5123 47.7533 13.7307C46.9717 12.9491 45.9116 12.5099 44.8062 12.5099C44.5298 12.5099 44.2648 12.4002 44.0694 12.2048C43.874 12.0094 43.7642 11.7443 43.7642 11.468C43.7642 11.1916 43.874 10.9266 44.0694 10.7312C44.2648 10.5358 44.5298 10.426 44.8062 10.426C46.4638 10.4277 48.053 11.0869 49.225 12.259C50.3971 13.431 51.0563 15.0202 51.058 16.6778C51.058 16.9541 50.9482 17.2192 50.7528 17.4146C50.5574 17.61 50.2923 17.7198 50.016 17.7198ZM35.4285 21.8876C35.1522 21.8876 34.8872 21.7778 34.6918 21.5824C34.4963 21.387 34.3866 21.122 34.3866 20.8456C34.3866 19.7403 34.8257 18.6802 35.6073 17.8985C36.3889 17.1169 37.449 16.6778 38.5544 16.6778C38.8308 16.6778 39.0958 16.7876 39.2912 16.983C39.4866 17.1784 39.5964 17.4434 39.5964 17.7198C39.5964 17.9961 39.4866 18.2611 39.2912 18.4565C39.0958 18.6519 38.8308 18.7617 38.5544 18.7617C38.0017 18.7617 37.4717 18.9813 37.0809 19.3721C36.69 19.7629 36.4705 20.293 36.4705 20.8456C36.4705 21.122 36.3607 21.387 36.1653 21.5824C35.9699 21.7778 35.7049 21.8876 35.4285 21.8876ZM33.3446 42.7269C32.2392 42.7269 31.1791 42.2877 30.3975 41.5061C29.6159 40.7245 29.1768 39.6644 29.1768 38.559C29.1768 36.5366 32.0026 33.2846 32.5694 32.6532C32.6698 32.5489 32.7902 32.466 32.9234 32.4093C33.0566 32.3527 33.1999 32.3235 33.3446 32.3235C33.4893 32.3235 33.6326 32.3527 33.7658 32.4093C33.899 32.466 34.0194 32.5489 34.1198 32.6532C34.6867 33.2846 37.5125 36.5366 37.5125 38.559C37.5125 39.6644 37.0733 40.7245 36.2917 41.5061C35.5101 42.2877 34.45 42.7269 33.3446 42.7269ZM33.3446 34.9632C32.2391 36.3438 31.2607 37.8942 31.2607 38.559C31.2607 39.1117 31.4802 39.6418 31.8711 40.0326C32.2619 40.4234 32.7919 40.6429 33.3446 40.6429C33.8973 40.6429 34.4274 40.4234 34.8182 40.0326C35.209 39.6418 35.4285 39.1117 35.4285 38.559C35.4285 37.914 34.4512 36.3511 33.3446 34.9632ZM55.2258 54.1884C54.1204 54.1884 53.0603 53.7493 52.2787 52.9677C51.4971 52.1861 51.058 51.126 51.058 50.0206C51.058 47.9981 53.8838 44.7462 54.4506 44.1147C54.551 44.0105 54.6714 43.9276 54.8046 43.8709C54.9378 43.8143 55.0811 43.7851 55.2258 43.7851C55.3706 43.7851 55.5138 43.8143 55.647 43.8709C55.7802 43.9276 55.9006 44.0105 56.001 44.1147C56.5679 44.7462 59.3937 47.9981 59.3937 50.0206C59.3937 51.126 58.9546 52.1861 58.1729 52.9677C57.3913 53.7493 56.3312 54.1884 55.2258 54.1884ZM55.2258 46.4248C54.1203 47.8054 53.1419 49.3558 53.1419 50.0206C53.1419 50.5733 53.3614 51.1033 53.7523 51.4942C54.1431 51.885 54.6731 52.1045 55.2258 52.1045C55.7785 52.1045 56.3086 51.885 56.6994 51.4942C57.0902 51.1033 57.3097 50.5733 57.3097 50.0206C57.3097 49.3756 56.3324 47.8127 55.2258 46.4248ZM39.5964 57.3143C38.491 57.3143 37.4309 56.8752 36.6493 56.0936C35.8676 55.312 35.4285 54.2519 35.4285 53.1465C35.4285 51.124 38.2543 47.8721 38.8212 47.2406C38.9216 47.1364 39.042 47.0535 39.1752 46.9968C39.3084 46.9402 39.4516 46.911 39.5964 46.911C39.7411 46.911 39.8844 46.9402 40.0176 46.9968C40.1508 47.0535 40.2712 47.1364 40.3716 47.2406C40.9384 47.8721 43.7642 51.124 43.7642 53.1465C43.7642 54.2519 43.3251 55.312 42.5435 56.0936C41.7619 56.8752 40.7018 57.3143 39.5964 57.3143ZM39.5964 49.5507C38.4909 50.9313 37.5125 52.4817 37.5125 53.1465C37.5125 53.6992 37.732 54.2292 38.1228 54.62C38.5136 55.0108 39.0437 55.2304 39.5964 55.2304C40.1491 55.2304 40.6791 55.0108 41.0699 54.62C41.4608 54.2292 41.6803 53.6992 41.6803 53.1465C41.6803 52.5015 40.7029 50.9386 39.5964 49.5507ZM45.8482 45.8527C45.7006 45.8527 45.5548 45.8213 45.4203 45.7606C45.2859 45.7 45.1658 45.6115 45.0681 45.5009C44.9704 45.3904 44.8973 45.2604 44.8535 45.1195C44.8098 44.9786 44.7965 44.8301 44.8145 44.6837L45.7096 37.517H42.1263C41.7913 37.517 41.4613 37.4362 41.1642 37.2814C40.8671 37.1267 40.6116 36.9027 40.4195 36.6283C40.2274 36.3538 40.1043 36.0372 40.0606 35.7051C40.0169 35.3729 40.0539 35.0352 40.1684 34.7204L43.5767 25.3428C43.7237 24.9413 43.9904 24.5946 44.3407 24.3494C44.691 24.1042 45.108 23.9723 45.5356 23.9715H51.6383C51.9748 23.9716 52.3063 24.0532 52.6043 24.2092C52.9024 24.3653 53.1583 24.5912 53.3501 24.8677C53.5419 25.1441 53.6639 25.4629 53.7056 25.7968C53.7474 26.1306 53.7077 26.4696 53.5899 26.7848L51.5196 32.3072H54.7944C55.2065 32.3073 55.6094 32.4296 55.952 32.6586C56.2946 32.8876 56.5616 33.213 56.7193 33.5937C56.877 33.9745 56.9183 34.3934 56.8379 34.7976C56.7575 35.2018 56.5591 35.5731 56.2678 35.8645L46.5848 45.5474C46.3895 45.7429 46.1245 45.8527 45.8482 45.8527ZM45.5356 26.0555L42.1263 35.4331H45.7096C46.0052 35.433 46.2974 35.4959 46.5669 35.6174C46.8364 35.7389 47.0769 35.9164 47.2726 36.138C47.4682 36.3597 47.6144 36.6204 47.7015 36.9029C47.7887 37.1854 47.8147 37.4832 47.7779 37.7765L47.2569 41.9266L54.7944 34.3912H51.5196C51.1831 34.3911 50.8516 34.3095 50.5536 34.1535C50.2555 33.9974 49.9996 33.7715 49.8078 33.495C49.616 33.2186 49.494 32.8998 49.4523 32.5659C49.4105 32.2321 49.4502 31.893 49.568 31.5779L51.6383 26.0555H45.5356Z" fill="white"/>
</svg>
