<svg width="31" height="24" viewBox="0 0 31 24" fill="none" xmlns="http://www.w3.org/2000/svg">
<path d="M19.3266 23.7175H2.52802C0.81723 23.7175 -0.401156 22.0509 0.122813 20.4222L1.63159 15.7064C2.32601 13.5348 4.66177 12.3732 6.82709 13.0929C7.94447 13.4654 9.30805 13.7305 10.9241 13.7305C12.5402 13.7305 13.9101 13.4591 15.0212 13.0929C17.1865 12.3732 19.5223 13.5348 20.2167 15.7064L21.7255 20.4222C22.2558 22.0509 21.0374 23.7175 19.3266 23.7175Z" fill="#1E88E5"/>
<path d="M10.9305 11.5778C14.1276 11.5778 16.7194 8.98603 16.7194 5.78891C16.7194 2.59178 14.1276 0 10.9305 0C7.73338 0 5.1416 2.59178 5.1416 5.78891C5.1416 8.98603 7.73338 11.5778 10.9305 11.5778Z" fill="#90CAF9"/>
<path d="M27.9309 23.7175H22.1546C22.2367 23.6228 22.3124 23.5281 22.3882 23.4271C23.1079 22.436 23.3099 21.205 22.9374 20.0371L21.4286 15.3214C21.3971 15.2204 21.3655 15.1257 21.3276 15.0247C22.4513 14.9994 23.4298 14.829 24.2631 14.5891C26.4032 13.9641 28.6506 15.151 29.3261 17.2721L30.3361 20.4159C30.8538 22.0509 29.6417 23.7175 27.9309 23.7175Z" fill="#1E88E5"/>
<path d="M26.5421 6.11096C26.5421 9.12851 24.0927 11.5779 21.0752 11.5779C19.3833 11.5779 17.8682 10.8077 16.8645 9.59567C17.5715 8.49723 17.9882 7.18415 17.9882 5.78269C17.9882 4.53905 17.6662 3.37117 17.0981 2.3548C18.0955 1.29423 19.5096 0.637695 21.0752 0.637695C24.0927 0.644008 26.5421 3.08709 26.5421 6.11096Z" fill="#90CAF9"/>
</svg>
