<svg width="33" height="30" viewBox="0 0 33 30" fill="none" xmlns="http://www.w3.org/2000/svg">
<path d="M28.0276 17.614C28.1987 17.9297 28.2257 18.2893 28.1307 18.6138C28.0364 18.9383 27.8207 19.225 27.5088 19.3979L17.1793 25.0894C16.6926 25.3566 16.1921 25.5151 15.6859 25.5635C15.1778 25.6119 14.6559 25.5509 14.1283 25.378L11.8966 24.6504C11.2439 24.4366 10.5969 24.3618 9.96113 24.4222C9.37633 24.4775 8.80599 24.6448 8.25327 24.9284L4.96645 19.1496L8.87894 16.9927C9.57252 16.611 10.2869 16.3847 11.0106 16.3155C11.7382 16.2476 12.4814 16.335 13.2354 16.5809L19.3437 18.5717C19.5845 18.6522 19.7876 18.7962 19.9392 18.9836C20.2152 19.3225 20.3133 19.7715 20.1907 20.1959C20.1819 20.2154 20.1762 20.2368 20.1712 20.2601C19.9429 20.9178 19.2387 21.2831 18.5778 21.0851C18.5564 21.0763 18.5331 21.0687 18.5099 21.0637L13.3624 19.3847C13.1127 19.3043 12.8436 19.4438 12.7638 19.6966C12.6833 19.9513 12.821 20.2223 13.0719 20.3047L18.2552 21.9962C18.845 22.1867 19.4581 22.1176 19.97 21.8516C20.4938 21.5806 20.9145 21.0939 21.0893 20.5216C21.1552 20.314 21.1912 20.098 21.1962 19.8802L26.2676 17.0852C26.5813 16.9141 26.936 16.8871 27.2567 16.982C27.5749 17.0795 27.8578 17.2971 28.0276 17.614ZM20.6768 18.3686C20.8069 18.5289 20.9157 18.7037 20.9975 18.8892L23.9315 17.2726C23.9101 17.2191 23.885 17.1694 23.8586 17.1172C23.3914 16.2495 22.3079 15.925 21.4502 16.3991L19.3449 17.558L19.6355 17.6524C20.0442 17.7861 20.4057 18.0347 20.6768 18.3686ZM3.1693 17.9334C3.0429 17.7108 2.75931 17.636 2.53859 17.7643L0.233358 19.1081C0.0126435 19.2363 -0.0659584 19.525 0.0604334 19.7463L5.24942 28.8692C5.37581 29.0899 5.66129 29.1666 5.882 29.0383L8.18661 27.6945C8.40732 27.5644 8.48404 27.2776 8.35765 27.0563L3.1693 17.9334ZM32.1967 8.99609V13.4644C32.1967 13.6499 32.0432 13.8034 31.8577 13.8034H23.3165C23.1291 13.8034 22.9776 13.6499 22.9776 13.4644V11.7497H19.2953C19.101 12.1433 18.6966 12.4162 18.2275 12.4162C17.7584 12.4162 17.3522 12.1433 17.1598 11.7497H13.4775V13.4644C13.4775 13.6499 13.324 13.8034 13.1385 13.8034H4.59671C4.41121 13.8034 4.25777 13.6499 4.25777 13.4644V8.99609C4.25777 8.81059 4.41121 8.65716 4.59671 8.65716H13.1385C13.324 8.65716 13.4775 8.81059 13.4775 8.99609V10.7109H17.1598C17.2759 10.4725 17.4685 10.2799 17.7069 10.1638V5.24583H13.9566C13.7692 5.24583 13.6177 5.0924 13.6177 4.9069V0.438541C13.6177 0.25304 13.7692 0.0996094 13.9566 0.0996094H22.4984C22.6839 0.0996094 22.8374 0.25304 22.8374 0.438541V4.9069C22.8374 5.0924 22.6839 5.24583 22.4984 5.24583H18.7463V10.1638C18.9853 10.2795 19.1777 10.4719 19.2953 10.7109H22.9776V8.99609C22.9776 8.81059 23.1291 8.65716 23.3165 8.65716H31.8584C32.0432 8.65716 32.1967 8.81059 32.1967 8.99609ZM9.38639 12.1031C9.38639 11.8163 9.15436 11.5824 8.86762 11.5824H6.03921C5.75247 11.5824 5.52044 11.8157 5.52044 12.1031C5.52044 12.3904 5.75184 12.6218 6.03921 12.6218H8.86825C9.15499 12.6218 9.38639 12.3898 9.38639 12.1031ZM12.2154 10.3581C12.2154 10.0714 11.9821 9.83744 11.6967 9.83744H6.03921C5.75247 9.83744 5.52044 10.0707 5.52044 10.3581C5.52044 10.6448 5.75184 10.8769 6.03921 10.8769H11.6967C11.9815 10.8769 12.2154 10.6448 12.2154 10.3581ZM14.8797 1.80055C14.8797 2.08729 15.1118 2.32121 15.3985 2.32121H21.0541C21.3408 2.32121 21.5747 2.08792 21.5747 1.80055C21.5747 1.51319 21.3414 1.28178 21.0541 1.28178H15.3985C15.1118 1.28178 14.8797 1.51319 14.8797 1.80055ZM18.7463 3.54552C18.7463 3.25878 18.5149 3.02674 18.2275 3.02674H15.3985C15.1118 3.02674 14.8797 3.25878 14.8797 3.54552C14.8797 3.83226 15.1118 4.06618 15.3985 4.06618H18.2275C18.5143 4.06555 18.7463 3.83226 18.7463 3.54552ZM28.1062 12.1031C28.1062 11.8163 27.8748 11.5824 27.5874 11.5824H24.7584C24.4717 11.5824 24.2396 11.8157 24.2396 12.1031C24.2396 12.3904 24.471 12.6218 24.7584 12.6218H27.5874C27.8742 12.6218 28.1062 12.3898 28.1062 12.1031ZM30.9346 10.3581C30.9346 10.0714 30.7013 9.83744 30.414 9.83744H24.7584C24.4717 9.83744 24.2396 10.0707 24.2396 10.3581C24.2396 10.6448 24.471 10.8769 24.7584 10.8769H30.414C30.7013 10.8769 30.9346 10.6448 30.9346 10.3581Z" fill="url(#paint0_linear_4061_899)"/>
<defs>
<linearGradient id="paint0_linear_4061_899" x1="16.0983" y1="0.0996094" x2="16.0983" y2="29.1005" gradientUnits="userSpaceOnUse">
<stop offset="0.406029" stop-color="#04D4CB"/>
<stop offset="1" stop-color="#A01ECE"/>
</linearGradient>
</defs>
</svg>
