<svg width="49" height="36" viewBox="0 0 49 36" fill="none" xmlns="http://www.w3.org/2000/svg">
<path d="M19.2145 0H12.2269C5.47398 0 0 5.47398 0 12.2269C0 17.1366 2.89462 21.3657 7.06817 23.3128C7.11653 24.4592 6.72067 26.0193 4.8972 27.6153C4.8972 27.6153 9.74067 27.8553 12.0442 24.4502C12.1051 24.4502 12.166 24.4556 12.2269 24.4556H19.2145C25.9674 24.4556 31.4413 18.9816 31.4413 12.2287C31.4413 5.47398 25.9674 0 19.2145 0Z" fill="#8043CD"/>
<path d="M23.4525 17.7867C17.8334 18.1413 10.9157 15.3435 8.48144 9.93934C7.19714 7.09129 6.72784 4.01039 7.43358 0.977844C3.06299 2.84072 0 7.17727 0 12.2267C0 17.1365 2.89462 21.3655 7.06817 23.3126C7.11653 24.459 6.72067 26.0191 4.8972 27.6151C4.8972 27.6151 9.74067 27.8552 12.0442 24.45C12.1051 24.45 12.166 24.4554 12.2269 24.4554H19.2145C24.9535 24.4554 29.7683 20.4986 31.0831 15.1661C28.7473 16.6385 26.1465 17.6165 23.4525 17.7867Z" fill="#8043CD"/>
<path d="M26.5441 6.73848C26.5441 7.10389 26.2485 7.39945 25.8831 7.39945H5.55812C5.19271 7.39945 4.89716 7.10389 4.89716 6.73848C4.89716 6.37307 5.19271 6.07752 5.55812 6.07752H25.8813C26.2467 6.07573 26.5441 6.37307 26.5441 6.73848Z" fill="white"/>
<path d="M4.90062 6.70117C4.90062 6.71371 4.89703 6.72625 4.89703 6.73879C4.89703 7.1042 5.19259 7.39975 5.558 7.39975H25.8812C26.2466 7.39975 26.5422 7.1042 26.5422 6.73879C26.5422 6.72625 26.5386 6.71371 26.5386 6.70117H4.90062Z" fill="#C6C6C6"/>
<path d="M26.544 9.48292C26.544 9.84833 26.2484 10.1439 25.883 10.1439H5.558C5.19259 10.1439 4.89703 9.84833 4.89703 9.48292C4.89703 9.11751 5.19259 8.82196 5.558 8.82196H25.8812C26.2466 8.82196 26.544 9.11751 26.544 9.48292Z" fill="white"/>
<path d="M4.90049 9.44501C4.90049 9.45755 4.89691 9.46829 4.89691 9.48262C4.89691 9.84803 5.19246 10.1436 5.55787 10.1436H25.8811C26.2465 10.1436 26.5421 9.84803 26.5421 9.48262C26.5421 9.47008 26.5385 9.45755 26.5385 9.44501H4.90049Z" fill="#C6C6C6"/>
<path d="M26.544 12.227C26.544 12.5924 26.2484 12.888 25.883 12.888H5.558C5.19259 12.888 4.89703 12.5924 4.89703 12.227C4.89703 11.8616 5.19259 11.566 5.558 11.566H25.8812C26.2466 11.566 26.544 11.8616 26.544 12.227Z" fill="white"/>
<path d="M4.90049 12.1895C4.90049 12.2021 4.89691 12.2146 4.89691 12.2271C4.89691 12.5925 5.19246 12.8881 5.55787 12.8881H25.8811C26.2465 12.8881 26.5421 12.5925 26.5421 12.2271C26.5421 12.2146 26.5385 12.2021 26.5385 12.1895H4.90049Z" fill="#C6C6C6"/>
<path d="M26.544 14.973C26.544 15.3385 26.2484 15.634 25.883 15.634H5.558C5.19259 15.634 4.89703 15.3385 4.89703 14.973C4.89703 14.6076 5.19259 14.3121 5.558 14.3121H25.8812C26.2466 14.3103 26.544 14.6058 26.544 14.973Z" fill="white"/>
<path d="M4.90049 14.9355C4.90049 14.948 4.89691 14.9606 4.89691 14.9731C4.89691 15.3385 5.19246 15.6341 5.55787 15.6341H25.8811C26.2465 15.6341 26.5421 15.3385 26.5421 14.9731C26.5421 14.9606 26.5385 14.948 26.5385 14.9355H4.90049Z" fill="#C6C6C6"/>
<path d="M26.544 17.7171C26.544 18.0825 26.2484 18.3781 25.883 18.3781H5.558C5.19259 18.3781 4.89703 18.0825 4.89703 17.7171C4.89703 17.3517 5.19259 17.0562 5.558 17.0562H25.8812C26.2466 17.0562 26.544 17.3517 26.544 17.7171Z" fill="white"/>
<path d="M4.90049 17.6795C4.90049 17.692 4.89691 17.7046 4.89691 17.7171C4.89691 18.0825 5.19246 18.3781 5.55787 18.3781H25.8811C26.2465 18.3781 26.5421 18.0825 26.5421 17.7171C26.5421 17.7046 26.5385 17.692 26.5385 17.6795H4.90049Z" fill="#C6C6C6"/>
<path d="M44.3991 8.82227H23.7767C21.7097 8.82227 20.0331 10.4989 20.0331 12.5659V27.0838C20.0331 29.1509 21.7097 30.8274 23.7767 30.8274H37.0963C38.7102 35.6351 44.5012 35.3574 45.5741 35.3162C45.1908 35.0314 42.7153 33.079 43.4175 30.8274H44.4009C46.468 30.8274 48.1445 29.1526 48.1445 27.0838V12.5641C48.1428 10.4971 46.4662 8.82227 44.3991 8.82227Z" fill="#10B3C2"/>
<path d="M45.5723 35.3142C45.6046 35.3375 45.6225 35.35 45.6225 35.35C45.8106 35.3071 45.7729 35.3071 45.5723 35.3142Z" fill="#10B3C2"/>
<path d="M35.6185 24.173C31.1476 22.7562 27.8338 19.4102 26.6283 14.839C26.0963 12.8239 25.9602 10.7837 26.2414 8.82227H23.7749C21.7078 8.82227 20.0312 10.4989 20.0312 12.5659V27.0838C20.0312 29.1509 21.7078 30.8274 23.7749 30.8274H37.0944C38.7083 35.6351 44.4994 35.3574 45.5723 35.3162C45.189 35.0314 42.7135 33.079 43.4157 30.8274H44.3991C46.4661 30.8274 48.1427 29.1526 48.1427 27.0838V23.1198C44.3435 24.8358 39.6469 25.4484 35.6185 24.173Z" fill="#10B3C2"/>
<path d="M45.5722 35.3142C45.6044 35.3375 45.6224 35.35 45.6224 35.35C45.8104 35.3071 45.7728 35.3071 45.5722 35.3142Z" fill="#DADADA"/>
<path d="M44.9114 15.647C44.9114 16.0124 44.6158 16.308 44.2504 16.308H23.9272C23.5618 16.308 23.2662 16.0124 23.2662 15.647C23.2662 15.2816 23.5618 14.986 23.9272 14.986H44.2504C44.614 14.9842 44.9114 15.2816 44.9114 15.647Z" fill="white"/>
<path d="M23.2698 15.6093C23.2698 15.6218 23.2662 15.6343 23.2662 15.6469C23.2662 16.0123 23.5618 16.3078 23.9272 16.3078H44.2504C44.6158 16.3078 44.9114 16.0123 44.9114 15.6469C44.9114 15.6343 44.9078 15.6218 44.9078 15.6093H23.2698Z" fill="#C6C6C6"/>
<path d="M44.9114 18.391C44.9114 18.7564 44.6158 19.052 44.2504 19.052H23.9272C23.5618 19.052 23.2662 18.7564 23.2662 18.391C23.2662 18.0256 23.5618 17.73 23.9272 17.73H44.2504C44.614 17.73 44.9114 18.0256 44.9114 18.391Z" fill="white"/>
<path d="M23.2698 18.3535C23.2698 18.3661 23.2662 18.3786 23.2662 18.3911C23.2662 18.7565 23.5618 19.0521 23.9272 19.0521H44.2504C44.6158 19.0521 44.9114 18.7565 44.9114 18.3911C44.9114 18.3786 44.9078 18.3661 44.9078 18.3535H23.2698Z" fill="#C6C6C6"/>
<path d="M44.9114 21.1371C44.9114 21.5025 44.6158 21.7981 44.2504 21.7981H23.9272C23.5618 21.7981 23.2662 21.5025 23.2662 21.1371C23.2662 20.7717 23.5618 20.4761 23.9272 20.4761H44.2504C44.614 20.4744 44.9114 20.7717 44.9114 21.1371Z" fill="white"/>
<path d="M23.2698 21.0992C23.2698 21.1118 23.2662 21.1243 23.2662 21.1369C23.2662 21.5023 23.5618 21.7978 23.9272 21.7978H44.2504C44.6158 21.7978 44.9114 21.5023 44.9114 21.1369C44.9114 21.1243 44.9078 21.1118 44.9078 21.0992H23.2698Z" fill="#C6C6C6"/>
<path d="M44.9114 23.8814C44.9114 24.2468 44.6158 24.5424 44.2504 24.5424H23.9272C23.5618 24.5424 23.2662 24.2468 23.2662 23.8814C23.2662 23.516 23.5618 23.2205 23.9272 23.2205H44.2504C44.614 23.2205 44.9114 23.516 44.9114 23.8814Z" fill="white"/>
<path d="M23.2698 23.8438C23.2698 23.8563 23.2662 23.8688 23.2662 23.8814C23.2662 24.2468 23.5618 24.5423 23.9272 24.5423H44.2504C44.6158 24.5423 44.9114 24.2468 44.9114 23.8814C44.9114 23.8688 44.9078 23.8563 44.9078 23.8438H23.2698Z" fill="#C6C6C6"/>
</svg>
