<svg width="36" height="36" viewBox="0 0 36 36" fill="none" xmlns="http://www.w3.org/2000/svg">
<circle cx="18" cy="18" r="18" fill="white"/>
<path fill-rule="evenodd" clip-rule="evenodd" d="M29.0002 18.2727C29.0002 17.4218 28.9255 16.6036 28.7868 15.8181H17.7349V20.4599H24.0503C23.7782 21.9599 22.9515 23.2308 21.7087 24.0818V27.0927H25.5011C27.72 25.0036 29.0002 21.9272 29.0002 18.2727Z" fill="#4285F4"/>
<path fill-rule="evenodd" clip-rule="evenodd" d="M17.7346 30C20.903 30 23.5593 28.9255 25.5008 27.0928L21.7084 24.0818C20.6576 24.8018 19.3134 25.2273 17.7346 25.2273C14.6782 25.2273 12.0913 23.1164 11.1685 20.28H7.24805V23.3891C9.17894 27.3109 13.1474 30 17.7346 30Z" fill="#34A853"/>
<path fill-rule="evenodd" clip-rule="evenodd" d="M11.1686 20.2799C10.9339 19.5599 10.8006 18.7908 10.8006 17.9999C10.8006 17.209 10.9339 16.4399 11.1686 15.7199V12.6108H7.24814C6.45339 14.2308 6 16.0636 6 17.9999C6 19.9363 6.45339 21.769 7.24814 23.389L11.1686 20.2799Z" fill="#FBBC05"/>
<path fill-rule="evenodd" clip-rule="evenodd" d="M17.7346 10.7727C19.4575 10.7727 21.0043 11.3782 22.2205 12.5673L25.5862 9.12546C23.5539 7.18909 20.8976 6 17.7346 6C13.1474 6 9.17894 8.68909 7.24805 12.6109L11.1685 15.72C12.0913 12.8836 14.6782 10.7727 17.7346 10.7727Z" fill="#EA4335"/>
</svg>
