<svg width="26" height="24" viewBox="0 0 26 24" fill="none" xmlns="http://www.w3.org/2000/svg">
<path d="M14.3537 1.01491L14.3536 1.01481C13.9977 0.686144 13.5192 0.5 13.0002 0.5C12.481 0.5 12.0025 0.686052 11.6465 1.0147L11.6465 1.01472L1.04634 10.7982L14.3537 1.01491ZM14.3537 1.01491L24.9606 10.8046L24.9607 10.8046L24.962 10.8059L14.3537 1.01491ZM1.0369 10.8071L1.03534 10.8086C0.320363 11.4722 0.321571 12.5325 1.03887 13.1946L1.03898 13.1947C1.37327 13.5034 1.82058 13.6874 2.308 13.7068L2.32062 13.7073L2.3332 13.7084C2.34208 13.7092 2.35168 13.7096 2.36199 13.7096H2.78474H3.28474V14.2096V21.4143C3.28474 22.5269 4.27911 23.5 5.58652 23.5H9.73628C9.9193 23.5 9.99808 23.3721 9.99808 23.2969V17.6484C9.99808 16.6847 10.8338 15.9687 11.7763 15.9687H14.224C15.1666 15.9687 16.0022 16.6848 16.0022 17.6484V23.2969C16.0022 23.3721 16.0809 23.5 16.264 23.5H20.4138C21.7212 23.5 22.7156 22.5269 22.7156 21.4144V14.2097V13.7097H23.2156H23.6076C24.1264 13.7097 24.6049 13.5237 24.9612 13.1951C25.6792 12.532 25.6796 11.4699 24.9624 10.8062L1.0369 10.8071ZM1.0369 10.8071L1.04538 10.7991L1.0369 10.8071Z" stroke="white"/>
</svg>
