<svg width="12" height="12" viewBox="0 0 12 12" fill="none" xmlns="http://www.w3.org/2000/svg">
<path d="M0.354536 5.26556C0.158729 5.26556 0 5.42432 0 5.6201V10.8274C0 11.0232 0.158752 11.1819 0.354536 11.1819H2.49058V5.26556H0.354536ZM11.9757 7.22338C11.9757 6.77331 11.7339 6.37866 11.3734 6.16251C11.5164 5.95639 11.5928 5.71147 11.5925 5.46062C11.5925 4.77915 11.0381 4.22471 10.3566 4.22471H7.74762C7.82758 3.86235 7.93694 3.31861 8.01309 2.7494C8.21126 1.26813 8.07582 0.446625 7.5869 0.164115C7.28208 -0.0119832 6.95344 -0.0477037 6.66149 0.0634371C6.43596 0.149344 6.13137 0.360554 5.9578 0.878922L5.27209 2.67433C4.92446 3.53286 3.85989 4.43419 3.19967 4.93256V11.3388C4.4233 11.7675 5.70015 11.9849 7.0028 11.9849H9.8456C10.5271 11.9849 11.0815 11.4304 11.0815 10.7489C11.0818 10.5189 11.0175 10.2934 10.8959 10.0981C11.3079 9.89745 11.5925 9.47438 11.5925 8.98616C11.5928 8.73531 11.5163 8.49039 11.3733 8.28427C11.7339 8.06812 11.9757 7.67344 11.9757 7.22338Z" fill="white"/>
</svg>
