<svg width="63" height="72" viewBox="0 0 63 72" fill="none" xmlns="http://www.w3.org/2000/svg">
<path d="M31.4809 40.3685C35.1357 40.3685 38.109 37.3951 38.109 33.7404V6.62794C38.109 2.97337 35.1357 0 31.4809 0C27.8261 0 24.8525 2.97337 24.8525 6.62808V33.7406C24.8525 37.3953 27.8261 40.3685 31.4809 40.3685Z" fill="#7D42CE"/>
<path d="M53.7923 18.3093C53.7758 18.2915 53.759 18.2741 53.7418 18.257C52.49 17.0053 50.8255 16.3159 49.0553 16.3159C47.2849 16.3159 45.6204 17.0051 44.3686 18.257C43.1165 19.5088 42.427 21.1734 42.4273 22.944C42.4275 24.6859 43.095 26.3253 44.3092 27.5701C44.3285 27.5908 44.3479 27.6113 44.3683 27.6314C47.8104 31.0737 49.706 35.6503 49.706 40.5186C49.706 50.5679 41.5305 58.7436 31.481 58.7436C21.4318 58.7436 13.256 50.5679 13.256 40.5186C13.256 35.6502 15.1516 31.0735 18.594 27.6314C21.1777 25.0476 21.178 20.8428 18.5934 18.2575C17.3413 17.006 15.6769 16.3166 13.9067 16.3166C12.1365 16.3166 10.4721 17.006 9.2205 18.2579C3.27445 24.204 0 32.1097 0 40.5186C0 48.9276 3.27445 56.8331 9.2205 62.7793C15.1665 68.7254 23.0721 71.9999 31.481 71.9999C39.89 71.9999 47.7958 68.7253 53.7415 62.7793C59.6876 56.8332 62.962 48.9276 62.962 40.5186C62.962 32.1347 59.7063 24.2493 53.7923 18.3093Z" fill="#7D42CE"/>
<path d="M38.1095 33.7406V6.62808C38.1095 2.97337 35.1363 0 31.4814 0V40.3685C35.1363 40.3685 38.1095 37.3953 38.1095 33.7406ZM53.7927 18.3094C53.7762 18.2916 53.7594 18.2742 53.7422 18.2571C52.4904 17.0054 50.826 16.316 49.0558 16.316C47.2853 16.316 45.6209 17.0052 44.369 18.2571C43.1169 19.5089 42.4274 21.1735 42.4277 22.9441C42.428 24.686 43.0954 26.3254 44.3097 27.5702C44.3289 27.5909 44.3484 27.6114 44.3687 27.6315C47.8108 31.0738 49.7064 35.6504 49.7064 40.5187C49.7064 50.568 41.5309 58.7437 31.4814 58.7437V72C39.8904 72 47.7962 68.7254 53.742 62.7794C59.688 56.8333 62.9625 48.9277 62.9625 40.5187C62.9625 32.1348 59.7067 24.2494 53.7927 18.3094Z" fill="#10B4C0"/>
</svg>
