<svg width="21" height="19" viewBox="0 0 21 19" fill="none" xmlns="http://www.w3.org/2000/svg">
<path d="M16.7495 1.95452C16.7495 1.74739 16.9156 1.57912 17.1227 1.57912H18.3588C18.5637 1.57912 18.732 1.74739 18.732 1.95452V2.45931H16.7495V1.95452ZM2.54786 1.95452C2.54786 1.74739 2.71613 1.57912 2.92108 1.57912H4.15722C4.36432 1.57912 4.53044 1.74739 4.53044 1.95452V2.45931H2.54786V1.95452ZM13.0993 1.07865C13.0993 0.960004 13.0022 0.862914 12.8836 0.862914H8.39634C8.27769 0.862914 8.1806 0.960004 8.1806 1.07865V2.45935H7.31768V1.07865C7.31768 0.485372 7.80092 0 8.39634 0H12.8836C13.479 0 13.9622 0.485411 13.9622 1.07865V2.45935H13.0993V1.07865ZM1.36352 2.89079H19.9164C20.3932 2.89079 20.7793 3.27697 20.7793 3.7537V16.2165C20.7793 16.6933 20.3932 17.0794 19.9164 17.0794H19.2778V17.6188C19.2778 17.8561 19.0837 18.0503 18.8463 18.0503H16.9371C16.6998 18.0503 16.5056 17.8561 16.5056 17.6188V17.0794H4.77416V17.6188C4.77416 17.8561 4.57998 18.0503 4.34268 18.0503H2.43345C2.19616 18.0503 2.00198 17.8561 2.00198 17.6188V17.0794H1.3634C0.886629 17.0794 0.500488 16.6932 0.500488 16.2165V3.7537C0.500566 3.27697 0.886747 2.89079 1.36352 2.89079ZM10.64 14.6167C13.1988 14.6167 15.2727 12.5429 15.2727 9.98404C15.2727 7.42704 13.1988 5.35133 10.64 5.35133C8.08113 5.35133 6.00724 7.42708 6.00724 9.98404C6.00724 12.5429 8.08113 14.6167 10.64 14.6167Z" fill="#FFFDFD"/>
<path d="M7.96188 8.2091H9.7395V6.43148C9.7395 6.19315 9.93269 6 10.171 6H11.1116C11.3499 6 11.543 6.19315 11.543 6.43148V8.2091H13.3185C13.5568 8.2091 13.75 8.40229 13.75 8.64058V9.58112C13.75 9.81941 13.5568 10.0126 13.3185 10.0126H11.543V11.7881C11.543 12.0264 11.3499 12.2196 11.1116 12.2196H10.171C9.93269 12.2196 9.7395 12.0264 9.7395 11.7881V10.0126H7.96188C7.72359 10.0126 7.5304 9.81945 7.5304 9.58112V8.64058C7.5304 8.40229 7.72359 8.2091 7.96188 8.2091Z" fill="#FFFDFD"/>
</svg>
