<svg width="13" height="11" viewBox="0 0 13 11" fill="none" xmlns="http://www.w3.org/2000/svg">
<path d="M11.587 0H1.41304C1.03842 0.000415873 0.679266 0.138518 0.414366 0.384015C0.149467 0.629511 0.000448742 0.962357 0 1.30954V7.07152C0.000448742 7.4187 0.149467 7.75155 0.414366 7.99705C0.679266 8.24254 1.03842 8.38064 1.41304 8.38106H1.97826V10.4645C1.97716 10.5713 2.01079 10.676 2.07475 10.7648C2.13871 10.8537 2.23006 10.9226 2.33689 10.9627C2.44026 11.0013 2.5538 11.0102 2.66269 10.9882C2.77158 10.9661 2.87077 10.9141 2.94733 10.8391L5.49024 8.38106H11.587C11.9616 8.38064 12.3207 8.24254 12.5856 7.99705C12.8505 7.75155 12.9996 7.4187 13 7.07152V1.30954C12.9996 0.962357 12.8505 0.629511 12.5856 0.384015C12.3207 0.138518 11.9616 0.000415873 11.587 0ZM3.1087 2.35717H5.93478C6.00973 2.35717 6.08162 2.38477 6.13462 2.43388C6.18762 2.483 6.21739 2.54962 6.21739 2.61908C6.21739 2.68854 6.18762 2.75516 6.13462 2.80428C6.08162 2.8534 6.00973 2.88099 5.93478 2.88099H3.1087C3.03374 2.88099 2.96186 2.8534 2.90886 2.80428C2.85586 2.75516 2.82609 2.68854 2.82609 2.61908C2.82609 2.54962 2.85586 2.483 2.90886 2.43388C2.96186 2.38477 3.03374 2.35717 3.1087 2.35717ZM8.76087 6.02389H3.1087C3.03374 6.02389 2.96186 5.99629 2.90886 5.94718C2.85586 5.89806 2.82609 5.83144 2.82609 5.76198C2.82609 5.69252 2.85586 5.6259 2.90886 5.57678C2.96186 5.52766 3.03374 5.50007 3.1087 5.50007H8.76087C8.83582 5.50007 8.9077 5.52766 8.9607 5.57678C9.0137 5.6259 9.04348 5.69252 9.04348 5.76198C9.04348 5.83144 9.0137 5.89806 8.9607 5.94718C8.9077 5.99629 8.83582 6.02389 8.76087 6.02389ZM9.8913 4.45244H3.1087C3.03374 4.45244 2.96186 4.42484 2.90886 4.37573C2.85586 4.32661 2.82609 4.25999 2.82609 4.19053C2.82609 4.12107 2.85586 4.05445 2.90886 4.00533C2.96186 3.95622 3.03374 3.92862 3.1087 3.92862H9.8913C9.96626 3.92862 10.0381 3.95622 10.0911 4.00533C10.1441 4.05445 10.1739 4.12107 10.1739 4.19053C10.1739 4.25999 10.1441 4.32661 10.0911 4.37573C10.0381 4.42484 9.96626 4.45244 9.8913 4.45244Z" fill="#FFF8F8"/>
</svg>
