<svg width="390" height="1153" viewBox="0 0 390 1153" fill="none" xmlns="http://www.w3.org/2000/svg">
<g clip-path="url(#clip0_4244_815)">
<rect width="390" height="1153" rx="40" fill="#010125"/>
<path d="M310.365 -45.6462L380.862 11.9672L380.884 11.9853L380.91 11.9979L462.591 52.215L377.448 84.4606L377.421 84.4707L377.397 84.4866L301.728 135.116L316.374 45.2566L316.378 45.2284L316.376 45.1999L310.365 -45.6462Z" stroke="white" stroke-opacity="0.3" stroke-width="0.5"/>
<path d="M318.642 -49.4639L383.849 14.0745L383.87 14.0944L383.894 14.1092L461.759 61.2922L374.129 85.9944L374.102 86.0022L374.077 86.016L294.283 129.857L316.705 41.6167L316.712 41.589L316.712 41.5604L318.642 -49.4639Z" stroke="white" stroke-opacity="0.3" stroke-width="0.5"/>
<path d="M327.218 -52.5463L386.64 16.4335L386.659 16.4552L386.682 16.4721L460.138 70.2619L370.689 87.2327L370.661 87.238L370.634 87.2495L287.323 123.969L317.35 38.0189L317.36 37.9919L317.363 37.9635L327.218 -52.5463Z" stroke="white" stroke-opacity="0.3" stroke-width="0.5"/>
<path d="M336.033 -54.8693L389.217 19.0269L389.234 19.0501L389.255 19.069L457.744 79.0562L367.156 88.1664L367.127 88.1693L367.1 88.1785L280.906 117.498L318.31 34.4912L318.322 34.4651L318.327 34.4371L336.033 -54.8693Z" stroke="white" stroke-opacity="0.3" stroke-width="0.5"/>
<path d="M345.016 -56.4153L391.557 21.835L391.571 21.8596L391.591 21.8802L454.591 87.6083L363.554 88.7886L363.525 88.789L363.497 88.7958L275.075 110.491L319.572 31.0605L319.586 31.0355L319.594 31.0081L345.016 -56.4153Z" stroke="white" stroke-opacity="0.3" stroke-width="0.5"/>
<path d="M363.214 -57.1347L395.459 28.0085L395.469 28.0352L395.485 28.059L446.114 103.728L356.255 89.0822L356.227 89.0776L356.199 89.0795L265.352 95.0908L322.966 24.5937L322.984 24.5716L322.997 24.5459L363.214 -57.1347Z" stroke="white" stroke-opacity="0.3" stroke-width="0.5"/>
<path d="M372.29 -56.3043L396.992 31.3253L397 31.3528L397.014 31.3779L440.855 111.172L352.615 88.7498L352.587 88.7428L352.558 88.7422L261.534 86.8129L325.072 21.6053L325.092 21.5849L325.107 21.5604L372.29 -56.3043Z" stroke="white" stroke-opacity="0.3" stroke-width="0.5"/>
<path d="M381.26 -54.6848L398.231 34.7643L398.236 34.7923L398.248 34.8185L434.968 118.13L349.017 88.1025L348.99 88.0931L348.962 88.09L258.452 78.2347L327.432 18.813L327.453 18.7944L327.47 18.7713L381.26 -54.6848Z" stroke="white" stroke-opacity="0.3" stroke-width="0.5"/>
<path d="M390.056 -52.2883L399.166 38.2995L399.169 38.3279L399.178 38.355L428.497 124.55L345.491 87.1455L345.465 87.1337L345.437 87.1282L256.13 69.422L330.026 16.2384L330.05 16.2217L330.068 16.2002L390.056 -52.2883Z" stroke="white" stroke-opacity="0.3" stroke-width="0.5"/>
<path d="M398.608 -49.1373L399.788 41.8998L399.788 41.9284L399.795 41.9561L421.491 130.378L342.06 85.8818L342.035 85.8678L342.008 85.8599L254.584 60.4374L332.834 13.8967L332.859 13.8821L332.88 13.8624L398.608 -49.1373Z" stroke="white" stroke-opacity="0.3" stroke-width="0.5"/>
<path d="M406.851 -45.2502L400.093 45.5433L400.091 45.5718L400.095 45.6001L414.001 135.577L338.751 84.3266L338.727 84.3106L338.701 84.3002L253.826 51.3551L335.835 11.8115L335.86 11.7991L335.883 11.7811L406.851 -45.2502Z" stroke="white" stroke-opacity="0.3" stroke-width="0.5"/>
<path d="M414.726 -40.66L400.08 49.199L400.076 49.2272L400.078 49.2557L406.089 140.102L335.592 82.4884L335.57 82.4703L335.544 82.4577L253.863 42.2406L339.007 9.99499L339.033 9.98488L339.057 9.96898L414.726 -40.66Z" stroke="white" stroke-opacity="0.3" stroke-width="0.5"/>
</g>
<defs>
<clipPath id="clip0_4244_815">
<rect width="390" height="1153" rx="40" fill="white"/>
</clipPath>
</defs>
</svg>
