<svg width="69" height="69" viewBox="0 0 69 69" fill="none" xmlns="http://www.w3.org/2000/svg">
<path fill-rule="evenodd" clip-rule="evenodd" d="M18.7485 52.6106L9.08853 56.2987C4.93332 57.8851 1 59.9392 1 64.3872V67.9998H8.15067L19.3128 58.4067L18.7485 52.6106ZM33.132 60.2336L31.8172 67.9998H52.834V64.3872C52.834 59.9395 48.9037 57.8772 44.7455 56.2987L34.7538 52.5059L36.0569 55.1908C36.5461 56.1991 36.5382 57.4331 35.6724 58.1449L33.132 60.2336Z" fill="#FFEE89"/>
<path fill-rule="evenodd" clip-rule="evenodd" d="M29.8937 62.896L26.0823 64.1175L21.9619 68H31.817L33.1318 60.2336L29.8937 62.896Z" fill="#7A797F"/>
<path fill-rule="evenodd" clip-rule="evenodd" d="M29.8936 62.896L35.6722 58.1449C36.5379 57.4331 36.5459 56.1992 36.0566 55.1909L32.8421 48.5674L38.1487 44.2045C39.0145 43.4927 39.1404 42.2019 38.4286 41.3363C37.7211 40.4758 36.4298 40.3417 35.5605 41.0563L24.5529 50.1063L25.4526 44.4171C25.6131 43.4018 24.9197 42.2959 23.8163 41.9731L22.347 41.5432L18.5594 50.673L19.3126 58.4067L8.15039 67.9999H21.9617L26.0823 64.1175L29.8936 62.896Z" fill="#FFDAAA"/>
<path fill-rule="evenodd" clip-rule="evenodd" d="M14.7842 36.0778C14.7842 40.3479 17.0207 44.1213 20.3801 46.2849L22.3472 41.5433L23.8165 41.9732C24.9199 42.2959 25.6134 43.4019 25.4528 44.4171L24.5532 50.1064L35.5609 41.0563C36.2786 40.4663 37.2884 40.452 38.0181 40.9575C38.6993 39.4209 39.0507 37.7585 39.0496 36.0777V27.9896L24.8961 27.9909C22.1145 27.9912 19.8407 25.7147 19.8407 22.9338C17.06 22.9338 14.7849 25.2087 14.7844 27.9892L14.7842 36.0778Z" fill="#FFDAAA"/>
<path fill-rule="evenodd" clip-rule="evenodd" d="M12.762 36.0778H14.7842V27.9893H10.7399C9.62773 27.9893 8.71777 28.8992 8.71777 30.0114V32.0335C8.71777 34.2677 10.5475 36.0778 12.762 36.0778ZM39.0495 27.9897V36.0778H41.0716C43.2861 36.0778 45.1159 34.2677 45.1159 32.0335V30.0114C45.1159 28.8992 44.2059 27.9893 43.0938 27.9893L39.0495 27.9897Z" fill="#FFB680"/>
<path fill-rule="evenodd" clip-rule="evenodd" d="M10.7402 27.9894H14.7846C14.7849 25.2089 17.0602 22.934 19.8409 22.934C19.8409 25.715 22.1147 27.9915 24.8962 27.9911L39.0498 27.9898L43.0941 27.9894L43.094 22.2322C43.094 13.3273 35.8222 6.05542 26.9172 6.05542C18.012 6.05542 10.7404 13.3274 10.7402 22.2322V27.9894ZM18.56 50.6731L20.3804 46.2849C17.021 44.1214 14.7845 40.348 14.7845 36.0779H12.7624C12.0519 36.0784 11.3541 35.8902 10.7402 35.5325V55.6684L18.7487 52.6108L18.56 50.6731ZM39.0498 36.0779C39.051 37.7587 38.6995 39.4211 38.0183 40.9577C38.1721 41.0644 38.3104 41.1919 38.4292 41.3365C39.141 42.2021 39.015 43.4929 38.1493 44.2047L32.8427 48.5677L34.7541 52.5062L43.0942 55.6721V35.5323C42.4804 35.8901 41.7825 36.0783 41.072 36.0778H39.0498V36.0779Z" fill="#BABABE"/>
<path fill-rule="evenodd" clip-rule="evenodd" d="M4.76117 58.3462C2.56405 59.7301 1 61.5828 1 64.3874V68H4.0332V61.3542C4.0332 60.2018 4.29769 59.2106 4.76117 58.3462Z" fill="#FFE200"/>
<path fill-rule="evenodd" clip-rule="evenodd" d="M11.6796 64.9668L8.15039 68H21.9617L25.1808 64.9668H11.6796ZM14.7839 36.0778C14.7839 40.3479 17.0204 44.1213 20.3798 46.2849L21.1559 44.414C19.0893 42.236 17.817 39.2983 17.817 36.0778L17.8171 23.3591C16.036 24.1433 14.7842 25.9271 14.7839 27.9891V36.0778Z" fill="#FFB680"/>
<path fill-rule="evenodd" clip-rule="evenodd" d="M10.7402 27.9892H13.7734V22.232C13.7734 13.8386 20.2343 6.89686 28.4338 6.12724C18.9837 5.2402 10.7404 12.7116 10.7402 22.232V27.9892ZM13.7734 36.0777H12.7624C12.0519 36.0783 11.3541 35.89 10.7402 35.5323V55.6683L13.7734 54.5103V36.0777Z" fill="#7A797F"/>
<path d="M51.2506 30.2884C52.3674 30.2884 53.2728 29.3831 53.2728 28.2663C53.2728 27.1495 52.3674 26.2441 51.2506 26.2441C50.1339 26.2441 49.2285 27.1495 49.2285 28.2663C49.2285 29.3831 50.1339 30.2884 51.2506 30.2884Z" fill="#9EE6FA"/>
<path fill-rule="evenodd" clip-rule="evenodd" d="M52.2654 19.5138C52.35 21.6728 54.1266 23.3973 56.3062 23.3973C57.9533 23.3973 59.3703 22.4125 60.0009 20.9997C64.5711 20.0284 67.9996 15.9703 67.9996 11.1107C67.9996 5.52675 63.4729 1 57.889 1C52.3051 1 47.7783 5.52675 47.7783 11.1107C47.7785 14.6131 49.5595 17.6994 52.2654 19.5138Z" fill="white"/>
<path fill-rule="evenodd" clip-rule="evenodd" d="M52.2653 19.5138C52.3498 21.6728 54.1265 23.3972 56.3061 23.3972C56.6791 23.3972 57.0402 23.3466 57.3832 23.2521C55.2903 21.7077 55.3256 20.1496 55.2357 17.8538C47.7392 12.8269 50.8071 3.17699 57.2441 1.021C51.9606 1.3537 47.7783 5.74335 47.7783 11.1106C47.7783 14.6131 49.5594 17.6994 52.2653 19.5138Z" fill="#9EE6FA"/>
<path d="M30.6807 12.0155V9.99341M34.7249 14.0377V12.0155" stroke="white" stroke-width="2" stroke-miterlimit="22.9256"/>
<path d="M21.9619 67.9999L26.0823 64.1175L29.8937 62.8959L35.6722 58.1449C36.538 57.4331 36.5459 56.1992 36.0567 55.1908L32.8422 48.5674" stroke="black" stroke-width="2" stroke-miterlimit="2.6131"/>
<path d="M23.2969 51.1396L35.561 41.0566C36.4267 40.3448 37.7175 40.4708 38.429 41.3366C39.1408 42.2022 39.0149 43.493 38.1492 44.2048L29.9415 50.9527" stroke="black" stroke-width="2" stroke-miterlimit="2.6131"/>
<path d="M24.5529 50.1065L25.4526 44.4173C25.6131 43.4021 24.9197 42.2961 23.8163 41.9734L22.347 41.5435L18.5594 50.6733L19.3126 58.407L8.15039 68.0001" stroke="black" stroke-width="2" stroke-miterlimit="2.6131"/>
<path d="M43.0942 27.9894L43.0941 22.2322C43.0941 13.3273 35.8224 6.05542 26.9173 6.05542C22.8388 6.05542 19.1035 7.58132 16.252 10.0904M14.7755 11.5671C12.2665 14.4187 10.7405 18.1538 10.7404 22.2323L10.7402 27.9895" stroke="black" stroke-width="2" stroke-miterlimit="22.9256"/>
<path d="M14.7843 36.0778H12.7622C10.5379 36.0778 8.71794 34.2579 8.71794 32.0335V30.0114C8.71794 28.8992 9.6279 27.9893 10.7401 27.9893H14.7843M14.7843 36.0778V27.9893M14.7843 36.0778C14.7843 40.3479 17.0208 44.1213 20.3803 46.2849M14.7843 27.9893C14.7847 25.2088 17.06 22.9339 19.8408 22.9339M38.0181 40.9576C38.6993 39.421 39.0507 37.7586 39.0497 36.0778M39.0497 36.0778V27.9893M39.0497 36.0778H41.0718C43.2961 36.0778 45.1161 34.2579 45.1161 32.0335V30.0114C45.1161 28.8992 44.2061 27.9893 43.0939 27.9893L24.8961 27.991C22.1158 27.9913 19.8408 25.7156 19.8408 22.935V17.8798M43.0941 35.3705V55.6719M10.7401 35.5322V55.6682M34.7538 52.506L44.7455 56.2989C48.9037 57.8772 52.834 59.9396 52.834 64.3874V68H46.7677M44.7456 68H42.7235M40.7012 68H1V64.3874C1 59.9395 4.93332 57.8853 9.08853 56.2989L18.7485 52.6108M33.132 60.2337L31.8172 68M57.8893 1C63.4733 1 68 5.52675 68 11.1107C68 15.9703 64.5713 20.0285 60.0012 20.9997C59.3706 22.4125 57.9536 23.3973 56.3065 23.3973C54.1268 23.3973 52.3502 21.6728 52.2658 19.5138C49.5598 17.6994 47.7787 14.6131 47.7787 11.1107C47.7787 5.52675 52.3053 1 57.8893 1Z" stroke="black" stroke-width="2" stroke-miterlimit="22.9256"/>
<path d="M51.2506 30.2884C52.3674 30.2884 53.2728 29.3831 53.2728 28.2663C53.2728 27.1495 52.3674 26.2441 51.2506 26.2441C50.1339 26.2441 49.2285 27.1495 49.2285 28.2663C49.2285 29.3831 50.1339 30.2884 51.2506 30.2884Z" stroke="black" stroke-width="2" stroke-miterlimit="22.9256"/>
<path d="M56.8782 11.1106H58.9004M60.9225 11.1106H62.9446M52.834 11.1106H54.8561" stroke="black" stroke-width="2" stroke-miterlimit="22.9256"/>
</svg>
