<svg width="342" height="163" viewBox="0 0 342 163" fill="none" xmlns="http://www.w3.org/2000/svg">
<rect width="342" height="163" rx="8" fill="white"/>
<g filter="url(#filter0_d_6004_713)">
<rect x="13.9592" y="107" width="109.714" height="40" rx="15" fill="#10B3C2"/>
</g>
<path d="M29.4083 22.1562C29.3089 21.8106 29.1692 21.5052 28.9893 21.2401C28.8093 20.9702 28.5892 20.7429 28.3287 20.5582C28.0731 20.3688 27.7795 20.2244 27.4481 20.125C27.1214 20.0256 26.7591 19.9759 26.3614 19.9759C25.618 19.9759 24.9646 20.1605 24.4012 20.5298C23.8425 20.8991 23.4069 21.4366 23.0944 22.142C22.7819 22.8428 22.6256 23.6998 22.6256 24.7131C22.6256 25.7263 22.7795 26.5881 23.0873 27.2983C23.395 28.0085 23.8306 28.5507 24.3941 28.9247C24.9575 29.294 25.6228 29.4787 26.3898 29.4787C27.0858 29.4787 27.6801 29.3556 28.1725 29.1094C28.6697 28.8584 29.0484 28.5057 29.3089 28.0511C29.574 27.5966 29.7066 27.0592 29.7066 26.4389L30.3316 26.5312H26.5816V24.2159H32.6682V26.0483C32.6682 27.3267 32.3983 28.4252 31.8586 29.3438C31.3188 30.2576 30.5754 30.9631 29.6285 31.4602C28.6815 31.9527 27.5972 32.1989 26.3756 32.1989C25.012 32.1989 23.8141 31.8982 22.7819 31.2969C21.7497 30.6908 20.9447 29.8314 20.3671 28.7188C19.7942 27.6013 19.5077 26.2756 19.5077 24.7415C19.5077 23.5625 19.6782 22.5114 20.0191 21.5881C20.3647 20.66 20.8477 19.8741 21.4679 19.2301C22.0882 18.5862 22.8103 18.0961 23.6341 17.7599C24.458 17.4238 25.3505 17.2557 26.3117 17.2557C27.1356 17.2557 27.9026 17.3764 28.6128 17.6179C29.3231 17.8546 29.9528 18.1908 30.502 18.6264C31.056 19.062 31.5082 19.5805 31.8586 20.1818C32.209 20.7784 32.4339 21.4366 32.5333 22.1562H29.4083ZM39.893 32.2131C38.7709 32.2131 37.805 31.9858 36.9953 31.5312C36.1904 31.072 35.5701 30.4233 35.1345 29.5852C34.6989 28.7424 34.4811 27.7457 34.4811 26.5952C34.4811 25.473 34.6989 24.4882 35.1345 23.6406C35.5701 22.7931 36.1833 22.1326 36.974 21.6591C37.7694 21.1856 38.7022 20.9489 39.7723 20.9489C40.492 20.9489 41.162 21.0649 41.7822 21.2969C42.4072 21.5241 42.9517 21.8674 43.4157 22.3267C43.8845 22.786 44.2491 23.3636 44.5095 24.0597C44.7699 24.7509 44.9001 25.5606 44.9001 26.4886V27.3196H35.6885V25.4446H42.0521C42.0521 25.009 41.9574 24.6231 41.768 24.2869C41.5786 23.9508 41.3158 23.688 40.9797 23.4986C40.6482 23.3045 40.2623 23.2074 39.822 23.2074C39.3627 23.2074 38.9555 23.3139 38.6004 23.527C38.25 23.7353 37.9754 24.017 37.7765 24.3722C37.5777 24.7225 37.4759 25.1132 37.4711 25.544V27.3267C37.4711 27.8665 37.5706 28.3329 37.7694 28.7259C37.973 29.1188 38.2595 29.4219 38.6288 29.6349C38.9981 29.848 39.4361 29.9545 39.9427 29.9545C40.2789 29.9545 40.5867 29.9072 40.866 29.8125C41.1454 29.7178 41.3845 29.5758 41.5834 29.3864C41.7822 29.197 41.9337 28.965 42.0379 28.6903L44.8362 28.875C44.6942 29.5473 44.403 30.1345 43.9626 30.6364C43.527 31.1335 42.9636 31.5218 42.2723 31.8011C41.5857 32.0758 40.7926 32.2131 39.893 32.2131ZM52.6771 21.0909V23.3636H46.1075V21.0909H52.6771ZM47.599 18.4773H50.6246V28.6477C50.6246 28.9271 50.6672 29.1449 50.7524 29.3011C50.8376 29.4527 50.956 29.5592 51.1075 29.6207C51.2638 29.6823 51.4437 29.7131 51.6473 29.7131C51.7893 29.7131 51.9314 29.7012 52.0734 29.6776C52.2155 29.6491 52.3244 29.6278 52.4001 29.6136L52.876 31.8651C52.7245 31.9124 52.5114 31.9669 52.2368 32.0284C51.9621 32.0947 51.6283 32.1349 51.2353 32.1491C50.5062 32.1776 49.867 32.0805 49.3177 31.858C48.7732 31.6354 48.3495 31.2898 48.0464 30.821C47.7434 30.3523 47.5943 29.7604 47.599 29.0455V18.4773ZM59.3337 32V17.4545H65.0724C66.1756 17.4545 67.1154 17.6652 67.892 18.0866C68.6685 18.5033 69.2603 19.0833 69.6675 19.8267C70.0795 20.5653 70.2854 21.4176 70.2854 22.3835C70.2854 23.3494 70.0771 24.2017 69.6604 24.9403C69.2438 25.679 68.6401 26.2543 67.8493 26.6662C67.0634 27.0781 66.1117 27.2841 64.9942 27.2841H61.3366V24.8196H64.4971C65.0889 24.8196 65.5766 24.7178 65.9601 24.5142C66.3484 24.3059 66.6372 24.0194 66.8266 23.6548C67.0207 23.2855 67.1178 22.8617 67.1178 22.3835C67.1178 21.9006 67.0207 21.4792 66.8266 21.1193C66.6372 20.7547 66.3484 20.473 65.9601 20.2741C65.5719 20.0705 65.0795 19.9688 64.4829 19.9688H62.409V32H59.3337ZM72.2261 32V21.0909H75.1594V22.9943H75.273C75.4719 22.3172 75.8057 21.8059 76.2744 21.4602C76.7432 21.1098 77.2829 20.9347 77.8937 20.9347C78.0452 20.9347 78.2086 20.9441 78.3838 20.9631C78.559 20.982 78.7129 21.008 78.8454 21.0412V23.7259C78.7034 23.6832 78.5069 23.6454 78.2559 23.6122C78.005 23.5791 77.7754 23.5625 77.567 23.5625C77.1219 23.5625 76.7242 23.6596 76.3738 23.8537C76.0282 24.0431 75.7536 24.3082 75.55 24.6491C75.3511 24.9901 75.2517 25.383 75.2517 25.8281V32H72.2261ZM84.8735 32.2131C83.7513 32.2131 82.7854 31.9858 81.9758 31.5312C81.1708 31.072 80.5506 30.4233 80.115 29.5852C79.6794 28.7424 79.4616 27.7457 79.4616 26.5952C79.4616 25.473 79.6794 24.4882 80.115 23.6406C80.5506 22.7931 81.1637 22.1326 81.9545 21.6591C82.7499 21.1856 83.6827 20.9489 84.7528 20.9489C85.4724 20.9489 86.1424 21.0649 86.7627 21.2969C87.3877 21.5241 87.9322 21.8674 88.3962 22.3267C88.865 22.786 89.2295 23.3636 89.49 24.0597C89.7504 24.7509 89.8806 25.5606 89.8806 26.4886V27.3196H80.6689V25.4446H87.0326C87.0326 25.009 86.9379 24.6231 86.7485 24.2869C86.5591 23.9508 86.2963 23.688 85.9601 23.4986C85.6287 23.3045 85.2428 23.2074 84.8025 23.2074C84.3432 23.2074 83.936 23.3139 83.5809 23.527C83.2305 23.7353 82.9559 24.017 82.757 24.3722C82.5581 24.7225 82.4563 25.1132 82.4516 25.544V27.3267C82.4516 27.8665 82.551 28.3329 82.7499 28.7259C82.9535 29.1188 83.24 29.4219 83.6093 29.6349C83.9786 29.848 84.4166 29.9545 84.9232 29.9545C85.2594 29.9545 85.5671 29.9072 85.8465 29.8125C86.1259 29.7178 86.365 29.5758 86.5638 29.3864C86.7627 29.197 86.9142 28.965 87.0184 28.6903L89.8167 28.875C89.6746 29.5473 89.3834 30.1345 88.9431 30.6364C88.5075 31.1335 87.944 31.5218 87.2528 31.8011C86.5662 32.0758 85.7731 32.2131 84.8735 32.2131ZM91.855 32V21.0909H94.7385V23.0156H94.8664C95.0937 22.3764 95.4724 21.8722 96.0028 21.5028C96.5331 21.1335 97.1675 20.9489 97.9062 20.9489C98.6543 20.9489 99.2911 21.1359 99.8167 21.5099C100.342 21.8793 100.693 22.3812 100.868 23.0156H100.981C101.204 22.3906 101.606 21.8911 102.189 21.517C102.776 21.1383 103.47 20.9489 104.27 20.9489C105.288 20.9489 106.114 21.2732 106.748 21.9219C107.388 22.5658 107.707 23.4796 107.707 24.6634V32H104.689V25.2599C104.689 24.6539 104.528 24.1993 104.206 23.8963C103.884 23.5933 103.481 23.4418 102.998 23.4418C102.449 23.4418 102.021 23.617 101.713 23.9673C101.405 24.313 101.251 24.7699 101.251 25.3381V32H98.3181V25.196C98.3181 24.661 98.1642 24.2348 97.8564 23.9176C97.5534 23.6004 97.1533 23.4418 96.6562 23.4418C96.32 23.4418 96.017 23.527 95.7471 23.6974C95.4819 23.8632 95.2712 24.0975 95.115 24.4006C94.9587 24.6989 94.8806 25.0492 94.8806 25.4517V32H91.855ZM110.097 32V21.0909H113.123V32H110.097ZM111.617 19.6847C111.167 19.6847 110.781 19.5355 110.459 19.2372C110.142 18.9342 109.984 18.572 109.984 18.1506C109.984 17.7339 110.142 17.3764 110.459 17.0781C110.781 16.7751 111.167 16.6236 111.617 16.6236C112.067 16.6236 112.45 16.7751 112.768 17.0781C113.09 17.3764 113.251 17.7339 113.251 18.1506C113.251 18.572 113.09 18.9342 112.768 19.2372C112.45 19.5355 112.067 19.6847 111.617 19.6847ZM122.542 27.3551V21.0909H125.568V32H122.663V30.0185H122.549C122.303 30.6577 121.893 31.1714 121.321 31.5597C120.752 31.9479 120.059 32.142 119.24 32.142C118.51 32.142 117.869 31.9763 117.315 31.6449C116.761 31.3134 116.328 30.8423 116.015 30.2315C115.707 29.6207 115.551 28.8892 115.546 28.0369V21.0909H118.572V27.4972C118.577 28.1411 118.75 28.6501 119.09 29.0241C119.431 29.3982 119.888 29.5852 120.461 29.5852C120.826 29.5852 121.167 29.5024 121.484 29.3366C121.801 29.1662 122.057 28.9152 122.251 28.5838C122.45 28.2524 122.547 27.8428 122.542 27.3551ZM127.988 32V21.0909H130.871V23.0156H130.999C131.226 22.3764 131.605 21.8722 132.136 21.5028C132.666 21.1335 133.3 20.9489 134.039 20.9489C134.787 20.9489 135.424 21.1359 135.949 21.5099C136.475 21.8793 136.825 22.3812 137.001 23.0156H137.114C137.337 22.3906 137.739 21.8911 138.322 21.517C138.909 21.1383 139.602 20.9489 140.403 20.9489C141.421 20.9489 142.247 21.2732 142.881 21.9219C143.521 22.5658 143.84 23.4796 143.84 24.6634V32H140.822V25.2599C140.822 24.6539 140.661 24.1993 140.339 23.8963C140.017 23.5933 139.614 23.4418 139.131 23.4418C138.582 23.4418 138.154 23.617 137.846 23.9673C137.538 24.313 137.384 24.7699 137.384 25.3381V32H134.451V25.196C134.451 24.661 134.297 24.2348 133.989 23.9176C133.686 23.6004 133.286 23.4418 132.789 23.4418C132.453 23.4418 132.15 23.527 131.88 23.6974C131.615 23.8632 131.404 24.0975 131.248 24.4006C131.092 24.6989 131.013 25.0492 131.013 25.4517V32H127.988Z" fill="#010125"/>
<path d="M32.6293 121.015V127.968C32.6293 128.614 32.7767 129.113 33.0713 129.464C33.3773 129.815 33.8363 129.991 34.4483 129.991C35.0603 129.991 35.5193 129.815 35.8253 129.464C36.1427 129.101 36.3013 128.603 36.3013 127.968V121.015H39.6333V127.968C39.6333 129.067 39.401 130.008 38.9363 130.79C38.4717 131.561 37.837 132.144 37.0323 132.541C36.239 132.926 35.355 133.119 34.3803 133.119C33.4057 133.119 32.533 132.926 31.7623 132.541C31.003 132.144 30.4023 131.561 29.9603 130.79C29.5297 130.019 29.3143 129.079 29.3143 127.968V121.015H32.6293ZM50.9369 125.01C50.9369 125.735 50.7669 126.398 50.4269 126.999C50.0982 127.588 49.5939 128.064 48.9139 128.427C48.2452 128.778 47.4236 128.954 46.4489 128.954H44.7999V133H41.4679V121.015H46.4489C47.4122 121.015 48.2282 121.185 48.8969 121.525C49.5769 121.865 50.0869 122.335 50.4269 122.936C50.7669 123.537 50.9369 124.228 50.9369 125.01ZM46.1259 126.302C47.0666 126.302 47.5369 125.871 47.5369 125.01C47.5369 124.137 47.0666 123.701 46.1259 123.701H44.7999V126.302H46.1259ZM59.9255 124.959C59.7328 124.642 59.4665 124.398 59.1265 124.228C58.7978 124.058 58.4068 123.973 57.9535 123.973C57.1148 123.973 56.4518 124.245 55.9645 124.789C55.4885 125.333 55.2505 126.064 55.2505 126.982C55.2505 128.013 55.5055 128.801 56.0155 129.345C56.5368 129.878 57.2905 130.144 58.2765 130.144C59.4438 130.144 60.2768 129.617 60.7755 128.563H57.4265V126.166H63.6485V129.396C63.3878 130.031 63.0025 130.626 62.4925 131.181C61.9938 131.736 61.3592 132.195 60.5885 132.558C59.8178 132.909 58.9395 133.085 57.9535 133.085C56.7522 133.085 55.6868 132.83 54.7575 132.32C53.8395 131.799 53.1255 131.079 52.6155 130.161C52.1168 129.232 51.8675 128.172 51.8675 126.982C51.8675 125.803 52.1168 124.755 52.6155 123.837C53.1255 122.908 53.8395 122.188 54.7575 121.678C55.6755 121.157 56.7352 120.896 57.9365 120.896C59.4438 120.896 60.6905 121.259 61.6765 121.984C62.6625 122.709 63.2745 123.701 63.5125 124.959H59.9255ZM71.2107 133L68.8307 128.58H68.4737V133H65.1417V121.015H70.3947C71.358 121.015 72.174 121.185 72.8427 121.525C73.5114 121.854 74.0157 122.313 74.3557 122.902C74.6957 123.48 74.8657 124.132 74.8657 124.857C74.8657 125.673 74.639 126.393 74.1857 127.016C73.7437 127.628 73.092 128.064 72.2307 128.325L74.9337 133H71.2107ZM68.4737 126.302H70.1227C70.576 126.302 70.916 126.194 71.1427 125.979C71.3694 125.764 71.4827 125.452 71.4827 125.044C71.4827 124.659 71.3637 124.358 71.1257 124.143C70.899 123.916 70.5647 123.803 70.1227 123.803H68.4737V126.302ZM83.963 131.045H79.713L79.067 133H75.565L79.934 121.015H83.776L88.128 133H84.609L83.963 131.045ZM83.13 128.495L81.838 124.619L80.563 128.495H83.13ZM93.957 121.015C95.215 121.015 96.3143 121.27 97.255 121.78C98.207 122.279 98.938 122.981 99.448 123.888C99.958 124.795 100.213 125.832 100.213 126.999C100.213 128.155 99.9523 129.186 99.431 130.093C98.921 131 98.19 131.714 97.238 132.235C96.2973 132.745 95.2036 133 93.957 133H89.214V121.015H93.957ZM93.702 130.059C94.6766 130.059 95.4416 129.793 95.997 129.26C96.5523 128.727 96.83 127.974 96.83 126.999C96.83 126.013 96.5523 125.254 95.997 124.721C95.4416 124.177 94.6766 123.905 93.702 123.905H92.546V130.059H93.702ZM105.047 123.684V125.639H108.872V128.172H105.047V130.331H109.382V133H101.715V121.015H109.382V123.684H105.047Z" fill="white"/>
<path d="M25.9148 64.8182H27.1477V71.5597C27.1477 72.2557 26.9837 72.8771 26.6555 73.424C26.3307 73.9676 25.8717 74.3968 25.2784 74.7116C24.6851 75.0232 23.9891 75.179 23.1903 75.179C22.3916 75.179 21.6955 75.0232 21.1023 74.7116C20.509 74.3968 20.0483 73.9676 19.7202 73.424C19.3954 72.8771 19.233 72.2557 19.233 71.5597V64.8182H20.4659V71.4602C20.4659 71.9574 20.5753 72.3999 20.794 72.7876C21.0128 73.1721 21.3243 73.4754 21.7287 73.6974C22.1364 73.9162 22.6236 74.0256 23.1903 74.0256C23.7571 74.0256 24.2443 73.9162 24.652 73.6974C25.0597 73.4754 25.3712 73.1721 25.5866 72.7876C25.8054 72.3999 25.9148 71.9574 25.9148 71.4602V64.8182ZM30.6241 70.4062V75H29.4508V67.3636H30.5843V68.5568H30.6838C30.8627 68.169 31.1345 67.8575 31.4991 67.6222C31.8637 67.3835 32.3343 67.2642 32.911 67.2642C33.4281 67.2642 33.8805 67.3703 34.2683 67.5824C34.6561 67.7912 34.9577 68.1094 35.1731 68.5369C35.3886 68.9612 35.4963 69.4981 35.4963 70.1477V75H34.323V70.2273C34.323 69.6274 34.1672 69.16 33.8556 68.8253C33.5441 68.4872 33.1165 68.3182 32.573 68.3182C32.1984 68.3182 31.8637 68.3994 31.5687 68.5618C31.277 68.7242 31.0467 68.9612 30.8777 69.2727C30.7086 69.5843 30.6241 69.9621 30.6241 70.4062ZM38.8136 64.8182V75H37.6403V64.8182H38.8136ZM44.0648 75.1591C43.3754 75.1591 42.7705 74.995 42.2502 74.6669C41.7331 74.3388 41.3288 73.8797 41.0371 73.2898C40.7488 72.6998 40.6046 72.0104 40.6046 71.2216C40.6046 70.4261 40.7488 69.7318 41.0371 69.1385C41.3288 68.5452 41.7331 68.0845 42.2502 67.7564C42.7705 67.4283 43.3754 67.2642 44.0648 67.2642C44.7542 67.2642 45.3574 67.4283 45.8745 67.7564C46.3948 68.0845 46.7992 68.5452 47.0875 69.1385C47.3792 69.7318 47.525 70.4261 47.525 71.2216C47.525 72.0104 47.3792 72.6998 47.0875 73.2898C46.7992 73.8797 46.3948 74.3388 45.8745 74.6669C45.3574 74.995 44.7542 75.1591 44.0648 75.1591ZM44.0648 74.1051C44.5885 74.1051 45.0194 73.9709 45.3574 73.7024C45.6955 73.4339 45.9457 73.081 46.1081 72.6435C46.2705 72.206 46.3517 71.732 46.3517 71.2216C46.3517 70.7112 46.2705 70.2356 46.1081 69.7947C45.9457 69.3539 45.6955 68.9976 45.3574 68.7259C45.0194 68.4541 44.5885 68.3182 44.0648 68.3182C43.5411 68.3182 43.1103 68.4541 42.7722 68.7259C42.4341 68.9976 42.1839 69.3539 42.0215 69.7947C41.8591 70.2356 41.7779 70.7112 41.7779 71.2216C41.7779 71.732 41.8591 72.206 42.0215 72.6435C42.1839 73.081 42.4341 73.4339 42.7722 73.7024C43.1103 73.9709 43.5411 74.1051 44.0648 74.1051ZM52.4183 75.1591C51.7024 75.1591 51.0859 74.9901 50.5689 74.652C50.0518 74.3139 49.6541 73.8482 49.3757 73.255C49.0973 72.6617 48.9581 71.9839 48.9581 71.2216C48.9581 70.446 49.1006 69.7616 49.3857 69.1683C49.674 68.5717 50.075 68.1061 50.5888 67.7713C51.1058 67.4332 51.709 67.2642 52.3984 67.2642C52.9354 67.2642 53.4193 67.3636 53.8501 67.5625C54.281 67.7614 54.634 68.0398 54.9091 68.3977C55.1842 68.7557 55.3549 69.1733 55.4212 69.6506H54.2479C54.1584 69.3026 53.9595 68.9943 53.6513 68.7259C53.3464 68.4541 52.9354 68.3182 52.4183 68.3182C51.9609 68.3182 51.5599 68.4375 51.2152 68.6761C50.8738 68.9115 50.607 69.2446 50.4148 69.6754C50.2259 70.103 50.1314 70.6051 50.1314 71.1818C50.1314 71.7718 50.2242 72.2855 50.4098 72.723C50.5987 73.1605 50.8639 73.5002 51.2053 73.7422C51.55 73.9841 51.9543 74.1051 52.4183 74.1051C52.7232 74.1051 53 74.0521 53.2486 73.946C53.4972 73.84 53.7076 73.6875 53.88 73.4886C54.0523 73.2898 54.175 73.0511 54.2479 72.7727H55.4212C55.3549 73.2235 55.1908 73.6295 54.929 73.9908C54.6705 74.3487 54.3274 74.6338 53.8999 74.8459C53.4756 75.0547 52.9818 75.1591 52.4183 75.1591ZM58.2301 72.2159L58.2102 70.7642H58.4489L61.7898 67.3636H63.2415L59.6818 70.9631H59.5824L58.2301 72.2159ZM57.1364 75V64.8182H58.3097V75H57.1364ZM61.9886 75L59.0057 71.2216L59.8409 70.4062L63.4801 75H61.9886ZM70.9363 75.179C70.4524 75.179 70.0132 75.0878 69.6188 74.9055C69.2244 74.7199 68.9112 74.4531 68.6792 74.1051C68.4471 73.7538 68.3311 73.3295 68.3311 72.8324C68.3311 72.3949 68.4173 72.0402 68.5897 71.7685C68.762 71.4934 68.9924 71.2779 69.2807 71.1222C69.5691 70.9664 69.8873 70.8504 70.2353 70.7741C70.5866 70.6946 70.9396 70.6316 71.2942 70.5852C71.7582 70.5256 72.1344 70.4808 72.4228 70.451C72.7144 70.4179 72.9266 70.3632 73.0591 70.2869C73.195 70.2107 73.263 70.0781 73.263 69.8892V69.8494C73.263 69.3589 73.1287 68.9777 72.8603 68.706C72.5951 68.4342 72.1924 68.2983 71.6522 68.2983C71.092 68.2983 70.6529 68.4209 70.3347 68.6662C70.0165 68.9115 69.7928 69.1733 69.6635 69.4517L68.5499 69.054C68.7488 68.59 69.0139 68.2287 69.3453 67.9702C69.6801 67.7083 70.0447 67.526 70.4391 67.4233C70.8368 67.3172 71.2279 67.2642 71.6124 67.2642C71.8577 67.2642 72.1394 67.294 72.4576 67.3537C72.7791 67.41 73.089 67.5277 73.3873 67.7067C73.6889 67.8857 73.9391 68.1558 74.138 68.517C74.3368 68.8783 74.4363 69.3622 74.4363 69.9688V75H73.263V73.9659H73.2033C73.1238 74.1316 72.9912 74.3089 72.8056 74.4979C72.62 74.6868 72.373 74.8475 72.0648 74.9801C71.7566 75.1127 71.3804 75.179 70.9363 75.179ZM71.1152 74.125C71.5792 74.125 71.9703 74.0339 72.2885 73.8516C72.61 73.6693 72.852 73.4339 73.0144 73.1456C73.1801 72.8572 73.263 72.554 73.263 72.2358V71.1619C73.2132 71.2216 73.1039 71.2763 72.9348 71.326C72.7691 71.3724 72.5769 71.4138 72.3581 71.4503C72.1427 71.4834 71.9322 71.5133 71.7267 71.5398C71.5246 71.563 71.3605 71.5829 71.2346 71.5994C70.9296 71.6392 70.6446 71.7038 70.3794 71.7933C70.1176 71.8795 69.9055 72.0104 69.7431 72.1861C69.584 72.3584 69.5044 72.5937 69.5044 72.892C69.5044 73.2997 69.6552 73.608 69.9569 73.8168C70.2618 74.0223 70.6479 74.125 71.1152 74.125ZM77.7511 64.8182V75H76.5778V64.8182H77.7511ZM81.0733 64.8182V75H79.9V64.8182H81.0733ZM90.4808 67.3636V68.358H86.5234V67.3636H90.4808ZM87.6768 65.5341H88.8501V72.8125C88.8501 73.1439 88.8982 73.3925 88.9943 73.5582C89.0938 73.7206 89.2197 73.83 89.3722 73.8864C89.5279 73.9394 89.692 73.9659 89.8643 73.9659C89.9936 73.9659 90.0997 73.9593 90.1825 73.946C90.2654 73.9295 90.3317 73.9162 90.3814 73.9062L90.62 74.9602C90.5405 74.9901 90.4295 75.0199 90.2869 75.0497C90.1444 75.0829 89.9638 75.0994 89.745 75.0994C89.4136 75.0994 89.0888 75.0282 88.7706 74.8857C88.4557 74.7431 88.1939 74.526 87.9851 74.2344C87.7796 73.9427 87.6768 73.5748 87.6768 73.1307V65.5341ZM93.5831 70.4062V75H92.4098V64.8182H93.5831V68.5568H93.6825C93.8615 68.1624 94.13 67.8492 94.4879 67.6172C94.8492 67.3819 95.3298 67.2642 95.9297 67.2642C96.45 67.2642 96.9058 67.3686 97.2969 67.5774C97.688 67.7829 97.9912 68.0994 98.2067 68.527C98.4254 68.9512 98.5348 69.4915 98.5348 70.1477V75H97.3615V70.2273C97.3615 69.6207 97.2041 69.1518 96.8892 68.8203C96.5777 68.4856 96.1451 68.3182 95.5916 68.3182C95.2071 68.3182 94.8625 68.3994 94.5575 68.5618C94.2559 68.7242 94.0173 68.9612 93.8416 69.2727C93.6693 69.5843 93.5831 69.9621 93.5831 70.4062ZM103.883 75.1591C103.147 75.1591 102.512 74.9967 101.979 74.6719C101.449 74.3438 101.039 73.8864 100.751 73.2997C100.466 72.7098 100.323 72.0237 100.323 71.2415C100.323 70.4593 100.466 69.7699 100.751 69.1733C101.039 68.5734 101.44 68.1061 101.954 67.7713C102.471 67.4332 103.074 67.2642 103.764 67.2642C104.161 67.2642 104.554 67.3305 104.942 67.4631C105.33 67.5956 105.683 67.8111 106.001 68.1094C106.319 68.4044 106.573 68.7955 106.762 69.2827C106.95 69.7699 107.045 70.3698 107.045 71.0824V71.5795H101.159V70.5653H105.852C105.852 70.1345 105.766 69.75 105.593 69.4119C105.424 69.0739 105.182 68.8071 104.867 68.6115C104.556 68.416 104.188 68.3182 103.764 68.3182C103.296 68.3182 102.892 68.4342 102.551 68.6662C102.213 68.8949 101.952 69.1932 101.77 69.5611C101.588 69.929 101.497 70.3234 101.497 70.7443V71.4205C101.497 71.9972 101.596 72.486 101.795 72.8871C101.997 73.2848 102.277 73.5881 102.635 73.7969C102.993 74.0024 103.409 74.1051 103.883 74.1051C104.191 74.1051 104.47 74.062 104.718 73.9759C104.97 73.8864 105.187 73.7538 105.369 73.5781C105.552 73.3991 105.693 73.1771 105.792 72.9119L106.926 73.2301C106.806 73.6146 106.606 73.9527 106.324 74.2443C106.042 74.5327 105.694 74.758 105.28 74.9205C104.866 75.0795 104.4 75.1591 103.883 75.1591ZM112.767 77.8636V67.3636H113.901V68.5767H114.04C114.126 68.4441 114.245 68.2751 114.398 68.0696C114.554 67.8608 114.776 67.6752 115.064 67.5128C115.356 67.3471 115.75 67.2642 116.247 67.2642C116.89 67.2642 117.457 67.425 117.948 67.7464C118.438 68.0679 118.821 68.5237 119.096 69.1136C119.371 69.7036 119.509 70.3996 119.509 71.2017C119.509 72.0104 119.371 72.7114 119.096 73.3047C118.821 73.8946 118.44 74.352 117.953 74.6768C117.465 74.9983 116.904 75.1591 116.267 75.1591C115.777 75.1591 115.384 75.0779 115.089 74.9155C114.794 74.7498 114.567 74.5625 114.408 74.3537C114.249 74.1416 114.126 73.9659 114.04 73.8267H113.941V77.8636H112.767ZM113.921 71.1818C113.921 71.7585 114.005 72.2673 114.174 72.7081C114.343 73.1456 114.59 73.4886 114.915 73.7372C115.24 73.9825 115.637 74.1051 116.108 74.1051C116.599 74.1051 117.008 73.9759 117.336 73.7173C117.668 73.4555 117.916 73.1042 118.082 72.6634C118.251 72.2192 118.335 71.7254 118.335 71.1818C118.335 70.6449 118.253 70.161 118.087 69.7301C117.924 69.2959 117.677 68.9529 117.346 68.701C117.018 68.4458 116.605 68.3182 116.108 68.3182C115.631 68.3182 115.23 68.4392 114.905 68.6811C114.58 68.9197 114.335 69.2545 114.169 69.6854C114.003 70.1129 113.921 70.6117 113.921 71.1818ZM124.401 75.1591C123.711 75.1591 123.106 74.995 122.586 74.6669C122.069 74.3388 121.665 73.8797 121.373 73.2898C121.085 72.6998 120.941 72.0104 120.941 71.2216C120.941 70.4261 121.085 69.7318 121.373 69.1385C121.665 68.5452 122.069 68.0845 122.586 67.7564C123.106 67.4283 123.711 67.2642 124.401 67.2642C125.09 67.2642 125.693 67.4283 126.21 67.7564C126.731 68.0845 127.135 68.5452 127.423 69.1385C127.715 69.7318 127.861 70.4261 127.861 71.2216C127.861 72.0104 127.715 72.6998 127.423 73.2898C127.135 73.8797 126.731 74.3388 126.21 74.6669C125.693 74.995 125.09 75.1591 124.401 75.1591ZM124.401 74.1051C124.924 74.1051 125.355 73.9709 125.693 73.7024C126.031 73.4339 126.282 73.081 126.444 72.6435C126.606 72.206 126.688 71.732 126.688 71.2216C126.688 70.7112 126.606 70.2356 126.444 69.7947C126.282 69.3539 126.031 68.9976 125.693 68.7259C125.355 68.4541 124.924 68.3182 124.401 68.3182C123.877 68.3182 123.446 68.4541 123.108 68.7259C122.77 68.9976 122.52 69.3539 122.357 69.7947C122.195 70.2356 122.114 70.7112 122.114 71.2216C122.114 71.732 122.195 72.206 122.357 72.6435C122.52 73.081 122.77 73.4339 123.108 73.7024C123.446 73.9709 123.877 74.1051 124.401 74.1051ZM131.122 75L128.796 67.3636H130.029L131.679 73.2102H131.759L133.389 67.3636H134.642L136.253 73.1903H136.333L137.983 67.3636H139.216L136.889 75H135.736L134.066 69.1335H133.946L132.276 75H131.122ZM143.709 75.1591C142.973 75.1591 142.339 74.9967 141.805 74.6719C141.275 74.3438 140.865 73.8864 140.577 73.2997C140.292 72.7098 140.15 72.0237 140.15 71.2415C140.15 70.4593 140.292 69.7699 140.577 69.1733C140.865 68.5734 141.266 68.1061 141.78 67.7713C142.297 67.4332 142.9 67.2642 143.59 67.2642C143.988 67.2642 144.38 67.3305 144.768 67.4631C145.156 67.5956 145.509 67.8111 145.827 68.1094C146.145 68.4044 146.399 68.7955 146.588 69.2827C146.777 69.7699 146.871 70.3698 146.871 71.0824V71.5795H140.985V70.5653H145.678C145.678 70.1345 145.592 69.75 145.419 69.4119C145.25 69.0739 145.008 68.8071 144.694 68.6115C144.382 68.416 144.014 68.3182 143.59 68.3182C143.123 68.3182 142.718 68.4342 142.377 68.6662C142.039 68.8949 141.779 69.1932 141.596 69.5611C141.414 69.929 141.323 70.3234 141.323 70.7443V71.4205C141.323 71.9972 141.422 72.486 141.621 72.8871C141.823 73.2848 142.103 73.5881 142.461 73.7969C142.819 74.0024 143.235 74.1051 143.709 74.1051C144.017 74.1051 144.296 74.062 144.544 73.9759C144.796 73.8864 145.013 73.7538 145.196 73.5781C145.378 73.3991 145.519 73.1771 145.618 72.9119L146.752 73.2301C146.632 73.6146 146.432 73.9527 146.15 74.2443C145.868 74.5327 145.52 74.758 145.106 74.9205C144.692 75.0795 144.226 75.1591 143.709 75.1591ZM148.656 75V67.3636H149.789V68.517H149.869C150.008 68.1392 150.26 67.8326 150.625 67.5973C150.989 67.362 151.4 67.2443 151.858 67.2443C151.944 67.2443 152.051 67.246 152.181 67.2493C152.31 67.2526 152.408 67.2576 152.474 67.2642V68.4574C152.434 68.4474 152.343 68.4325 152.201 68.4126C152.061 68.3894 151.914 68.3778 151.758 68.3778C151.387 68.3778 151.056 68.4557 150.764 68.6115C150.475 68.764 150.247 68.9761 150.078 69.2479C149.912 69.5163 149.829 69.8229 149.829 70.1676V75H148.656ZM160.905 75.1591C160.215 75.1591 159.61 74.995 159.09 74.6669C158.573 74.3388 158.169 73.8797 157.877 73.2898C157.589 72.6998 157.444 72.0104 157.444 71.2216C157.444 70.4261 157.589 69.7318 157.877 69.1385C158.169 68.5452 158.573 68.0845 159.09 67.7564C159.61 67.4283 160.215 67.2642 160.905 67.2642C161.594 67.2642 162.197 67.4283 162.714 67.7564C163.235 68.0845 163.639 68.5452 163.927 69.1385C164.219 69.7318 164.365 70.4261 164.365 71.2216C164.365 72.0104 164.219 72.6998 163.927 73.2898C163.639 73.8797 163.235 74.3388 162.714 74.6669C162.197 74.995 161.594 75.1591 160.905 75.1591ZM160.905 74.1051C161.428 74.1051 161.859 73.9709 162.197 73.7024C162.535 73.4339 162.786 73.081 162.948 72.6435C163.11 72.206 163.192 71.732 163.192 71.2216C163.192 70.7112 163.11 70.2356 162.948 69.7947C162.786 69.3539 162.535 68.9976 162.197 68.7259C161.859 68.4541 161.428 68.3182 160.905 68.3182C160.381 68.3182 159.95 68.4541 159.612 68.7259C159.274 68.9976 159.024 69.3539 158.861 69.7947C158.699 70.2356 158.618 70.7112 158.618 71.2216C158.618 71.732 158.699 72.206 158.861 72.6435C159.024 73.081 159.274 73.4339 159.612 73.7024C159.95 73.9709 160.381 74.1051 160.905 74.1051ZM169.556 67.3636V68.358H165.44V67.3636H169.556ZM166.673 75V66.3097C166.673 65.8722 166.776 65.5076 166.981 65.2159C167.187 64.9242 167.453 64.7055 167.782 64.5597C168.11 64.4138 168.456 64.3409 168.821 64.3409C169.109 64.3409 169.344 64.3641 169.527 64.4105C169.709 64.4569 169.845 64.5 169.934 64.5398L169.596 65.554C169.537 65.5341 169.454 65.5092 169.348 65.4794C169.245 65.4496 169.109 65.4347 168.94 65.4347C168.552 65.4347 168.272 65.5324 168.1 65.728C167.931 65.9235 167.846 66.2102 167.846 66.5881V75H166.673ZM178.459 67.3636V68.358H174.502V67.3636H178.459ZM175.655 65.5341H176.829V72.8125C176.829 73.1439 176.877 73.3925 176.973 73.5582C177.072 73.7206 177.198 73.83 177.351 73.8864C177.506 73.9394 177.671 73.9659 177.843 73.9659C177.972 73.9659 178.078 73.9593 178.161 73.946C178.244 73.9295 178.31 73.9162 178.36 73.9062L178.599 74.9602C178.519 74.9901 178.408 75.0199 178.265 75.0497C178.123 75.0829 177.942 75.0994 177.724 75.0994C177.392 75.0994 177.067 75.0282 176.749 74.8857C176.434 74.7431 176.172 74.526 175.964 74.2344C175.758 73.9427 175.655 73.5748 175.655 73.1307V65.5341ZM181.562 70.4062V75H180.388V64.8182H181.562V68.5568H181.661C181.84 68.1624 182.108 67.8492 182.466 67.6172C182.828 67.3819 183.308 67.2642 183.908 67.2642C184.429 67.2642 184.884 67.3686 185.275 67.5774C185.666 67.7829 185.97 68.0994 186.185 68.527C186.404 68.9512 186.513 69.4915 186.513 70.1477V75H185.34V70.2273C185.34 69.6207 185.183 69.1518 184.868 68.8203C184.556 68.4856 184.124 68.3182 183.57 68.3182C183.186 68.3182 182.841 68.3994 182.536 68.5618C182.234 68.7242 181.996 68.9612 181.82 69.2727C181.648 69.5843 181.562 69.9621 181.562 70.4062ZM188.66 75V67.3636H189.833V75H188.66ZM189.256 66.0909C189.028 66.0909 188.83 66.013 188.665 65.8572C188.502 65.7015 188.421 65.5142 188.421 65.2955C188.421 65.0767 188.502 64.8894 188.665 64.7337C188.83 64.5779 189.028 64.5 189.256 64.5C189.485 64.5 189.681 64.5779 189.843 64.7337C190.009 64.8894 190.092 65.0767 190.092 65.2955C190.092 65.5142 190.009 65.7015 189.843 65.8572C189.681 66.013 189.485 66.0909 189.256 66.0909ZM197.391 69.0739L196.337 69.3722C196.271 69.1965 196.173 69.0258 196.044 68.8601C195.918 68.6911 195.746 68.5518 195.527 68.4425C195.308 68.3331 195.028 68.2784 194.687 68.2784C194.219 68.2784 193.83 68.3861 193.518 68.6016C193.21 68.8137 193.056 69.0838 193.056 69.4119C193.056 69.7036 193.162 69.9339 193.374 70.103C193.586 70.272 193.918 70.4129 194.368 70.5256L195.502 70.804C196.185 70.9697 196.693 71.2232 197.028 71.5646C197.363 71.9027 197.53 72.3385 197.53 72.8722C197.53 73.3097 197.404 73.7008 197.153 74.0455C196.904 74.3902 196.556 74.6619 196.108 74.8608C195.661 75.0597 195.141 75.1591 194.547 75.1591C193.769 75.1591 193.124 74.9901 192.613 74.652C192.103 74.3139 191.78 73.8201 191.644 73.1705L192.758 72.892C192.864 73.303 193.064 73.6113 193.359 73.8168C193.657 74.0223 194.047 74.125 194.528 74.125C195.074 74.125 195.509 74.009 195.83 73.777C196.155 73.5417 196.317 73.2599 196.317 72.9318C196.317 72.6667 196.224 72.4446 196.039 72.2656C195.853 72.0833 195.568 71.9474 195.184 71.858L193.911 71.5597C193.212 71.3939 192.698 71.1371 192.37 70.7891C192.045 70.4377 191.883 69.9986 191.883 69.4716C191.883 69.0407 192.004 68.6596 192.246 68.3281C192.491 67.9967 192.824 67.7365 193.245 67.5476C193.669 67.3587 194.15 67.2642 194.687 67.2642C195.442 67.2642 196.036 67.4299 196.466 67.7614C196.901 68.0928 197.209 68.5303 197.391 69.0739ZM19.6506 91H18.358L22.0966 80.8182H23.3693L27.108 91H25.8153L22.7727 82.429H22.6932L19.6506 91ZM20.1278 87.0227H25.3381V88.1165H20.1278V87.0227ZM29.9268 80.8182V91H28.6939V80.8182H29.9268ZM44.5297 84H43.2967C43.2238 83.6454 43.0962 83.3338 42.9139 83.0653C42.7349 82.7969 42.5162 82.5715 42.2576 82.3892C42.0024 82.2036 41.719 82.0644 41.4075 81.9716C41.0959 81.8788 40.7711 81.8324 40.4331 81.8324C39.8166 81.8324 39.2581 81.9882 38.7576 82.2997C38.2605 82.6113 37.8644 83.0703 37.5694 83.6768C37.2778 84.2834 37.1319 85.0275 37.1319 85.9091C37.1319 86.7907 37.2778 87.5348 37.5694 88.1413C37.8644 88.7479 38.2605 89.2069 38.7576 89.5185C39.2581 89.83 39.8166 89.9858 40.4331 89.9858C40.7711 89.9858 41.0959 89.9394 41.4075 89.8466C41.719 89.7538 42.0024 89.6162 42.2576 89.4339C42.5162 89.2483 42.7349 89.0213 42.9139 88.7528C43.0962 88.4811 43.2238 88.1695 43.2967 87.8182H44.5297C44.4368 88.3385 44.2678 88.8042 44.0225 89.2152C43.7773 89.6262 43.4724 89.9759 43.1078 90.2642C42.7432 90.5492 42.3339 90.7663 41.8798 90.9155C41.429 91.0646 40.9468 91.1392 40.4331 91.1392C39.5647 91.1392 38.7924 90.9271 38.1163 90.5028C37.4402 90.0786 36.9082 89.4754 36.5204 88.6932C36.1326 87.911 35.9387 86.983 35.9387 85.9091C35.9387 84.8352 36.1326 83.9072 36.5204 83.125C36.9082 82.3428 37.4402 81.7396 38.1163 81.3153C38.7924 80.8911 39.5647 80.679 40.4331 80.679C40.9468 80.679 41.429 80.7536 41.8798 80.9027C42.3339 81.0518 42.7432 81.2706 43.1078 81.5589C43.4724 81.844 43.7773 82.192 44.0225 82.603C44.2678 83.0107 44.4368 83.4763 44.5297 84ZM47.5362 86.4062V91H46.3629V80.8182H47.5362V84.5568H47.6357C47.8146 84.1624 48.0831 83.8492 48.4411 83.6172C48.8023 83.3819 49.2829 83.2642 49.8828 83.2642C50.4032 83.2642 50.8589 83.3686 51.25 83.5774C51.6411 83.7829 51.9444 84.0994 52.1598 84.527C52.3786 84.9512 52.4879 85.4915 52.4879 86.1477V91H51.3146V86.2273C51.3146 85.6207 51.1572 85.1518 50.8423 84.8203C50.5308 84.4856 50.0982 84.3182 49.5447 84.3182C49.1603 84.3182 48.8156 84.3994 48.5107 84.5618C48.209 84.7242 47.9704 84.9612 47.7947 85.2727C47.6224 85.5843 47.5362 85.9621 47.5362 86.4062ZM56.8816 91.179C56.3977 91.179 55.9585 91.0878 55.5641 90.9055C55.1697 90.7199 54.8565 90.4531 54.6245 90.1051C54.3925 89.7538 54.2765 89.3295 54.2765 88.8324C54.2765 88.3949 54.3626 88.0402 54.535 87.7685C54.7073 87.4934 54.9377 87.2779 55.226 87.1222C55.5144 86.9664 55.8326 86.8504 56.1806 86.7741C56.5319 86.6946 56.8849 86.6316 57.2395 86.5852C57.7035 86.5256 58.0797 86.4808 58.3681 86.451C58.6597 86.4179 58.8719 86.3632 59.0044 86.2869C59.1403 86.2107 59.2083 86.0781 59.2083 85.8892V85.8494C59.2083 85.3589 59.074 84.9777 58.8056 84.706C58.5404 84.4342 58.1377 84.2983 57.5975 84.2983C57.0373 84.2983 56.5982 84.4209 56.28 84.6662C55.9618 84.9115 55.7381 85.1733 55.6088 85.4517L54.4952 85.054C54.6941 84.59 54.9592 84.2287 55.2907 83.9702C55.6254 83.7083 55.99 83.526 56.3844 83.4233C56.7821 83.3172 57.1732 83.2642 57.5577 83.2642C57.803 83.2642 58.0847 83.294 58.4029 83.3537C58.7244 83.41 59.0343 83.5277 59.3326 83.7067C59.6342 83.8857 59.8844 84.1558 60.0833 84.517C60.2821 84.8783 60.3816 85.3622 60.3816 85.9688V91H59.2083V89.9659H59.1486C59.0691 90.1316 58.9365 90.3089 58.7509 90.4979C58.5653 90.6868 58.3184 90.8475 58.0101 90.9801C57.7019 91.1127 57.3257 91.179 56.8816 91.179ZM57.0605 90.125C57.5246 90.125 57.9157 90.0339 58.2338 89.8516C58.5553 89.6693 58.7973 89.4339 58.9597 89.1456C59.1254 88.8572 59.2083 88.554 59.2083 88.2358V87.1619C59.1586 87.2216 59.0492 87.2763 58.8801 87.326C58.7144 87.3724 58.5222 87.4138 58.3034 87.4503C58.088 87.4834 57.8775 87.5133 57.6721 87.5398C57.4699 87.563 57.3058 87.5829 57.1799 87.5994C56.8749 87.6392 56.5899 87.7038 56.3248 87.7933C56.0629 87.8795 55.8508 88.0104 55.6884 88.1861C55.5293 88.3584 55.4498 88.5937 55.4498 88.892C55.4498 89.2997 55.6006 89.608 55.9022 89.8168C56.2071 90.0223 56.5932 90.125 57.0605 90.125ZM65.8441 83.3636V84.358H61.8867V83.3636H65.8441ZM63.0401 81.5341H64.2134V88.8125C64.2134 89.1439 64.2615 89.3925 64.3576 89.5582C64.457 89.7206 64.583 89.83 64.7354 89.8864C64.8912 89.9394 65.0553 89.9659 65.2276 89.9659C65.3569 89.9659 65.463 89.9593 65.5458 89.946C65.6287 89.9295 65.695 89.9162 65.7447 89.9062L65.9833 90.9602C65.9038 90.9901 65.7927 91.0199 65.6502 91.0497C65.5077 91.0829 65.3271 91.0994 65.1083 91.0994C64.7769 91.0994 64.4521 91.0282 64.1339 90.8857C63.819 90.7431 63.5572 90.526 63.3484 90.2344C63.1429 89.9427 63.0401 89.5748 63.0401 89.1307V81.5341ZM71.7056 91V80.8182H75.2653C75.9746 80.8182 76.5595 80.9408 77.0202 81.1861C77.4809 81.428 77.824 81.7545 78.0494 82.1655C78.2747 82.5732 78.3874 83.0256 78.3874 83.5227C78.3874 83.9602 78.3095 84.3215 78.1538 84.6065C78.0013 84.8916 77.7991 85.117 77.5472 85.2827C77.2987 85.4484 77.0285 85.571 76.7369 85.6506V85.75C77.0484 85.7699 77.3616 85.8793 77.6765 86.0781C77.9914 86.277 78.2549 86.562 78.467 86.9332C78.6791 87.3045 78.7852 87.7585 78.7852 88.2955C78.7852 88.8059 78.6692 89.2649 78.4371 89.6726C78.2051 90.0803 77.8389 90.4034 77.3384 90.642C76.8379 90.8807 76.1867 91 75.3846 91H71.7056ZM72.9386 89.9062H75.3846C76.19 89.9062 76.7617 89.7505 77.0998 89.4389C77.4412 89.1241 77.6119 88.7429 77.6119 88.2955C77.6119 87.9508 77.524 87.6326 77.3484 87.3409C77.1727 87.0459 76.9225 86.8106 76.5977 86.6349C76.2728 86.456 75.8884 86.3665 75.4442 86.3665H72.9386V89.9062ZM72.9386 85.2926H75.2255C75.5967 85.2926 75.9315 85.2197 76.2298 85.0739C76.5314 84.928 76.77 84.7225 76.9457 84.4574C77.1246 84.1922 77.2141 83.8807 77.2141 83.5227C77.2141 83.0753 77.0584 82.6958 76.7468 82.3842C76.4353 82.0694 75.9414 81.9119 75.2653 81.9119H72.9386V85.2926ZM83.7543 91.1591C83.0649 91.1591 82.46 90.995 81.9396 90.6669C81.4226 90.3388 81.0182 89.8797 80.7266 89.2898C80.4382 88.6998 80.294 88.0104 80.294 87.2216C80.294 86.4261 80.4382 85.7318 80.7266 85.1385C81.0182 84.5452 81.4226 84.0845 81.9396 83.7564C82.46 83.4283 83.0649 83.2642 83.7543 83.2642C84.4437 83.2642 85.0469 83.4283 85.5639 83.7564C86.0843 84.0845 86.4886 84.5452 86.777 85.1385C87.0687 85.7318 87.2145 86.4261 87.2145 87.2216C87.2145 88.0104 87.0687 88.6998 86.777 89.2898C86.4886 89.8797 86.0843 90.3388 85.5639 90.6669C85.0469 90.995 84.4437 91.1591 83.7543 91.1591ZM83.7543 90.1051C84.2779 90.1051 84.7088 89.9709 85.0469 89.7024C85.3849 89.4339 85.6352 89.081 85.7976 88.6435C85.96 88.206 86.0412 87.732 86.0412 87.2216C86.0412 86.7112 85.96 86.2356 85.7976 85.7947C85.6352 85.3539 85.3849 84.9976 85.0469 84.7259C84.7088 84.4541 84.2779 84.3182 83.7543 84.3182C83.2306 84.3182 82.7997 84.4541 82.4616 84.7259C82.1236 84.9976 81.8733 85.3539 81.7109 85.7947C81.5485 86.2356 81.4673 86.7112 81.4673 87.2216C81.4673 87.732 81.5485 88.206 81.7109 88.6435C81.8733 89.081 82.1236 89.4339 82.4616 89.7024C82.7997 89.9709 83.2306 90.1051 83.7543 90.1051ZM92.3265 83.3636V84.358H88.3691V83.3636H92.3265ZM89.5225 81.5341H90.6958V88.8125C90.6958 89.1439 90.7439 89.3925 90.84 89.5582C90.9395 89.7206 91.0654 89.83 91.2179 89.8864C91.3736 89.9394 91.5377 89.9659 91.71 89.9659C91.8393 89.9659 91.9454 89.9593 92.0282 89.946C92.1111 89.9295 92.1774 89.9162 92.2271 89.9062L92.4657 90.9602C92.3862 90.9901 92.2752 91.0199 92.1326 91.0497C91.9901 91.0829 91.8095 91.0994 91.5907 91.0994C91.2593 91.0994 90.9345 91.0282 90.6163 90.8857C90.3014 90.7431 90.0396 90.526 89.8308 90.2344C89.6253 89.9427 89.5225 89.5748 89.5225 89.1307V81.5341Z" fill="#827878"/>
<path d="M231.868 88.9369L229 90.1526C228.999 90.5225 229.072 90.8889 229.214 91.2307C229.355 91.5725 229.563 91.8829 229.825 92.144L275.02 137.181C275.547 137.707 276.453 137.995 276.985 137.997C277.526 138 278.45 137.715 278.986 137.18L324.174 92.1151C324.435 91.8544 324.643 91.5446 324.784 91.2035C324.925 90.8625 324.998 90.4969 324.998 90.1277L322.505 88.9371H292.512L275.688 94.3679L261.459 88.9371L231.868 88.9369Z" fill="#FFB739"/>
<path d="M324.997 90.1279C324.997 90.8525 324.718 91.5718 324.173 92.1147L278.986 137.18C278.454 137.712 277.538 137.997 276.999 137.997V93.9443L292.512 88.9369H322.505L324.997 90.1279Z" fill="#FF9441"/>
<path d="M261.459 88.9369L276.999 137.997L292.512 88.9369H261.459Z" fill="#FF9441"/>
<path d="M292.512 88.9369L276.999 137.997V88.9369H292.512Z" fill="#FF7149"/>
<path d="M324.526 88.5667L309.484 66.0292C309.277 65.7194 309.01 65.454 308.699 65.2485L307.336 65.9032L279.601 66.0761L276.999 64.7795L274.896 66.1053L247.224 66.2778L245.293 65.2513C244.983 65.4567 244.717 65.7217 244.511 66.0307L229.47 88.5965C229.163 89.0573 228.999 89.5989 229 90.1527L324.998 90.1274C324.999 89.5719 324.835 89.0287 324.526 88.5667Z" fill="#FFD17E"/>
<path d="M324.997 90.1279C321.51 90.1279 299.24 90.1354 276.999 90.1411V64.7795L279.602 66.0753L307.336 65.903L308.699 65.2475C309.01 65.4537 309.276 65.7191 309.484 66.0284L324.527 88.5659C324.836 89.0282 324.999 89.5721 324.997 90.1279ZM246.848 64.7795C246.287 64.7795 245.748 64.9485 245.293 65.2509L261.953 90.1441H261.955L276.998 64.7795H246.848Z" fill="#FFB739"/>
<path d="M292.048 90.1361L308.699 65.248C308.239 64.9428 307.7 64.7799 307.148 64.7797H276.998L292.036 90.1363H292.048V90.1361Z" fill="#FF9441"/>
<path d="M260.204 109.746C255.502 109.746 251.677 105.921 251.677 101.219C251.677 99.666 250.418 98.4068 248.865 98.4068C247.312 98.4068 246.052 99.666 246.052 101.219C246.052 105.897 242.251 109.746 237.526 109.746C235.973 109.746 234.714 111.005 234.714 112.558C234.714 114.111 235.973 115.37 237.526 115.37C242.227 115.37 246.052 119.195 246.052 123.897C246.052 125.45 247.312 126.709 248.865 126.709C250.418 126.709 251.677 125.45 251.677 123.897C251.677 119.219 255.479 115.37 260.204 115.37C261.757 115.37 263.016 114.111 263.016 112.558C263.016 111.005 261.757 109.746 260.204 109.746Z" fill="#FFD17E"/>
<path d="M303.31 53.3388C298.608 53.3388 294.784 49.5139 294.784 44.8124C294.784 43.2592 293.524 42 291.971 42C290.418 42 289.159 43.2592 289.159 44.8124C289.159 49.5139 285.334 53.3388 280.632 53.3388C279.079 53.3388 277.82 54.598 277.82 56.1512C277.82 57.7044 279.079 58.9636 280.632 58.9636C285.334 58.9636 289.159 62.7885 289.159 67.49C289.159 69.0432 290.418 70.3024 291.971 70.3024C293.524 70.3024 294.784 69.0432 294.784 67.49C294.784 62.7885 298.608 58.9636 303.31 58.9636C304.863 58.9636 306.122 57.7044 306.122 56.1512C306.122 54.598 304.863 53.3388 303.31 53.3388Z" fill="#FFB739"/>
<defs>
<filter id="filter0_d_6004_713" x="9.95917" y="107" width="117.714" height="48" filterUnits="userSpaceOnUse" color-interpolation-filters="sRGB">
<feFlood flood-opacity="0" result="BackgroundImageFix"/>
<feColorMatrix in="SourceAlpha" type="matrix" values="0 0 0 0 0 0 0 0 0 0 0 0 0 0 0 0 0 0 127 0" result="hardAlpha"/>
<feOffset dy="4"/>
<feGaussianBlur stdDeviation="2"/>
<feComposite in2="hardAlpha" operator="out"/>
<feColorMatrix type="matrix" values="0 0 0 0 0 0 0 0 0 0 0 0 0 0 0 0 0 0 0.25 0"/>
<feBlend mode="normal" in2="BackgroundImageFix" result="effect1_dropShadow_6004_713"/>
<feBlend mode="normal" in="SourceGraphic" in2="effect1_dropShadow_6004_713" result="shape"/>
</filter>
</defs>
</svg>
