<svg width="34" height="40" viewBox="0 0 34 40" fill="none" xmlns="http://www.w3.org/2000/svg">
<path d="M32.7336 23.276C31.2254 29.8175 25.9061 36.5108 16.8099 39.0588C7.71378 36.5108 2.39441 29.8177 0.886282 23.276C-0.584725 16.8957 -0.129885 10.1688 1.55276 3.83701C6.94593 4.64367 12.735 3.19995 16.8099 0C20.8848 3.19995 26.6739 4.64367 32.0673 3.83701C33.75 10.1688 34.2048 16.8957 32.7336 23.276Z" fill="#8043CD"/>
<path d="M32.7337 23.2758C31.2256 29.8173 25.9062 36.5106 16.8101 39.0586V-0.000183105C20.885 3.19977 26.6741 4.64349 32.0675 3.83682C33.7501 10.1686 34.2049 16.8955 32.7337 23.2758Z" fill="#E18AFF"/>
<path d="M30.8949 22.8514C30.5485 24.3536 29.9872 25.8327 29.2267 27.2484C28.4292 28.7324 27.4266 30.118 26.2469 31.3663C24.9935 32.6923 23.5474 33.8542 21.9488 34.8198C20.3788 35.7682 18.6502 36.5322 16.8104 37.0909C14.9708 36.5324 13.2419 35.7682 11.6719 34.82C10.0731 33.8544 8.627 32.6923 7.37385 31.3663C6.19407 30.118 5.19146 28.7324 4.39405 27.2484C3.63331 25.8329 3.07199 24.3536 2.72585 22.8514C2.05493 19.943 1.78483 16.837 1.92266 13.6194C2.03025 11.1037 2.38883 8.50454 2.98795 5.89289C3.50326 5.92872 4.02479 5.94675 4.53921 5.94675C6.97615 5.94675 9.38196 5.56234 11.6895 4.80464C13.5491 4.19386 15.2718 3.36226 16.8101 2.33234C18.3485 3.36226 20.0709 4.19408 21.9308 4.80464C24.2385 5.56234 26.6441 5.94675 29.081 5.94675C29.5955 5.94675 30.1168 5.92872 30.6323 5.89289C31.2316 8.50454 31.59 11.1037 31.6978 13.6194C31.8354 16.8367 31.5656 19.9428 30.8949 22.8514Z" fill="#10B3C2"/>
<path d="M30.8948 22.8514C30.5484 24.3536 29.9871 25.8327 29.2266 27.2484C28.4292 28.7324 27.4266 30.118 26.2468 31.3663C24.9934 32.6923 23.5473 33.8542 21.9487 34.8198C20.3788 35.7682 18.6501 36.5322 16.8103 37.0909V2.33234C18.3487 3.36226 20.0711 4.19408 21.9309 4.80464C24.2387 5.56234 26.6443 5.94675 29.0812 5.94675C29.5956 5.94675 30.117 5.92872 30.6325 5.89289C31.2318 8.50454 31.5902 11.1037 31.698 13.6194C31.8354 16.8367 31.5655 19.9428 30.8948 22.8514Z" fill="#10B3C2"/>
<path d="M21.6369 18.0445C20.4018 16.8076 18.6951 16.0425 16.8102 16.0425C14.9252 16.0425 13.2188 16.8076 11.9834 18.0445C10.7481 19.2812 9.98401 20.9898 9.98401 22.8774C9.98401 26.6521 13.0403 29.7122 16.8102 29.7122C18.6951 29.7122 20.4018 28.947 21.6369 27.7103C22.8723 26.4736 23.6363 24.7647 23.6363 22.8774C23.6361 20.9898 22.8723 19.2812 21.6369 18.0445ZM17.6578 23.5267L17.8901 24.9588C17.9266 25.1832 17.7536 25.3866 17.5267 25.3866H16.0937C15.8656 25.3866 15.6922 25.181 15.7307 24.9559L15.9727 23.5329C15.463 23.2413 15.1193 22.6918 15.1193 22.0616C15.1193 21.1265 15.876 20.3684 16.8102 20.3684C17.7443 20.3684 18.501 21.1265 18.501 22.0616C18.5008 22.6873 18.162 23.2335 17.6578 23.5267Z" fill="white"/>
<path d="M20.4459 12.0984C20.4459 12.4955 20.1244 12.8174 19.7278 12.8174C19.3312 12.8174 19.0098 12.4955 19.0098 12.0984C19.0098 10.8839 18.0229 9.89608 16.81 9.89608C15.5971 9.89608 14.6103 10.8839 14.6103 12.0984V15.0551C14.1079 15.2064 13.6273 15.4085 13.1742 15.6554V12.0984C13.1742 10.0911 14.805 8.45837 16.8098 8.45837C18.8146 8.45837 20.4459 10.0911 20.4459 12.0984Z" fill="white"/>
</svg>
