<svg width="30" height="28" viewBox="0 0 30 28" fill="none" xmlns="http://www.w3.org/2000/svg">
<path d="M25.8193 22.5352L25.8193 27.1753C25.8193 27.2149 25.8115 27.2541 25.7964 27.2908C25.7812 27.3274 25.759 27.3607 25.731 27.3887C25.7029 27.4167 25.6696 27.439 25.633 27.4541C25.5964 27.4693 25.5572 27.4771 25.5175 27.4771L4.48234 27.4771C4.4427 27.4771 4.40346 27.4693 4.36683 27.4541C4.33021 27.4389 4.29694 27.4167 4.26891 27.3887C4.24088 27.3607 4.21865 27.3274 4.20348 27.2908C4.18832 27.2541 4.18052 27.2149 4.18053 27.1753L4.18053 22.5352L25.8193 22.5352Z" fill="#FE9901"/>
<path d="M23.0281 27.1753L23.0281 22.5937L25.8193 22.5938L25.8193 27.1753C25.8193 27.2149 25.8115 27.2541 25.7964 27.2908C25.7812 27.3274 25.759 27.3607 25.731 27.3887C25.7029 27.4167 25.6696 27.439 25.633 27.4541C25.5964 27.4693 25.5572 27.4771 25.5175 27.4771L22.7263 27.4771C22.7659 27.4771 22.8052 27.4693 22.8418 27.4541C22.8784 27.439 22.9117 27.4167 22.9397 27.3887C22.9677 27.3607 22.99 27.3274 23.0051 27.2908C23.0203 27.2541 23.0281 27.2149 23.0281 27.1753Z" fill="#FB8801"/>
<path d="M23.1183 8.42326C23.0394 8.4556 22.9965 8.54139 23.0133 8.625L23.9868 13.4397L19.6793 16.628L17.913 12.2511L21.4731 8.21736C21.5302 8.15273 21.5362 8.05576 21.4833 7.98767C21.1992 7.62223 21.0993 7.12113 21.2746 6.64213C21.5009 6.02414 22.1435 5.64304 22.794 5.74254C23.634 5.87103 24.1539 6.69234 23.9402 7.48992C23.8226 7.92902 23.5088 8.26307 23.1183 8.42326Z" fill="#FEE45A"/>
<path d="M23.1184 8.42338C23.0395 8.45572 22.9965 8.54151 23.0134 8.62512L23.974 13.3764L23.148 13.9878L21.9872 8.24649C21.9703 8.16287 22.0133 8.07709 22.0922 8.04475C22.4826 7.88461 22.7964 7.55051 22.9141 7.11147C23.0521 6.59625 22.8837 6.07143 22.521 5.72953C22.6122 5.72475 22.7037 5.72915 22.794 5.74266C23.634 5.87115 24.1539 6.69246 23.9402 7.49004C23.8226 7.92914 23.5088 8.26319 23.1184 8.42338ZM8.52673 8.21619L12.0879 12.2512L10.3217 16.628L6.01416 13.4398L6.98729 8.62693C7.00434 8.54256 6.96127 8.45566 6.88164 8.42291C6.46868 8.25316 6.14161 7.88871 6.042 7.41129C5.89873 6.72434 6.29993 6.02437 6.96514 5.80113C7.738 5.5418 8.55755 5.98986 8.76532 6.76529C8.88344 7.20609 8.77739 7.6541 8.51718 7.98844C8.46462 8.056 8.47018 8.15209 8.52673 8.21619Z" fill="#FEDF30"/>
<path d="M8.52615 8.21613L12.0439 12.202L11.6239 13.2428L7.36869 8.42133C7.31209 8.35723 7.30658 8.26108 7.35914 8.19363C7.61941 7.8593 7.72541 7.41129 7.60728 6.97049C7.47275 6.46834 7.08146 6.10377 6.61259 5.97937C6.72069 5.90331 6.83923 5.84327 6.96451 5.80113C7.73736 5.5418 8.55691 5.98986 8.76468 6.76529C8.88281 7.20609 8.77676 7.6541 8.51654 7.98844C8.46404 8.05594 8.46961 8.15203 8.52615 8.21613ZM1.54956 8.68488C2.19737 8.75203 2.72138 9.27399 2.79151 9.92151C2.81864 10.1719 2.77933 10.4107 2.68933 10.6227C2.6353 10.7499 2.67755 10.8976 2.78864 10.9798L10.3438 16.5718L7.91367 22.5938L4.1806 22.5938L1.78757 11.711C1.77218 11.6411 1.73241 11.579 1.67538 11.5357C1.61835 11.4925 1.54778 11.4709 1.47632 11.4749C1.38703 11.4798 1.29748 11.4761 1.2089 11.4639C0.561434 11.3751 0.0522542 10.8356 0.00391444 10.1839C-0.0607732 9.31242 0.673115 8.59401 1.54956 8.68488Z" fill="#FED402"/>
<path d="M1.54939 8.68476C2.1972 8.75191 2.7212 9.27387 2.79134 9.92139C2.81847 10.1719 2.77915 10.4106 2.68915 10.6226C2.63513 10.7498 2.67737 10.8975 2.78847 10.9797L10.2949 16.5357L9.95467 17.3789L1.90435 11.4202C1.79325 11.338 1.75107 11.1904 1.80503 11.0631C1.89503 10.8511 1.93435 10.6124 1.90722 10.3619C1.83708 9.71437 1.31308 9.19248 0.665264 9.12527C0.565655 9.11496 0.468038 9.11555 0.373116 9.12516C0.659874 8.81607 1.08456 8.6366 1.54939 8.68476Z" fill="#FAC600"/>
<path d="M22.0863 22.5937L19.6562 16.5718L27.2114 10.9797C27.3224 10.8975 27.3646 10.7498 27.3107 10.6226C27.2207 10.4106 27.1814 10.1719 27.2085 9.92144C27.2786 9.27386 27.8027 8.75191 28.4506 8.68476C29.3272 8.59394 30.0612 9.31277 29.996 10.1846C29.9473 10.8363 29.438 11.3753 28.7906 11.4639C28.6998 11.4763 28.6107 11.4796 28.5237 11.4749C28.4522 11.4708 28.3816 11.4924 28.3246 11.5356C28.2676 11.5789 28.2278 11.641 28.2124 11.711L25.8194 22.5937L22.0863 22.5937Z" fill="#FED402"/>
<path d="M27.4668 11.038C27.4822 10.9681 27.5219 10.9059 27.579 10.8627C27.636 10.8194 27.7066 10.7979 27.778 10.8019C27.8671 10.8067 27.9565 10.8031 28.0449 10.7909C28.6923 10.7023 29.2016 10.1632 29.2503 9.51166C29.2701 9.25575 29.2191 8.99933 29.1028 8.77051C29.6588 8.98467 30.044 9.54295 29.996 10.1846C29.9473 10.8362 29.4379 11.3753 28.7906 11.4639C28.6998 11.4764 28.6107 11.4797 28.5237 11.4749C28.4522 11.4709 28.3816 11.4924 28.3246 11.5357C28.2676 11.5789 28.2278 11.6411 28.2124 11.711L25.8194 22.5937L24.8378 22.5937L27.4668 11.038Z" fill="#FAC600"/>
<path d="M7.8503 22.5937L14.0626 7.1996C14.0847 7.14468 14.0903 7.08446 14.0785 7.02642C14.0666 6.96839 14.038 6.91512 13.9961 6.87323L12.68 5.55704C12.6519 5.52902 12.6297 5.49575 12.6145 5.45914C12.5994 5.42252 12.5915 5.38327 12.5915 5.34364C12.5915 5.30401 12.5994 5.26476 12.6145 5.22815C12.6297 5.19153 12.6519 5.15826 12.68 5.13024L14.7865 3.02374C14.8145 2.9957 14.8478 2.97346 14.8844 2.95829C14.921 2.94311 14.9602 2.9353 14.9999 2.9353C15.0395 2.9353 15.0788 2.94311 15.1154 2.95829C15.152 2.97346 15.1853 2.9957 15.2133 3.02374L17.3198 5.13024C17.3478 5.15827 17.3701 5.19153 17.3853 5.22815C17.4004 5.26476 17.4082 5.30401 17.4082 5.34364C17.4082 5.38328 17.4004 5.42252 17.3853 5.45914C17.3701 5.49575 17.3478 5.52902 17.3198 5.55704L16.0036 6.87323C15.9617 6.91511 15.9331 6.96838 15.9213 7.02642C15.9095 7.08445 15.915 7.14468 15.9372 7.1996L22.1494 22.5937L7.8503 22.5937Z" fill="#FEE45A"/>
<path d="M14.5817 6.87326L15.8979 5.55707C15.926 5.52905 15.9482 5.49578 15.9634 5.45915C15.9785 5.42253 15.9864 5.38328 15.9864 5.34364C15.9864 5.304 15.9785 5.26475 15.9634 5.22813C15.9482 5.19151 15.926 5.15824 15.8979 5.13021L14.2889 3.52123L14.7865 3.02371C14.8145 2.99568 14.8477 2.97345 14.8844 2.95828C14.921 2.94311 14.9602 2.9353 14.9999 2.9353C15.0395 2.9353 15.0787 2.94311 15.1154 2.95828C15.152 2.97345 15.1852 2.99568 15.2133 3.02371L17.3198 5.13021C17.3478 5.15824 17.37 5.19151 17.3852 5.22813C17.4004 5.26475 17.4082 5.304 17.4082 5.34364C17.4082 5.38328 17.4004 5.42253 17.3852 5.45915C17.37 5.49578 17.3478 5.52905 17.3198 5.55707L16.0036 6.87326C15.9617 6.91514 15.9331 6.96841 15.9212 7.02645C15.9094 7.08448 15.9149 7.14471 15.9371 7.19963L22.1494 22.5937L20.7275 22.5937L14.5153 7.19957C14.4931 7.14466 14.4876 7.08444 14.4994 7.02642C14.5112 6.96839 14.5398 6.91513 14.5817 6.87326Z" fill="#FEDF30"/>
<path d="M15.1703 14.2564L16.9232 16.6878C16.9488 16.7233 16.9626 16.7658 16.9629 16.8095C16.9631 16.8532 16.9497 16.8959 16.9246 16.9316L15.1717 19.4196C15.088 19.5383 14.912 19.5383 14.8284 19.4196L13.0755 16.9316C13.0239 16.8584 13.0245 16.7605 13.0768 16.6878L14.8297 14.2564C14.9135 14.1401 15.0865 14.1401 15.1703 14.2564Z" fill="#925CB4"/>
<path d="M15.4579 16.9313C15.483 16.8956 15.4964 16.8529 15.4962 16.8093C15.4959 16.7656 15.4821 16.723 15.4565 16.6876L14.2666 15.0371L14.8297 14.2561C14.9135 14.1399 15.0865 14.1399 15.1703 14.2561L16.9232 16.6876C16.9488 16.723 16.9626 16.7656 16.9629 16.8093C16.9631 16.8529 16.9497 16.8956 16.9246 16.9313L15.1717 19.4194C15.088 19.5381 14.912 19.5381 14.8284 19.4194L14.2666 18.6221L15.4579 16.9313Z" fill="#814BA2"/>
<path d="M22.9102 25.3921C22.6675 25.3921 22.4707 25.1953 22.4707 24.9526C22.4707 24.7099 22.6675 24.5132 22.9102 24.5132C23.1529 24.5132 23.3496 24.7099 23.3496 24.9526C23.3496 25.1953 23.1529 25.3921 22.9102 25.3921Z" fill="#FED402"/>
<path d="M19.7461 25.3921C19.5034 25.3921 19.3066 25.1953 19.3066 24.9526C19.3066 24.7099 19.5034 24.5132 19.7461 24.5132C19.9888 24.5132 20.1855 24.7099 20.1855 24.9526C20.1855 25.1953 19.9888 25.3921 19.7461 25.3921Z" fill="#FED402"/>
<path d="M16.582 25.3921C16.3393 25.3921 16.1426 25.1953 16.1426 24.9526C16.1426 24.7099 16.3393 24.5132 16.582 24.5132C16.8247 24.5132 17.0215 24.7099 17.0215 24.9526C17.0215 25.1953 16.8247 25.3921 16.582 25.3921Z" fill="#FED402"/>
<path d="M13.418 25.3921C13.1753 25.3921 12.9785 25.1953 12.9785 24.9526C12.9785 24.7099 13.1753 24.5132 13.418 24.5132C13.6607 24.5132 13.8574 24.7099 13.8574 24.9526C13.8574 25.1953 13.6607 25.3921 13.418 25.3921Z" fill="#FED402"/>
<path d="M10.2539 25.3921C10.0112 25.3921 9.81445 25.1953 9.81445 24.9526C9.81445 24.7099 10.0112 24.5132 10.2539 24.5132C10.4966 24.5132 10.6934 24.7099 10.6934 24.9526C10.6934 25.1953 10.4966 25.3921 10.2539 25.3921Z" fill="#FED402"/>
<path d="M7.08984 25.3921C6.84714 25.3921 6.65039 25.1953 6.65039 24.9526C6.65039 24.7099 6.84714 24.5132 7.08984 24.5132C7.33255 24.5132 7.5293 24.7099 7.5293 24.9526C7.5293 25.1953 7.33255 25.3921 7.08984 25.3921Z" fill="#FED402"/>
<path d="M19.7724 0.128276C19.4626 1.01732 19.1012 1.37873 18.2121 1.68851C18.0411 1.7481 18.0411 1.98933 18.2121 2.04892C19.1012 2.35871 19.4626 2.72011 19.7724 3.60916C19.832 3.78019 20.0732 3.78019 20.1328 3.60916C20.4426 2.72011 20.804 2.35871 21.693 2.04892C21.864 1.98933 21.864 1.7481 21.693 1.68851C20.804 1.37873 20.4426 1.01732 20.1328 0.128276C20.0732 -0.042759 19.832 -0.042759 19.7724 0.128276Z" fill="#FE9901"/>
<path d="M20.8856 1.28955C21.0966 1.44705 21.357 1.57156 21.693 1.68863C21.864 1.74822 21.864 1.98945 21.693 2.04904C20.804 2.35883 20.4426 2.72024 20.1328 3.60928C20.0732 3.78031 19.832 3.78031 19.7724 3.60928C19.6568 3.27752 19.5339 3.01942 19.3793 2.80988C19.6817 1.95383 20.0383 1.59295 20.8856 1.28955Z" fill="#FB8801"/>
<path d="M9.80752 1.75816C9.49774 2.6472 9.13633 3.00861 8.24729 3.31839C8.07625 3.37798 8.07625 3.61922 8.24729 3.67881C9.13633 3.98859 9.49774 4.35 9.80752 5.23904C9.86711 5.41008 10.1083 5.41008 10.1679 5.23904C10.4777 4.35 10.8391 3.98859 11.7282 3.67881C11.8992 3.61922 11.8992 3.37799 11.7282 3.3184C10.8391 3.00861 10.4777 2.6472 10.1679 1.75816C10.1083 1.58712 9.86711 1.58712 9.80752 1.75816Z" fill="#FE9901"/>
<path d="M10.8915 2.89575C11.1077 3.06415 11.3761 3.19558 11.7282 3.31821C11.8992 3.3778 11.8992 3.61903 11.7282 3.67862C10.8391 3.98841 10.4777 4.34982 10.1679 5.23886C10.1083 5.4099 9.86711 5.4099 9.80752 5.23886C9.68735 4.89398 9.55897 4.62919 9.39549 4.41532C9.69678 3.56067 10.0514 3.19868 10.8915 2.89575Z" fill="#FB8801"/>
</svg>
