<svg width="39" height="37" viewBox="0 0 39 37" fill="none" xmlns="http://www.w3.org/2000/svg">
<path d="M38.6616 14.436L29.9857 23.1926L32.1686 35.6538C32.3332 36.545 31.3768 37.2219 30.585 36.7934L19.4901 30.7848L8.39531 36.7965C7.60348 37.2281 6.64709 36.5512 6.81166 35.6569L8.99461 23.1957L0.315608 14.436C-0.31164 13.7995 0.0485618 12.722 0.93354 12.6009L13.0065 10.8868L18.5337 0.577565C18.9467 -0.192522 20.0367 -0.192522 20.4465 0.577565L25.9738 10.8868L38.0467 12.6009C38.9317 12.722 39.2919 13.7995 38.6616 14.436Z" fill="#10B3C2"/>
<path d="M38.6616 14.4327L29.9857 23.1925L32.1687 35.6567C32.3332 36.5479 31.3768 37.2248 30.585 36.7963L19.4902 30.7847L8.39535 36.7963C7.60353 37.2279 6.64713 36.551 6.8086 35.6567L7.57868 31.266C11.7427 31.0703 26.7843 29.111 28.1568 11.1971L38.0468 12.6007C38.9318 12.7218 39.292 13.7993 38.6616 14.4327Z" fill="#10B3C2"/>
<path d="M19.1888 2.2887L13.969 12.0266L7.5506 13.0606L15.2328 14.4269C16.388 14.6318 17.4841 13.8431 17.6549 12.6818L19.1888 2.2887Z" fill="#10B3C2"/>
</svg>
