<svg width="28" height="28" viewBox="0 0 28 28" fill="none" xmlns="http://www.w3.org/2000/svg">
<path d="M2 15H0V27H2C2.26522 27 2.51957 26.8946 2.70711 26.7071C2.89464 26.5196 3 26.2652 3 26V16C3 15.7348 2.89464 15.4804 2.70711 15.2929C2.51957 15.1054 2.26522 15 2 15ZM26.854 16.338C26.503 16.1261 26.1027 16.0099 25.6928 16.001C25.2829 15.992 24.8779 16.0907 24.518 16.287L17.969 19.807C17.8956 20.4108 17.6042 20.967 17.1495 21.3711C16.6949 21.7751 16.1082 21.9991 15.5 22.001H11.48C11.3474 22.001 11.2202 21.9483 11.1264 21.8546C11.0327 21.7608 10.98 21.6336 10.98 21.501C10.98 21.3684 11.0327 21.2412 11.1264 21.1474C11.2202 21.0537 11.3474 21.001 11.48 21.001H15.5C16.327 21.001 17 20.328 17 19.501C16.9989 19.1119 16.8466 18.7384 16.5753 18.4595C16.304 18.1805 15.9349 18.0179 15.546 18.006C15.246 18.003 10.414 18.001 10.414 18.001L8.707 16.295C8.51951 16.1075 8.26519 16.0021 8 16.002H4V26.002H5.766L9 27C10.344 27.432 11.781 28 13.374 28C14.814 28 16.232 27.523 17.457 26.584L26.98 20.281C27.2941 20.0662 27.5511 19.7781 27.7288 19.4417C27.9066 19.1052 27.9996 18.7305 28 18.35C28 17.517 27.572 16.765 26.854 16.338ZM14 11C16.205 11 18 9.206 18 7C18 4.794 16.205 3 14 3C11.795 3 10 4.794 10 7C10 9.206 11.794 11 14 11ZM12.146 7.146C12.2398 7.05226 12.3669 6.99961 12.4995 6.99961C12.6321 6.99961 12.7592 7.05226 12.853 7.146L13.423 7.715L15.083 5.223C15.1194 5.1683 15.1662 5.12131 15.2207 5.0847C15.2752 5.04809 15.3365 5.02258 15.4009 5.00962C15.4653 4.99667 15.5316 4.99653 15.596 5.0092C15.6605 5.02188 15.7218 5.04712 15.7765 5.0835C15.8312 5.11988 15.8782 5.16667 15.9148 5.22121C15.9514 5.27575 15.9769 5.33696 15.9899 5.40136C16.0028 5.46576 16.003 5.53207 15.9903 5.59653C15.9776 5.66098 15.9524 5.7223 15.916 5.777L13.916 8.777C13.8749 8.83863 13.8207 8.89041 13.7573 8.92862C13.6938 8.96682 13.6227 8.99052 13.549 8.998L13.5 9C13.4344 9.0001 13.3695 8.98725 13.3089 8.96219C13.2484 8.93714 13.1933 8.90037 13.147 8.854L12.147 7.854C12.1004 7.80755 12.0635 7.75238 12.0383 7.69163C12.0131 7.63089 12.0001 7.56577 12.0001 7.5C12.0001 7.43423 12.0131 7.36911 12.0383 7.30837C12.0635 7.24762 12.1004 7.19245 12.147 7.146H12.146Z" fill="url(#paint0_linear_4061_895)"/>
<path d="M26 10C25.263 10 24.625 10.405 24.278 11H23.414L21.707 9.293C21.5195 9.10545 21.2652 9.00006 21 9H18.576C18.3204 9.576 17.9568 10.0977 17.505 10.537C16.6178 11.4214 15.4289 11.9376 14.177 11.982L15.019 16.196C15.0599 16.4003 15.1636 16.5868 15.3156 16.7293C15.4676 16.8718 15.6603 16.9633 15.8669 16.991C16.0734 17.0186 16.2834 16.981 16.4676 16.8835C16.6517 16.786 16.8008 16.6334 16.894 16.447L17.618 15H19C19.1857 15 19.3678 14.9483 19.5257 14.8507C19.6837 14.753 19.8114 14.6133 19.8944 14.4472C19.9775 14.2811 20.0126 14.0952 19.996 13.9102C19.9793 13.7252 19.9114 13.5486 19.8 13.4L18 11H20.586L22.293 12.707C22.4805 12.8945 22.7348 12.9999 23 13H24.278C24.625 13.595 25.263 14 26 14C27.103 14 28 13.103 28 12C28 10.897 27.103 10 26 10ZM5.707 12.707L7.414 11H10L8.2 13.4C8.08818 13.5485 8.02 13.7252 8.00312 13.9103C7.98625 14.0954 8.02134 14.2815 8.10446 14.4478C8.18759 14.614 8.31544 14.7538 8.47364 14.8513C8.63185 14.9489 8.81413 15.0004 9 15H10.382L11.105 16.447C11.1981 16.6334 11.3471 16.786 11.5312 16.8836C11.7153 16.9812 11.9252 17.0189 12.1317 16.9913C12.3383 16.9638 12.531 16.8724 12.6831 16.73C12.8352 16.5876 12.939 16.4013 12.98 16.197L13.823 11.982C12.5715 11.9376 11.3831 11.4218 10.496 10.538C10.0437 10.0985 9.6798 9.57644 9.424 9H7C6.73481 9.00006 6.48049 9.10545 6.293 9.293L4.586 11H3.722C3.375 10.405 2.737 10 2 10C0.897 10 0 10.897 0 12C0 13.103 0.897 14 2 14C2.737 14 3.375 13.595 3.722 13H5C5.26519 12.9999 5.51951 12.8945 5.707 12.707ZM2 9C2.737 9 3.375 8.595 3.722 8H9.102C8.96731 7.34014 8.96731 6.65986 9.102 6H3.722C3.375 5.405 2.737 5 2 5C0.897 5 0 5.897 0 7C0 8.103 0.897 9 2 9ZM26 5C25.263 5 24.625 5.405 24.278 6H18.898C19.0327 6.65986 19.0327 7.34014 18.898 8H24.278C24.625 8.595 25.263 9 26 9C27.103 9 28 8.103 28 7C28 5.897 27.103 5 26 5ZM2 4C2.737 4 3.375 3.595 3.722 3H4.586L6.293 4.707C6.48049 4.89455 6.73481 4.99994 7 5H9.424C9.77719 4.20527 10.331 3.51605 11.031 3H7.414L5.707 1.293C5.51951 1.10545 5.26519 1.00006 5 1H3.722C3.375 0.405 2.737 0 2 0C0.897 0 0 0.897 0 2C0 3.103 0.897 4 2 4ZM18.576 5H21C21.2652 4.99994 21.5195 4.89455 21.707 4.707L23.414 3H24.278C24.625 3.595 25.263 4 26 4C27.103 4 28 3.103 28 2C28 0.897 27.103 0 26 0C25.263 0 24.625 0.405 24.278 1H23C22.7348 1.00006 22.4805 1.10545 22.293 1.293L20.586 3H16.969C17.669 3.51605 18.2228 4.20527 18.576 5Z" fill="url(#paint1_linear_4061_895)"/>
<defs>
<linearGradient id="paint0_linear_4061_895" x1="14" y1="3" x2="14" y2="28" gradientUnits="userSpaceOnUse">
<stop offset="0.406029" stop-color="#04D4CB"/>
<stop offset="1" stop-color="#A01ECE"/>
</linearGradient>
<linearGradient id="paint1_linear_4061_895" x1="14" y1="0" x2="14" y2="17.0001" gradientUnits="userSpaceOnUse">
<stop offset="0.406029" stop-color="#04D4CB"/>
<stop offset="1" stop-color="#A01ECE"/>
</linearGradient>
</defs>
</svg>
