<svg width="28" height="28" viewBox="0 0 28 28" fill="none" xmlns="http://www.w3.org/2000/svg">
<circle cx="14" cy="14" r="14" fill="#1E88E5"/>
<path d="M15.8224 6.45455L15.5455 16.6392H12.946L12.6619 6.45455H15.8224ZM14.2457 21.1847C13.777 21.1847 13.3745 21.0189 13.0384 20.6875C12.7022 20.3513 12.5365 19.9489 12.5412 19.4801C12.5365 19.0161 12.7022 18.6184 13.0384 18.2869C13.3745 17.9555 13.777 17.7898 14.2457 17.7898C14.6955 17.7898 15.0909 17.9555 15.4318 18.2869C15.7727 18.6184 15.9455 19.0161 15.9503 19.4801C15.9455 19.7926 15.8627 20.0791 15.7017 20.3395C15.5455 20.5952 15.3395 20.8011 15.0838 20.9574C14.8281 21.1089 14.5488 21.1847 14.2457 21.1847Z" fill="white"/>
</svg>
