<svg width="29" height="30" viewBox="0 0 29 30" fill="none" xmlns="http://www.w3.org/2000/svg">
<path d="M28.6342 9.17365C28.6185 9.42493 28.5227 9.6729 28.34 9.85938L20.5352 17.9279C19.9315 18.5495 18.9437 18.0842 18.9437 17.1773V12.6747H15.5263C12.2045 12.6747 9.36854 15.4898 9.23229 19.13C9.19217 20.1393 9.35937 21.1455 9.72153 22.0744C8.81798 21.2094 8.08832 20.1477 7.57892 18.9568C7.07151 17.7624 6.7771 15.1469 6.7771 15.1469C6.7771 15.1469 10.7461 5.53667 15.5631 5.53667H18.944V1.03706C18.944 0.130458 19.9315 -0.338382 20.5352 0.283211L28.34 8.35169C28.4412 8.45647 28.5201 8.58448 28.5709 8.72657C28.6218 8.86867 28.6434 9.02133 28.6342 9.17365Z" fill="#4DA6FF"/>
<path d="M23.0647 23.1815V26.8862C23.0647 28.6045 21.789 30.0001 20.2227 30.0001H2.83892C2.42595 30 2.01801 29.9008 1.64364 29.7096C1.26926 29.5184 0.937512 29.2398 0.671599 28.8932C0.238041 28.3326 3.65923e-05 27.6214 0 26.8862V7.82184C0 6.10386 1.27538 4.70825 2.83892 4.70825H5.21032C5.5421 4.70825 5.86028 4.85282 6.09488 5.11014C6.32948 5.36747 6.46128 5.71647 6.46128 6.08039C6.46112 6.44418 6.32925 6.79302 6.09467 7.0502C5.86009 7.30739 5.54199 7.45186 5.21032 7.45186H2.83892C2.65324 7.45186 2.50433 7.6185 2.50433 7.82217V26.8862C2.50433 27.0899 2.65324 27.2565 2.83892 27.2565H20.2227C20.4084 27.2565 20.56 27.0899 20.56 26.8862V23.1815C20.56 22.4243 21.1204 21.8093 21.814 21.8093C22.1457 21.8094 22.4638 21.954 22.6984 22.2113C22.9329 22.4687 23.0647 22.8176 23.0647 23.1815Z" fill="#A1C5E5"/>
<path d="M6.46128 6.0799C6.46128 6.44381 6.32948 6.79282 6.09488 7.05014C5.86028 7.30747 5.5421 7.45203 5.21032 7.45203H2.83892C2.65324 7.45203 2.50433 7.61834 2.50433 7.82201V26.8861L0.671599 28.893C0.238041 28.3324 3.65923e-05 27.6212 0 26.8861V7.82168C0 6.1037 1.27538 4.70809 2.83892 4.70809H5.21032C5.5421 4.70809 5.86028 4.85266 6.09488 5.10998C6.32948 5.36731 6.46128 5.71598 6.46128 6.0799ZM28.6343 9.17364H16.3155C11.4919 9.17364 7.5787 18.7564 7.5787 18.7564V18.9568C7.07129 17.7624 6.79813 16.4644 6.77688 15.1469C6.68736 9.86302 10.7462 5.53666 15.5631 5.53666H18.944V1.03706C18.944 0.130458 19.9315 -0.338382 20.5353 0.283211L28.3401 8.35169C28.4413 8.45647 28.5202 8.58448 28.571 8.72657C28.6219 8.86866 28.6435 9.02133 28.6343 9.17364Z" fill="white" fill-opacity="0.145098"/>
</svg>
