<svg width="45" height="37" viewBox="0 0 45 37" fill="none" xmlns="http://www.w3.org/2000/svg">
<path d="M44.5298 17.5343L28.4522 29.5105C28.3395 29.5952 28.2144 29.6619 28.0811 29.7085L25.1189 30.7382C24.9613 30.7928 24.7949 30.8182 24.628 30.8132C23.7877 30.784 23.0891 30.0362 23.0582 29.1385L22.8777 23.042C20.6952 22.9663 18.7003 23.2081 16.8833 23.681C10.7885 26.3588 7.13695 31.6138 5.3842 34.8031C5.30432 34.95 5.17262 35.0624 5.01443 35.1186L2.05272 36.1481C1.97522 36.175 1.89333 36.1873 1.81128 36.1844C1.4041 36.1686 1.06748 35.8028 1.05652 35.3677L1.0115 33.8466C0.702422 23.4026 6.65229 14.7375 15.2176 11.7752L18.1498 10.7558C19.5532 10.2684 21.0074 9.94003 22.4849 9.77682L22.3317 4.59802C22.3214 4.27106 22.4097 3.9485 22.5852 3.67183C22.7534 3.40659 23.0073 3.20614 23.3053 3.10344C23.3026 3.10433 23.2997 3.105 23.297 3.10588L26.2591 2.07617C26.4202 2.02039 26.5904 1.99485 26.7608 2.00086C27.065 2.01154 27.375 2.12064 27.6475 2.33459L44.4682 15.4507C44.5815 15.5394 44.6799 15.6454 44.7597 15.7647C45.1549 16.3534 45.0519 17.1455 44.5298 17.5343Z" fill="#8043CD"/>
<path d="M24.9998 0.000921722C25.3333 0.0123882 25.6734 0.130923 25.9722 0.363287L44.4168 14.6049C44.5411 14.7011 44.649 14.8163 44.7365 14.9459C45.1699 15.585 45.0569 16.4451 44.4845 16.8673L26.8545 29.8711C26.5832 30.0733 26.2495 30.1779 25.9093 30.1673C24.9879 30.1357 24.222 29.3236 24.188 28.3488L23.9901 21.7292C11.1928 21.2894 4.28423 30.7084 1.55942 35.6179C1.42085 35.8648 1.16729 36.0091 0.889718 35.9995C0.443225 35.9823 0.0741195 35.5851 0.0620092 35.1128L0.0126263 33.4612C-0.416366 19.1152 10.1392 7.86006 23.5891 8.32239L23.3912 1.70254C23.3799 1.34754 23.4767 0.997331 23.6693 0.696977C23.9787 0.223654 24.4815 -0.0168867 24.9998 0.000921722Z" fill="#10B3C2"/>
</svg>
