<svg width="170" height="124" viewBox="0 0 170 124" fill="none" xmlns="http://www.w3.org/2000/svg">
<g filter="url(#filter0_bd_4061_1395)">
<rect x="40" y="20" width="90" height="44" rx="10" fill="white" fill-opacity="0.6" shape-rendering="crispEdges"/>
<rect x="40.25" y="20.25" width="89.5" height="43.5" rx="9.75" stroke="black" stroke-width="0.5" style="mix-blend-mode:overlay" shape-rendering="crispEdges"/>
<path d="M53.367 46.195C52.847 46.195 52.3313 46.1473 51.82 46.052C51.3173 45.9653 50.9057 45.844 50.585 45.688V44.492C51.417 44.882 52.314 45.077 53.276 45.077C54.628 45.077 55.304 44.622 55.304 43.712C55.304 43.4 55.2303 43.1487 55.083 42.958C54.9357 42.7673 54.7233 42.6027 54.446 42.464C54.1687 42.3167 53.718 42.1173 53.094 41.866C52.236 41.5193 51.6163 41.138 51.235 40.722C50.8537 40.306 50.663 39.7817 50.663 39.149C50.663 38.6723 50.793 38.252 51.053 37.888C51.313 37.5153 51.677 37.2293 52.145 37.03C52.613 36.822 53.1503 36.718 53.757 36.718C54.251 36.718 54.6973 36.757 55.096 36.835C55.4947 36.913 55.8847 37.0387 56.266 37.212V38.356C55.512 38.018 54.7493 37.849 53.978 37.849C53.354 37.849 52.8773 37.9617 52.548 38.187C52.2187 38.4123 52.054 38.733 52.054 39.149C52.054 39.435 52.1233 39.6777 52.262 39.877C52.4093 40.0677 52.6217 40.241 52.899 40.397C53.185 40.5443 53.6053 40.7307 54.16 40.956C54.7753 41.2073 55.2607 41.4457 55.616 41.671C55.9713 41.8963 56.24 42.1737 56.422 42.503C56.6127 42.8237 56.708 43.2267 56.708 43.712C56.708 44.5007 56.4263 45.1117 55.863 45.545C55.2997 45.9783 54.4677 46.195 53.367 46.195ZM58.8991 38.538C58.6824 38.538 58.5004 38.4643 58.3531 38.317C58.2058 38.1697 58.1321 37.9877 58.1321 37.771C58.1321 37.5543 58.2058 37.3723 58.3531 37.225C58.5004 37.0777 58.6824 37.004 58.8991 37.004C59.1244 37.004 59.3108 37.0777 59.4581 37.225C59.6141 37.3723 59.6921 37.5543 59.6921 37.771C59.6921 37.9877 59.6141 38.1697 59.4581 38.317C59.3108 38.4643 59.1244 38.538 58.8991 38.538ZM58.2361 39.76H59.5751V46H58.2361V39.76ZM61.3821 39.76H62.6301V40.657C62.9248 40.293 63.2584 40.02 63.6311 39.838C64.0038 39.656 64.3894 39.565 64.7881 39.565C65.2908 39.565 65.6894 39.6517 65.9841 39.825C66.2788 39.9897 66.4954 40.2453 66.6341 40.592C66.9114 40.254 67.2494 39.9983 67.6481 39.825C68.0554 39.6517 68.4628 39.565 68.8701 39.565C69.6328 39.565 70.1831 39.76 70.5211 40.15C70.8591 40.5313 71.0281 41.099 71.0281 41.853V46H69.7541V42.022C69.7541 41.5107 69.6588 41.151 69.4681 40.943C69.2774 40.7263 68.9524 40.618 68.4931 40.618C67.8344 40.618 67.2971 40.904 66.8811 41.476C66.8984 41.606 66.9071 41.8183 66.9071 42.113V46H65.6331V42.022C65.6331 41.5107 65.5464 41.151 65.3731 40.943C65.1998 40.7263 64.8878 40.618 64.4371 40.618C63.7784 40.618 63.1891 40.9907 62.6691 41.736V46H61.3821V39.76ZM72.6555 36.393H73.9685V46H72.6555V36.393ZM77.9003 46.195C77.1463 46.195 76.5397 46.0043 76.0803 45.623C75.6297 45.233 75.4043 44.7087 75.4043 44.05C75.4043 43.3567 75.621 42.8237 76.0543 42.451C76.4963 42.0697 77.1203 41.879 77.9263 41.879C78.7843 41.879 79.5123 42.0523 80.1103 42.399V42.074C80.1103 41.58 79.9587 41.216 79.6553 40.982C79.3607 40.7393 78.8927 40.618 78.2513 40.618C77.87 40.618 77.4973 40.657 77.1333 40.735C76.778 40.8043 76.4573 40.904 76.1713 41.034V39.968C76.4313 39.8467 76.7693 39.7513 77.1853 39.682C77.6013 39.604 78.0043 39.565 78.3943 39.565C79.4257 39.565 80.1883 39.7947 80.6823 40.254C81.185 40.7047 81.4363 41.333 81.4363 42.139V46H80.2013V45.298C79.9327 45.5927 79.612 45.818 79.2393 45.974C78.8753 46.1213 78.429 46.195 77.9003 46.195ZM78.2253 45.194C78.6413 45.194 79.0183 45.1117 79.3563 44.947C79.6943 44.7823 79.9457 44.5527 80.1103 44.258V43.413C79.547 43.049 78.9187 42.867 78.2253 42.867C77.7227 42.867 77.3457 42.9667 77.0943 43.166C76.8517 43.3567 76.7303 43.6513 76.7303 44.05C76.7303 44.8127 77.2287 45.194 78.2253 45.194ZM83.0657 39.76H84.3397V40.878C84.5997 40.4967 84.9637 40.215 85.4317 40.033C85.9084 39.851 86.4587 39.76 87.0827 39.76V40.787C86.4154 40.787 85.8434 40.8953 85.3667 41.112C84.89 41.3287 84.5607 41.671 84.3787 42.139V46H83.0657V39.76ZM93.0696 36.913H97.2426C98.0486 36.913 98.6726 37.121 99.1146 37.537C99.5566 37.953 99.7776 38.5597 99.7776 39.357C99.7776 39.8077 99.6693 40.2063 99.4526 40.553C99.2446 40.891 98.9673 41.1423 98.6206 41.307C99.5913 41.593 100.077 42.2993 100.077 43.426C100.077 43.9547 99.9596 44.414 99.7256 44.804C99.5003 45.1853 99.1883 45.48 98.7896 45.688C98.3909 45.896 97.9489 46 97.4636 46H93.0696V36.913ZM97.0736 40.813C97.4983 40.813 97.8319 40.696 98.0746 40.462C98.3173 40.228 98.4386 39.8813 98.4386 39.422C98.4386 38.8933 98.3173 38.525 98.0746 38.317C97.8406 38.1003 97.4766 37.992 96.9826 37.992H94.3956V40.813H97.0736ZM97.1646 44.921C97.6759 44.921 98.0659 44.8083 98.3346 44.583C98.6033 44.3577 98.7376 43.972 98.7376 43.426C98.7376 42.88 98.5946 42.49 98.3086 42.256C98.0313 42.022 97.6109 41.905 97.0476 41.905H94.3956V44.921H97.1646ZM104.801 46.195C104.099 46.195 103.479 46.065 102.942 45.805C102.413 45.5363 101.997 45.155 101.694 44.661C101.399 44.1583 101.252 43.569 101.252 42.893C101.252 42.2257 101.399 41.6407 101.694 41.138C101.989 40.6353 102.405 40.2497 102.942 39.981C103.479 39.7037 104.099 39.565 104.801 39.565C105.503 39.565 106.123 39.7037 106.66 39.981C107.197 40.2497 107.613 40.6353 107.908 41.138C108.211 41.6407 108.363 42.2257 108.363 42.893C108.363 43.569 108.211 44.1583 107.908 44.661C107.613 45.155 107.197 45.5363 106.66 45.805C106.123 46.065 105.503 46.195 104.801 46.195ZM104.801 45.155C105.477 45.155 106.014 44.947 106.413 44.531C106.812 44.115 107.011 43.569 107.011 42.893C107.011 42.191 106.812 41.6363 106.413 41.229C106.014 40.8217 105.477 40.618 104.801 40.618C104.125 40.618 103.588 40.8217 103.189 41.229C102.79 41.6363 102.591 42.191 102.591 42.893C102.591 43.569 102.79 44.115 103.189 44.531C103.588 44.947 104.125 45.155 104.801 45.155ZM112.004 46.195C111.371 46.195 110.882 46.013 110.535 45.649C110.197 45.285 110.028 44.7693 110.028 44.102V40.774H109.079V39.76H110.028V37.888H111.354V39.76H112.888V40.774H111.354V44.011C111.354 44.427 111.432 44.7217 111.588 44.895C111.753 45.0683 112.047 45.155 112.472 45.155C112.723 45.155 112.975 45.0987 113.226 44.986V46.026C112.897 46.1387 112.489 46.195 112.004 46.195ZM116.508 46.195C116.075 46.195 115.616 46.1387 115.13 46.026C114.645 45.922 114.264 45.779 113.986 45.597V44.479C114.324 44.6783 114.714 44.843 115.156 44.973C115.598 45.0943 116.027 45.155 116.443 45.155C116.911 45.155 117.254 45.0987 117.47 44.986C117.687 44.8733 117.795 44.6913 117.795 44.44C117.795 44.2493 117.743 44.0977 117.639 43.985C117.544 43.8637 117.375 43.7553 117.132 43.66C116.898 43.5647 116.543 43.452 116.066 43.322C115.555 43.1747 115.148 43.0273 114.844 42.88C114.55 42.724 114.324 42.529 114.168 42.295C114.021 42.061 113.947 41.7577 113.947 41.385C113.947 40.787 114.181 40.3363 114.649 40.033C115.126 39.721 115.763 39.565 116.56 39.565C116.976 39.565 117.384 39.604 117.782 39.682C118.181 39.76 118.502 39.8683 118.744 40.007V41.099C118.493 40.9517 118.181 40.8347 117.808 40.748C117.444 40.6613 117.072 40.618 116.69 40.618C116.231 40.618 115.88 40.6743 115.637 40.787C115.395 40.8997 115.273 41.099 115.273 41.385C115.273 41.567 115.325 41.7143 115.429 41.827C115.533 41.9397 115.698 42.0393 115.923 42.126C116.157 42.204 116.526 42.308 117.028 42.438C117.817 42.6547 118.363 42.9103 118.666 43.205C118.978 43.4997 119.134 43.907 119.134 44.427C119.134 44.9643 118.913 45.3933 118.471 45.714C118.029 46.0347 117.375 46.195 116.508 46.195Z" fill="black"/>
</g>
<defs>
<filter id="filter0_bd_4061_1395" x="-20" y="-40" width="210" height="164" filterUnits="userSpaceOnUse" color-interpolation-filters="sRGB">
<feFlood flood-opacity="0" result="BackgroundImageFix"/>
<feGaussianBlur in="BackgroundImageFix" stdDeviation="30"/>
<feComposite in2="SourceAlpha" operator="in" result="effect1_backgroundBlur_4061_1395"/>
<feColorMatrix in="SourceAlpha" type="matrix" values="0 0 0 0 0 0 0 0 0 0 0 0 0 0 0 0 0 0 127 0" result="hardAlpha"/>
<feOffset dy="20"/>
<feGaussianBlur stdDeviation="20"/>
<feComposite in2="hardAlpha" operator="out"/>
<feColorMatrix type="matrix" values="0 0 0 0 0 0 0 0 0 0 0 0 0 0 0 0 0 0 0.6 0"/>
<feBlend mode="overlay" in2="effect1_backgroundBlur_4061_1395" result="effect2_dropShadow_4061_1395"/>
<feBlend mode="normal" in="SourceGraphic" in2="effect2_dropShadow_4061_1395" result="shape"/>
</filter>
</defs>
</svg>
