<svg width="54" height="66" viewBox="0 0 54 66" fill="none" xmlns="http://www.w3.org/2000/svg">
<path d="M25.8617 60.7762C40.1448 60.7762 51.7235 49.1975 51.7235 34.9145C51.7235 20.6314 40.1448 9.05273 25.8617 9.05273C11.5787 9.05273 0 20.6314 0 34.9145C0 49.1975 11.5787 60.7762 25.8617 60.7762Z" fill="#FED402"/>
<path d="M49.2874 33.4081C50.4093 33.4661 51.6052 32.8482 51.9311 32.5016C51.9891 32.4399 52.0615 32.3709 52.1429 32.2938C52.5671 31.8919 53.148 31.3416 53.0568 30.462C52.9088 29.0366 51.586 22.2035 50.0603 19.9753C50.0431 19.9502 50.0297 19.9228 50.0205 19.8938C50.0086 19.8565 49.7272 18.9725 49.7222 18.3443C49.7205 18.105 49.1653 17.2296 48.5498 16.3987C47.7573 17.981 46.8899 19.0369 46.8707 19.0586C46.7677 19.1738 46.5409 19.328 46.1838 19.546C46.3647 20.2281 47.06 22.8739 47.1073 23.3921C47.162 23.9894 46.8863 25.7798 46.5903 26.753C46.366 27.4901 47.7522 31.0366 49.4612 31.9097L49.176 32.468C47.9815 31.8578 46.8558 30.0622 46.3019 28.5534C45.8922 30.2363 44.7947 31.7079 43.6795 32.8371C44.9951 32.9871 48.3103 33.3585 49.2876 33.4081H49.2874ZM35.5846 25.8472C36.486 21.9079 37.0289 19.8466 37.4949 19.5131C37.6568 19.3973 38.0382 19.1805 38.5661 18.8805C39.914 18.1141 42.1706 16.8312 42.9797 15.9534C43.0398 15.8879 43.1223 15.8501 43.214 15.8523C43.2361 15.8527 45.4315 15.879 46.1748 15.837C46.6837 15.8081 47.0403 15.5034 47.0807 15.379C46.9086 15.2893 46.3042 15.1406 45.813 15.0196C43.9235 14.5546 42.782 14.221 42.8654 13.5115C42.9546 12.7508 44.1535 12.1743 45.4359 11.6646C45.5205 11.6309 45.589 11.6036 45.6353 11.5839L45.7003 11.5562C46.7668 11.1016 46.9436 10.8624 46.9539 10.7602C46.9918 10.3903 46.6931 9.80257 46.5385 9.76966C46.2879 9.77232 45.2909 10.3117 44.9633 10.4891C44.86 10.5449 44.7746 10.5911 44.716 10.6212C44.6967 10.6311 42.604 11.5369 42.0795 11.3328C41.9745 11.2919 41.8961 11.2143 41.8591 11.1143C41.7731 10.8823 41.8134 10.667 43.0945 9.63314C43.6521 9.1833 44.3798 8.64068 44.5745 8.54961C44.585 8.54491 45.5246 8.11184 46.0208 8.00181C46.0169 7.7957 45.9022 7.3758 45.7873 7.24775C45.5544 6.98819 45.3346 6.74305 44.8017 6.9139C44.2616 7.08756 42.9997 7.75433 42.8405 7.9084C42.824 7.92548 40.9906 9.67405 40.178 9.3786C40.0839 9.34459 39.9538 9.26418 39.8687 9.07531C39.5248 8.312 40.2305 5.86156 40.3711 5.50561C40.5802 4.97552 41.0414 4.20092 41.2298 3.95124C41.2414 3.80767 41.0645 3.40642 40.8684 3.33526C40.5974 3.23683 40.0306 3.19106 39.6255 3.64497C39.4129 3.8829 38.8252 5.45059 38.3959 6.59509C37.7236 8.3877 37.4286 9.13816 37.215 9.34333L37.0935 9.46104C36.1468 10.3823 35.0904 11.3422 34.4323 11.4759C33.6942 11.6257 32.5701 11.6242 32.1193 11.4728C31.7113 11.3359 31.6217 10.762 31.5394 9.96605C31.5306 9.88141 31.5206 9.78408 31.5108 9.70994C31.3226 9.7054 30.908 9.7742 30.4969 10.0289C29.9899 10.3428 29.9021 11.0519 29.9587 11.1878C30.0295 11.3392 30.5441 11.9994 31.0005 12.5499C31.0449 12.6032 31.0701 12.6698 31.0726 12.7391C31.114 13.9337 32.5765 16.0458 32.5912 16.0669C32.6316 16.1248 32.6512 16.1946 32.6469 16.265C32.6426 16.3355 32.6147 16.4024 32.5677 16.455C32.4053 16.637 31.971 17.7301 31.6221 18.6084C31.1895 19.6968 30.6996 20.9305 30.3159 21.583C30.1817 21.8114 29.9091 22.3231 29.5642 22.9712C28.0112 25.8881 24.7796 31.9578 22.882 33.5002C20.7331 35.2469 20.3245 37.7337 20.3205 37.7586L19.7008 37.6635C19.7137 37.5795 19.9613 36.0504 21.0961 34.4861C19.961 34.4899 16.3413 34.8524 13.9269 39.0865C13.8683 39.1904 13.8116 39.2953 13.7568 39.4012L13.8192 39.3616C13.8604 39.4262 17.9916 45.8342 23.5272 46.8442C26.6753 47.4182 27.7184 45.4242 27.7614 45.3391C27.8391 45.1957 29.546 42.0515 29.9071 41.5437C30.3091 40.9133 34.8757 28.8395 35.3036 27.0596C35.3993 26.6559 35.4929 26.2517 35.5846 25.847V25.8472Z" fill="white"/>
<path d="M37.1027 57.3878C37.1024 57.3778 37.1025 57.3679 37.1031 57.358C37.1156 57.1572 38.3447 37.2225 37.6573 32.3782L38.278 32.29C38.354 32.8257 38.4074 33.534 38.4424 34.3715C38.7781 34.174 39.2225 33.9937 39.5681 34.1426C39.8654 34.2708 40.3068 34.4752 40.5398 34.584C41.4447 33.9945 46.4159 30.5492 45.7862 26.4368C45.3605 26.2999 44.3116 25.9626 44.0688 25.8857C43.848 25.8155 43.105 25.6035 42.7279 25.4962C42.5867 25.7998 42.4241 25.9609 42.2187 25.999C41.6563 26.1028 40.8786 25.9123 40.5119 25.8062C40.4217 25.9338 40.3004 26.1562 40.2577 26.4701C40.1674 27.1347 39.4159 27.4073 39.0225 27.5052C38.9595 27.7454 38.8322 27.9477 38.6472 28.0988C38.2032 28.4618 37.5458 28.4458 37.1933 28.4037C37.1048 28.4253 36.8764 28.7475 36.7096 28.9828C36.6077 29.128 36.5036 29.2716 36.3971 29.4135C36.2037 29.6696 35.9537 29.8253 35.6744 29.8638C35.6273 29.8703 35.5798 29.8735 35.5322 29.8734C35.3521 29.8734 35.1921 29.8275 35.0647 29.7747C33.5965 33.9342 30.758 41.4281 30.4174 41.9069C30.1459 42.2888 28.925 44.5078 28.3171 45.6279C28.3113 45.6404 27.3251 47.5733 24.5998 47.5733C24.2361 47.5733 23.8416 47.5388 23.4142 47.4609C21.1301 47.044 19.1036 45.7964 17.4746 44.4196C16.9245 44.835 16.2308 45.0459 15.5325 45.0459C14.8142 45.0459 14.0918 44.8234 13.5176 44.3729C13.3241 44.221 12.994 43.9096 12.7424 43.4113L12.7258 43.4204C11.9883 42.0645 10.2039 37.5093 10.1283 37.3161L10.712 37.0877C10.7252 37.1211 11.6488 39.4786 12.4412 41.3178C12.5383 40.6088 12.8172 39.7661 13.3819 38.7758C16.4218 33.4445 21.4537 33.8688 21.5047 33.8738L21.4943 33.9807C21.7952 33.6293 22.127 33.3056 22.4858 33.0136C23.5713 32.1315 25.1625 29.601 26.5913 27.0995C24.1148 25.5512 21.6308 21.3839 21.0829 20.4282C20.1832 20.5662 16.6455 21.1408 15.0405 21.8774C14.528 22.1125 13.9172 22.3133 13.2705 22.526C11.4695 23.118 9.42834 23.789 8.43227 25.4979C7.06207 27.8487 8.28243 31.4743 8.80358 33.0224C9.16941 34.1097 9.3843 36.9769 9.44198 41.5444L9.44543 41.8019C9.46016 42.7339 8.98587 48.3896 8.95672 48.7362C8.94919 48.9982 8.77177 55.1253 8.73603 56.4745L8.44967 65.1723C10.7526 65.4604 23.5206 66.8751 37.2825 64.7695C37.2841 62.8874 37.1046 57.4475 37.1027 57.3878Z" fill="white"/>
<path d="M43.1218 20.8004C43.4023 20.4744 44.1515 20.0205 45.1794 19.4148C45.6792 19.1205 46.3012 18.7542 46.4026 18.6409C46.4424 18.5963 50.2745 13.8405 48.9203 9.5913C47.4918 5.1086 43.56 1.81334 40.5861 0.988746C37.2386 0.0607023 31.2094 0.708029 28.8986 5.04418C27.3782 7.89759 27.4445 10.633 27.4928 12.6303C27.519 13.7086 27.5378 14.4878 27.3 14.997C26.6749 16.3353 24.7886 19.2137 22.0307 20.7922C22.9473 22.2885 24.9654 25.3298 26.9013 26.5533C27.7213 25.0972 28.4693 23.6928 29.0103 22.6764C29.3724 21.9963 29.6342 21.5049 29.7752 21.2651C30.1342 20.6542 30.615 19.4443 31.0392 18.3769C31.4617 17.3131 31.7442 16.6124 31.9558 16.2465C31.5942 15.6998 30.5533 14.0368 30.4523 12.871C30.2644 12.643 30.0797 12.4125 29.8981 12.1794C29.5508 12.4141 28.4839 13.2532 28.6256 14.6201C28.8063 16.3614 29.0354 17.4959 29.1768 17.9384C29.2058 18.02 29.4671 18.2921 29.939 18.5496L29.6387 19.0999C29.4871 19.0173 28.7241 18.5821 28.5795 18.1291C28.4219 17.6355 28.1875 16.4715 28.002 14.6848C27.8284 13.0121 29.0654 11.993 29.5255 11.6751C29.4636 11.5842 29.4154 11.5066 29.3901 11.4526C29.1798 11.0023 29.4183 9.959 30.1666 9.49584C30.8315 9.08425 31.7967 8.91498 32.0448 9.31403C32.11 9.41904 32.126 9.5471 32.1627 9.90164C32.1865 10.1336 32.2489 10.7355 32.3507 10.8883C32.6714 10.9756 33.63 10.999 34.3073 10.8615C34.6828 10.7852 35.4731 10.1629 36.656 9.01168L36.7805 8.89099C36.932 8.712 37.4388 7.36123 37.8087 6.37488C38.467 4.61911 38.8864 3.53103 39.1574 3.22743C39.7075 2.61145 40.5204 2.54186 41.0821 2.74593C41.4741 2.88825 41.7193 3.31693 41.81 3.64091C41.89 3.92601 41.8655 4.15955 41.7395 4.31645C41.611 4.47695 41.1476 5.24465 40.9539 5.73571C40.6864 6.41344 40.2649 8.38473 40.4273 8.79256C40.8019 8.78739 42.0682 7.80402 42.3893 7.47283C42.6428 7.20904 44.0427 6.49918 44.6097 6.31705C45.5297 6.02207 46.0006 6.54682 46.2537 6.82895C46.5241 7.13036 46.7452 7.95355 46.593 8.32219C46.5244 8.4888 46.3827 8.59382 46.2142 8.60338C46.0333 8.61357 45.2675 8.91764 44.8396 9.11764C44.6321 9.22077 43.5402 10.0505 42.9014 10.6132C43.458 10.4523 44.197 10.1828 44.4291 10.0635C44.4849 10.0349 44.5663 9.99082 44.6647 9.93753C45.5904 9.43675 46.1933 9.14601 46.5369 9.14303C46.6752 9.14177 46.8853 9.18974 47.0994 9.42453C47.4074 9.76261 47.6218 10.3905 47.5773 10.8242C47.5167 11.416 46.7034 11.8101 45.9457 12.133L45.8821 12.1601C45.8322 12.1815 45.7584 12.2109 45.6669 12.2472C43.8978 12.9505 43.5377 13.3646 43.492 13.5602C43.6863 13.8506 45.2192 14.2279 45.9626 14.411C47.0117 14.6691 47.3935 14.7759 47.5566 14.9603C47.7192 15.1437 47.7556 15.3851 47.6566 15.6224C47.4722 16.0654 46.8502 16.4268 46.2098 16.463C45.5462 16.5006 43.8401 16.4859 43.3418 16.4809C42.402 17.4207 40.2064 18.6689 38.8754 19.4255C38.403 19.6941 37.9949 19.9263 37.8596 20.0231C37.475 20.3951 36.5784 24.3137 36.1955 25.987C36.1033 26.3938 36.0091 26.8001 35.9129 27.206C35.8396 27.511 35.6048 28.2268 35.2714 29.1856C35.4273 29.262 35.6836 29.3185 35.8972 29.0359C36.0085 28.8882 36.1077 28.7483 36.1982 28.6205C36.5512 28.1226 36.8297 27.7295 37.2674 27.7812C37.6933 27.832 38.0604 27.7691 38.2508 27.6135C38.3621 27.5226 38.4232 27.3925 38.438 27.2158C38.4438 27.1455 38.4731 27.0792 38.5213 27.0276C38.5695 26.976 38.6337 26.9422 38.7035 26.9317C38.9894 26.8873 39.5945 26.6953 39.6365 26.3859C39.7387 25.6351 40.1792 25.2301 40.198 25.2132C40.2394 25.1758 40.2901 25.1502 40.3448 25.1389C40.3994 25.1277 40.4561 25.1312 40.5089 25.1491C40.7832 25.2423 41.5875 25.4624 42.0744 25.3876C42.3542 25.1137 42.6304 23.2806 42.7644 22.3924C42.9385 21.2364 42.9924 20.9509 43.1218 20.8004ZM13.4797 39.9837C12.7485 41.6892 12.8877 43.0818 13.9047 43.8797C14.7851 44.5708 16.093 44.5979 16.9889 43.9951C15.1823 42.3641 13.9381 40.6545 13.4797 39.9837Z" fill="white"/>
<path d="M8.81675 41.5524L8.82035 41.8119C8.83462 42.7218 8.33807 48.6327 8.3329 48.6922C8.33249 48.698 8.33223 48.7037 8.33212 48.7095C8.33212 48.7095 8.14763 55.0788 8.11111 56.4558L7.81222 65.5321L8.43885 65.5528L8.45139 65.1724L8.73775 56.4744C8.77365 55.1254 8.95092 48.9982 8.95844 48.7363C8.98759 48.3896 9.46188 42.7338 9.44715 41.8019L9.4437 41.5444C9.38602 36.9769 9.17113 34.1097 8.80531 33.0225C8.28415 31.4743 7.06395 27.8486 8.43399 25.498C9.43006 23.7889 11.4713 23.118 13.2722 22.526C13.9189 22.3134 14.5298 22.1125 15.0422 21.8774C16.6472 21.1407 20.1849 20.5661 21.0846 20.4282C21.6327 21.3838 24.1165 25.5512 26.5932 27.0994C25.1642 29.6009 23.5728 32.1315 22.4877 33.0136C22.1288 33.3056 21.797 33.6292 21.4961 33.9807L21.5064 33.8738C21.4555 33.8688 16.4234 33.4443 13.3836 38.7757C12.8189 39.7662 12.5401 40.6088 12.4429 41.3179C11.6506 39.4787 10.7269 37.1211 10.7137 37.0877L10.1301 37.316C10.2056 37.5093 11.9902 42.0644 12.7275 43.4204L12.7441 43.4114C12.9957 43.9095 13.3258 44.2211 13.5194 44.3729C14.0935 44.8235 14.8159 45.0459 15.5342 45.0459C16.2325 45.0459 16.9264 44.8349 17.4764 44.4196C19.1053 45.7965 21.1318 47.0441 23.4159 47.4609C23.8434 47.539 24.2379 47.5733 24.6017 47.5733C27.3269 47.5733 28.313 45.6404 28.3188 45.6282C28.9267 44.508 30.1477 42.2887 30.4191 41.9071C30.7597 41.4282 33.5984 33.9341 35.0664 29.7746C35.1938 29.8274 35.3539 29.8734 35.534 29.8734C35.5802 29.8734 35.6277 29.8705 35.6761 29.8639C35.9554 29.8254 36.2054 29.6696 36.399 29.4136C36.5054 29.2717 36.6095 29.1281 36.7114 28.9829C36.8781 28.7475 37.1065 28.4253 37.1951 28.4036C37.5476 28.4458 38.2051 28.4616 38.6491 28.0988C38.8339 27.9478 38.9612 27.7453 39.0242 27.5052C39.4176 27.4072 40.1692 27.1347 40.2594 26.4701C40.3021 26.1562 40.4234 25.9338 40.5137 25.8062C40.8803 25.9123 41.658 26.1027 42.2205 25.999C42.4259 25.961 42.5884 25.7999 42.7296 25.4963C43.1067 25.6033 43.8498 25.8156 44.0707 25.8856C44.3133 25.9627 45.3622 26.2999 45.7879 26.4369C46.4178 30.5492 41.4463 33.9945 40.5417 34.5841C40.3087 34.4752 39.8673 34.2708 39.57 34.1427C39.2242 33.9938 38.78 34.1741 38.4441 34.3716C38.4091 33.534 38.3557 32.8257 38.2797 32.2901L37.659 32.3782C38.3465 37.2226 37.1173 57.1572 37.1049 57.358C37.1043 57.3679 37.1042 57.3778 37.1045 57.3877C37.1063 57.4474 37.2858 62.8873 37.2842 64.7694C37.2842 64.9381 37.2827 65.0787 37.2792 65.1837L37.9059 65.2035C37.9461 63.9242 37.7457 57.8108 37.7316 57.3821C37.7856 56.5095 38.6631 42.2122 38.4693 35.1096C38.8022 34.8598 39.2091 34.6702 39.3217 34.7183C39.7239 34.8918 40.4242 35.2211 40.4312 35.2245C40.478 35.2466 40.5294 35.2567 40.5811 35.254C40.6327 35.2512 40.6828 35.2358 40.727 35.209C40.8347 35.144 41.9053 34.4855 43.0937 33.4009C43.552 33.454 48.0526 33.973 49.2568 34.0341C49.3179 34.0373 49.3786 34.0388 49.4394 34.0388C50.7692 34.0388 52.0234 33.3202 52.3892 32.9308C52.44 32.8768 52.504 32.8164 52.5753 32.749C53.0351 32.3133 53.8049 31.5843 53.6817 30.3972C53.5688 29.311 52.2867 22.1716 50.6059 19.6608C50.5529 19.4868 50.3541 18.8041 50.3504 18.3393C50.346 17.7737 49.3607 16.4177 48.8534 15.7569C49.6512 13.9548 50.2331 11.6407 49.5194 9.40089C48.2067 5.28198 44.4389 1.4057 40.755 0.384552C37.2128 -0.597254 30.819 0.110418 28.3469 4.74939C26.7491 7.74794 26.8204 10.6952 26.8678 12.6455C26.8899 13.5632 26.9091 14.3558 26.7336 14.7317C26.0418 16.2127 24.1496 18.8539 21.7076 20.2509C21.646 20.146 21.5853 20.0404 21.5257 19.9343C21.4949 19.8787 21.448 19.8338 21.3911 19.8055C21.3342 19.7772 21.2701 19.7669 21.2072 19.776C21.0241 19.8022 16.7013 20.4263 14.7809 21.3076C14.3005 21.528 13.7059 21.7235 13.0764 21.9305C11.2641 22.5263 9.00828 23.2676 7.89231 25.1822C6.37885 27.779 7.66284 31.5936 8.21111 33.2225C8.44826 33.9272 8.7459 35.9444 8.81675 41.5524ZM13.9063 43.8796C12.8893 43.0816 12.7501 41.689 13.4813 39.9836C13.9396 40.6544 15.1839 42.3639 16.9906 43.995C16.0947 44.5978 14.7867 44.5705 13.9063 43.8796ZM29.9083 41.5436C29.5472 42.0514 27.8403 45.1956 27.7626 45.339C27.7198 45.4241 26.6765 47.4181 23.5285 46.8441C17.9928 45.8341 13.8617 39.4259 13.8204 39.3615L13.7581 39.401C13.8125 39.2969 13.8678 39.1925 13.9281 39.0864C16.3425 34.8521 19.9624 34.4897 21.0973 34.486C19.9625 36.0502 19.7149 37.5792 19.702 37.6634L20.3218 37.7584C20.3257 37.7334 20.7341 35.2468 22.8832 33.5001C24.781 31.9577 28.0124 25.888 29.5654 22.9709C29.9104 22.323 30.1829 21.8111 30.3171 21.5827C30.7008 20.9302 31.1909 19.6967 31.6233 18.6081C31.9722 17.7299 32.4066 16.6368 32.5691 16.4549C32.6161 16.4023 32.644 16.3353 32.6482 16.2649C32.6524 16.1945 32.6328 16.1247 32.5925 16.0668C32.5777 16.0456 31.1152 13.9336 31.0737 12.7389C31.0712 12.6696 31.046 12.603 31.0017 12.5496C30.5453 11.9991 30.0307 11.339 29.9599 11.1875C29.9033 11.0518 29.9912 10.3427 30.4983 10.0288C30.9092 9.77424 31.3238 9.70528 31.5121 9.70982C31.5218 9.78396 31.5318 9.88114 31.5406 9.96593C31.6229 10.7618 31.7127 11.3358 32.1205 11.4727C32.5713 11.6241 33.6954 11.6256 34.4335 11.4758C35.0915 11.3421 36.1481 10.3822 37.0949 9.46092L37.2162 9.34306C37.4299 9.13789 37.7248 8.38743 38.3971 6.59482C38.8264 5.45032 39.4142 3.88278 39.6265 3.6447C40.0319 3.19094 40.5986 3.23671 40.8696 3.33498C41.0657 3.40614 41.2427 3.80755 41.2311 3.95112C41.0427 4.2008 40.5814 4.9754 40.3721 5.50549C40.2317 5.86144 39.5261 8.31172 39.8699 9.07504C39.9551 9.26406 40.0851 9.34431 40.1792 9.37848C40.9919 9.67377 42.8252 7.92521 42.8417 7.90828C43.0009 7.75421 44.2628 7.08729 44.803 6.91378C45.3359 6.74278 45.5556 6.98791 45.7885 7.24763C45.9034 7.37553 46.0181 7.79558 46.0221 8.00154C45.5258 8.11157 44.5863 8.54463 44.5757 8.54949C44.381 8.6404 43.6533 9.18318 43.0959 9.63302C41.8146 10.6669 41.7743 10.8822 41.8604 11.1142C41.8975 11.2142 41.9757 11.2916 42.0807 11.3325C42.6052 11.5368 44.6979 10.631 44.7172 10.6209C44.7758 10.591 44.8614 10.5448 44.9647 10.4888C45.2923 10.3115 46.2891 9.7722 46.5398 9.76938C46.6945 9.8023 46.993 10.3901 46.9551 10.76C46.9448 10.8623 46.768 11.1015 45.7015 11.5559L45.6365 11.5838C45.5902 11.6035 45.5218 11.6308 45.437 11.6643C44.1547 12.1742 42.9558 12.7505 42.8665 13.5112C42.7834 14.2207 43.9248 14.5544 45.8142 15.0195C46.3054 15.1403 46.9098 15.2891 47.0821 15.3787C47.0415 15.5033 46.6851 15.808 46.176 15.8369C45.4327 15.8789 43.2373 15.8524 43.2152 15.8522C43.1712 15.8511 43.1274 15.8596 43.087 15.877C43.0465 15.8944 43.0103 15.9204 42.9809 15.9532C42.1718 16.8309 39.9154 18.1138 38.5671 18.8802C38.0394 19.1802 37.6581 19.3972 37.4962 19.513C37.0302 19.8465 36.4872 21.9076 35.5858 25.8469C35.4764 26.325 35.3807 26.7438 35.3048 27.0591C34.8769 28.8394 30.3104 40.9132 29.9083 41.5436ZM42.0759 25.3875C41.589 25.4621 40.7847 25.2422 40.5105 25.149C40.4577 25.131 40.401 25.1275 40.3463 25.1388C40.2917 25.1501 40.241 25.1757 40.1996 25.2131C40.1808 25.23 39.7403 25.6352 39.6381 26.3858C39.5961 26.6952 38.9908 26.8872 38.7051 26.9315C38.6353 26.9421 38.5711 26.9759 38.523 27.0274C38.4748 27.079 38.4454 27.1452 38.4396 27.2156C38.4248 27.3922 38.3637 27.5223 38.2524 27.6132C38.062 27.7688 37.6947 27.8318 37.2689 27.7809C36.8311 27.7292 36.5526 28.1224 36.1999 28.6202C36.1093 28.7481 36.0103 28.8881 35.8987 29.0356C35.685 29.3183 35.4289 29.2618 35.273 29.1853C35.6064 28.2265 35.8412 27.5107 35.9145 27.2057C35.9907 26.8886 36.0871 26.4674 36.1971 25.9869C36.5799 24.3136 37.4766 20.395 37.861 20.023C37.9965 19.9261 38.4046 19.694 38.877 19.4254C40.2079 18.6688 42.4036 17.4204 43.3433 16.4807C43.8417 16.4858 45.5478 16.5005 46.2114 16.4627C46.8517 16.4267 47.4738 16.0652 47.6582 15.6223C47.757 15.3848 47.7206 15.1435 47.5582 14.9601C47.3949 14.7757 47.0133 14.669 45.9642 14.4109C45.2208 14.2278 43.6879 13.8505 43.4936 13.5601C43.5393 13.3645 43.8995 12.9504 45.6685 12.2471C45.76 12.2107 45.8337 12.1813 45.8837 12.1599L45.9473 12.1327C46.7048 11.8098 47.5181 11.4159 47.5789 10.8241C47.6233 10.3904 47.409 9.76249 47.1009 9.4244C46.8869 9.18961 46.6768 9.14165 46.5384 9.1429C46.1949 9.14604 45.592 9.43663 44.6663 9.93741C44.5678 9.9907 44.4865 10.0347 44.4307 10.0634C44.1987 10.1825 43.4596 10.4521 42.903 10.6131C43.5418 10.0504 44.6337 9.22064 44.8412 9.11751C45.2691 8.91751 46.0349 8.61344 46.2158 8.60325C46.3843 8.59369 46.5258 8.48852 46.5946 8.32207C46.7467 7.95326 46.5257 7.13008 46.2551 6.82883C46.0022 6.5467 45.5313 6.02194 44.6113 6.31692C44.0443 6.49905 42.6442 7.20876 42.3909 7.47255C42.0696 7.80389 40.8035 8.78726 40.4289 8.79228C40.2665 8.3846 40.688 6.41331 40.9555 5.73558C41.1492 5.24452 41.6124 4.47682 41.7412 4.31632C41.8671 4.15942 41.8915 3.92573 41.8116 3.64078C41.7209 3.3168 41.4757 2.88812 41.0837 2.74581C40.522 2.54173 39.7091 2.61133 39.159 3.22715C38.8878 3.53075 38.4686 4.61898 37.8101 6.37476C37.4402 7.36111 36.9336 8.71172 36.7819 8.89102L36.6574 9.01156C35.4747 10.1626 34.6844 10.785 34.3089 10.8612C33.6316 10.9987 32.673 10.9753 32.3522 10.888C32.2503 10.7352 32.1881 10.1333 32.1641 9.90136C32.1276 9.54697 32.1116 9.41892 32.0462 9.3139C31.7981 8.91485 30.8331 9.08397 30.1682 9.49572C29.4199 9.95888 29.1814 11.002 29.3916 11.4523C29.4169 11.5065 29.4652 11.5841 29.527 11.675C29.067 11.9929 27.83 13.012 28.0035 14.6847C28.1891 16.4713 28.4235 17.6354 28.5811 18.129C28.7257 18.582 29.4887 19.0172 29.6401 19.0998L29.9405 18.5494C29.4687 18.292 29.2074 18.0199 29.1784 17.9381C29.037 17.4958 28.8079 16.3611 28.6271 14.6199C28.4853 13.253 29.5524 12.414 29.8997 12.1792C30.0813 12.4123 30.266 12.6429 30.4539 12.8709C30.5549 14.0367 31.5958 15.6997 31.9574 16.2464C31.7458 16.6121 31.4633 17.313 31.0406 18.3768C30.6165 19.4442 30.1357 20.654 29.7767 21.265C29.6356 21.5048 29.374 21.9962 29.0119 22.6763C28.4707 23.6927 27.7228 25.0972 26.9029 26.5532C24.967 25.3297 22.9489 22.2883 22.0322 20.7921C24.7902 19.2135 26.6764 16.3351 27.3015 14.9969C27.5394 14.4877 27.5206 13.7085 27.4942 12.6302C27.446 10.6329 27.3798 7.89746 28.9002 5.04405C31.211 0.707902 37.2402 0.0604181 40.5877 0.988619C43.5616 1.81306 47.4934 5.10831 48.9219 9.59117C50.2761 13.8403 46.4438 18.5961 46.404 18.6407C46.3026 18.7539 45.6808 19.1204 45.181 19.4147C44.1531 20.0202 43.4039 20.4741 43.1234 20.8003C42.994 20.9507 42.94 21.2362 42.766 22.3921C42.632 23.2805 42.3558 25.1135 42.076 25.3874L42.0759 25.3875ZM43.3859 22.4857C43.4627 21.9755 43.5578 21.3448 43.6168 21.1891C43.8791 20.9095 44.813 20.3592 45.4992 19.955L45.625 19.8807C45.9793 21.223 46.4515 23.0915 46.4843 23.449C46.5188 23.8274 46.3703 24.9693 46.1637 25.8996C46.1625 25.8991 46.1616 25.8983 46.1603 25.898C46.1603 25.898 44.5672 25.3855 44.2603 25.288C44.0356 25.2167 43.3249 25.0137 42.9359 24.903C43.0881 24.3422 43.2252 23.5512 43.3857 22.4857H43.3859ZM46.3031 28.5533C46.8568 30.0621 47.9827 31.8577 49.1772 32.4678L49.4625 31.9094C47.7534 31.0365 46.367 27.4898 46.5915 26.7529C46.8877 25.7797 47.1631 23.9894 47.1087 23.3919C47.0614 22.8738 46.3658 20.228 46.1851 19.5461C46.5421 19.3279 46.7689 19.1737 46.8717 19.0584C46.8912 19.0368 47.7586 17.9809 48.551 16.3986C49.1665 17.2293 49.7215 18.1049 49.7234 18.344C49.7283 18.9726 50.0096 19.8566 50.0217 19.8939C50.0311 19.9227 50.0443 19.9501 50.0615 19.9752C51.5872 22.2034 52.9101 29.0365 53.058 30.4619C53.1492 31.3415 52.5684 31.8918 52.1441 32.2937C52.0716 32.361 52.0009 32.4303 51.9322 32.5015C51.6065 32.8479 50.4104 33.4658 49.2886 33.4079C48.3114 33.3584 44.9964 32.9869 43.6806 32.8371C44.7959 31.708 45.8932 30.2362 46.3031 28.5533Z" fill="black"/>
</svg>
