<svg width="26" height="20" viewBox="0 0 26 20" fill="none" xmlns="http://www.w3.org/2000/svg">
<path d="M26 5.6297C26 4.59438 25.2063 3.75526 24.2272 3.75526C23.2483 3.75526 22.4547 4.59438 22.4547 5.6297C22.4574 5.70583 22.4646 5.78176 22.4762 5.85704L17.3279 8.57881L13.9412 3.46306C14.771 2.91335 15.0219 1.75663 14.502 0.879491C13.9823 0.0021399 12.8883 -0.263374 12.0586 0.286339C11.229 0.836053 10.9779 1.99277 11.4978 2.86991C11.64 3.10986 11.8317 3.31265 12.0586 3.46306L8.67208 8.57881L3.52378 5.85704C3.53526 5.78176 3.54257 5.70583 3.54536 5.6297C3.55014 4.59438 2.76028 3.75123 1.78132 3.74624C0.802364 3.74124 0.00479469 4.57618 2.12617e-05 5.61144C-0.00434592 6.56176 0.664544 7.36507 1.55657 7.48105L3.54557 16.9456V19.3752C3.54557 19.7202 3.80998 20 4.1363 20H21.8637C22.19 20 22.4547 19.7203 22.4547 19.3752V16.9456L24.4435 7.48083C25.3297 7.36754 25.9974 6.57374 26 5.6297ZM24.2272 5.00481C24.5538 5.00481 24.8182 5.28456 24.8182 5.62964C24.8182 5.97489 24.5538 6.25442 24.2272 6.25442C23.9009 6.25442 23.6363 5.97484 23.6363 5.62964C23.6365 5.28461 23.9009 5.00503 24.2272 5.00481ZM13 1.2562C13.3263 1.2562 13.591 1.53579 13.591 1.88098C13.591 2.22602 13.3263 2.50581 13 2.50581C12.6737 2.50581 12.4091 2.22602 12.4091 1.88098C12.4093 1.53595 12.6737 1.25637 13 1.2562ZM9.34772 9.73655L13 4.2203L16.6523 9.73666C16.7335 9.85951 16.8538 9.94739 16.9912 9.98423C17.1286 10.0211 17.2739 10.0044 17.4007 9.93736L23.0004 6.9773C23.0886 7.06629 23.1852 7.14544 23.2888 7.21349L21.3898 16.2514H4.61019L2.71128 7.21344C2.81479 7.14531 2.91144 7.06617 2.99972 6.97724L8.59931 9.93736C8.72612 10.0042 8.87143 10.0207 9.00878 9.98389C9.14614 9.94703 9.26641 9.85926 9.34772 9.73655ZM1.18185 5.62975C1.18185 5.28472 1.44627 5.00492 1.77279 5.00492C2.09911 5.00492 2.36373 5.28466 2.36373 5.62975C2.36373 5.975 2.09911 6.25453 1.77279 6.25453C1.44647 6.25431 1.18206 5.97479 1.18185 5.62975ZM21.2728 18.7503H4.72724V17.5007H21.2728V18.7503Z" fill="white"/>
</svg>
