<svg width="72" height="53" viewBox="0 0 72 53" fill="none" xmlns="http://www.w3.org/2000/svg">
<path d="M26.3144 37.257H45.2094C46.1861 37.257 46.9809 38.0517 46.9809 39.0284C46.9809 40.005 46.1861 40.7998 45.2094 40.7998H26.3144C25.3377 40.7998 24.5429 40.005 24.5429 39.0284C24.5429 38.0517 25.3377 37.257 26.3144 37.257ZM23.362 19.5428C24.6645 19.5428 25.7239 20.6022 25.7239 21.9047C25.7239 22.7798 25.2397 23.5368 24.53 23.9454C25.8963 27.1811 28.0279 29.1663 30.0202 28.9868C32.2356 28.8061 34.0425 26.1868 35.0392 21.8043C33.7614 21.4807 32.8096 20.3293 32.8096 18.9524C32.8096 17.3238 34.1334 16 35.762 16C37.3905 16 38.7143 17.3238 38.7143 18.9524C38.7143 20.3294 37.7625 21.4808 36.4847 21.8043C37.4814 26.1868 39.2883 28.8061 41.5037 28.9868C43.4877 29.1663 45.6288 27.1811 46.9939 23.9454C46.2842 23.5368 45.8 22.7798 45.8 21.9047C45.8 20.6022 46.8593 19.5428 48.1619 19.5428C49.4644 19.5428 50.5237 20.6022 50.5237 21.9047C50.5237 23.1164 49.6026 24.106 48.4264 24.2406L46.1518 36.076H25.372L23.0975 24.2406C21.9212 24.106 21.0001 23.1164 21.0001 21.9047C21.0001 20.6022 22.0594 19.5428 23.362 19.5428Z" fill="white"/>
<path d="M10 0H62V2H10V0Z" fill="#06B8BE"/>
<path d="M10 0H62L72 40H0L10 0Z" fill="url(#paint0_linear_6002_755)"/>
<defs>
<linearGradient id="paint0_linear_6002_755" x1="36" y1="0" x2="36" y2="40" gradientUnits="userSpaceOnUse">
<stop stop-color="#0094FF" stop-opacity="0.29"/>
<stop offset="1" stop-color="#44DBFC" stop-opacity="0"/>
</linearGradient>
</defs>
</svg>
